{
.appVersion = "3133";
.formatVersion = 3;
customParameters = (
{
name = "Write lastChange";
value = 0;
},
{
name = "Write DisplayStrings";
value = 0;
}
);
date = "2022-01-25 13:01:20 +0000";
familyName = Nabla;
fontMaster = (
{
id = m01;
metricValues = (
{
over = 16;
pos = 700;
},
{
over = 16;
pos = 600;
},
{
over = 16;
pos = 500;
},
{
over = -16;
},
{
over = -16;
pos = -200;
},
{
pos = -40;
},
{
pos = -80;
},
{
pos = 740;
},
{
pos = 540;
}
);
name = Regular;
}
);
glyphs = (
{
color = 4;
glyphname = A;
layers = (
{
layerId = m01;
shapes = (
{
pos = (100,0);
ref = _part.square;
},
{
pos = (100,100);
ref = _part.square;
},
{
pos = (100,300);
ref = _part.square;
},
{
pos = (100,400);
ref = _part.square;
},
{
pos = (100,500);
ref = _part.square;
},
{
pos = (200,640);
ref = _part.corner;
scale = (-1,1);
},
{
pos = (300,200);
ref = _part.square;
scale = (-1,1);
},
{
pos = (200,640);
ref = _part.square;
},
{
pos = (300,200);
ref = _part.square;
},
{
pos = (300,640);
ref = _part.square;
},
{
pos = (400,200);
ref = _part.square;
scale = (0.5,1);
},
{
pos = (400,640);
ref = _part.square;
scale = (0.5,1);
},
{
pos = (450,0);
ref = _part.square;
},
{
pos = (450,100);
ref = _part.square;
},
{
pos = (450,300);
ref = _part.square;
},
{
pos = (450,400);
ref = _part.square;
},
{
pos = (450,500);
ref = _part.square;
},
{
pos = (450,640);
ref = _part.corner;
},
{
pos = (100,200);
ref = _part.square;
},
{
pos = (450,200);
ref = _part.square;
},
{
pos = (100,540);
ref = _part.square;
},
{
pos = (450,540);
ref = _part.square;
}
);
width = 650;
},
{
associatedMasterId = m01;
layerId = "D4DE8142-7A61-44C8-BE88-44C9AA6E80C1";
name = side;
shapes = (
{
closed = 0;
nodes = (
(450,230,l,{
name = shadowBottomColor;
}),
(450,0,l,{
name = shadowColor;
})
);
},
{
closed = 0;
nodes = (
(450,740,l,{
name = topColor;
}),
(200,740,ls,{
name = topColor;
}),
(147,740,o),
(100,693,o),
(100,640,cs,{
name = shadowColor;
}),
(100,0,l,{
name = shadowBottomColor;
})
);
},
{
closed = 0;
nodes = (
(450,640,l,{
name = shadowBottomColor;
}),
(450,300,l,{
name = shadowColor;
})
);
},
{
closed = 0;
nodes = (
(490,300,l,{
name = frontTopColor;
}),
(190,300,l,{
name = shadowColor;
})
);
}
);
width = 650;
},
{
associatedMasterId = m01;
layerId = "FA525724-9C3D-4B63-92A9-8DA3E26FE8E1";
name = highlightColor;
shapes = (
{
closed = 0;
nodes = (
(450,540,l,{
name = highlightColor;
}),
(450,300,l,{
name = highlightColor;
}),
(200,300,l,{
name = highlightColor;
})
);
},
{
closed = 0;
nodes = (
(450,740,l,{
name = highlightColor;
}),
(200,740,ls,{
name = highlightColor;
}),
(147,740,o),
(100,693,o),
(100,640,cs,{
name = highlightColor;
}),
(100,200,l,{
name = highlightColor;
})
);
}
);
width = 650;
}
);
metricLeft = H;
metricRight = H;
unicode = 65;
},
{
color = 4;
glyphname = AE;
layers = (
{
layerId = m01;
shapes = (
{
pos = (100,0);
ref = _part.square;
},
{
pos = (100,100);
ref = _part.square;
},
{
pos = (100,200);
ref = _part.square;
},
{
pos = (100,400);
ref = _part.square;
},
{
pos = (200,600);
ref = _part.corner;
scale = (-1,1);
},
{
pos = (300,200);
ref = _part.square;
scale = (-1,1);
},
{
pos = (200,600);
ref = _part.square;
},
{
angle = 180;
pos = (450,100);
ref = _part.corner;
},
{
pos = (350,100);
ref = _part.square;
},
{
pos = (350,200);
ref = _part.square;
},
{
pos = (350,400);
ref = _part.square;
},
{
pos = (350,600);
ref = _part.square;
},
{
angle = 180;
pos = (550,100);
ref = _part.square;
},
{
pos = (550,600);
ref = _part.square;
scale = (-1,1);
},
{
pos = (550,300);
ref = _part.square;
scale = (0.8,1);
},
{
pos = (550,600);
ref = _part.square;
scale = (0.8,1);
},
{
pos = (550,0);
ref = _part.square;
scale = (0.8,1);
},
{
pos = (550,300);
ref = _part.square;
scale = (-1,1);
},
{
pos = (350,200);
ref = _part.square;
scale = (-0.5,1);
},
{
pos = (300,600);
ref = _part.square;
scale = (0.5,1);
},
{
pos = (100,300);
ref = _part.square;
},
{
pos = (350,300);
ref = _part.square;
},
{
pos = (100,500);
ref = _part.square;
},
{
pos = (350,500);
ref = _part.square;
}
);
width = 730;
},
{
associatedMasterId = m01;
layerId = "F120A161-BFBE-4377-AF61-33478BF6D5F0";
name = side;
shapes = (
{
closed = 0;
nodes = (
(630,700,l,{
name = topColor;
}),
(200,700,ls,{
name = topColor;
}),
(147,700,o),
(100,653,o),
(100,600,cs,{
name = shadowColor;
}),
(100,0,l,{
name = shadowBottomColor;
})
);
},
{
closed = 0;
nodes = (
(350,600,l,{
name = shadowBottomColor;
}),
(350,300,l,{
name = shadowColor;
})
);
},
{
closed = 0;
nodes = (
(350,200,l,{
name = shadowBottomColor;
}),
(350,100,l,{
name = shadowColor;
})
);
}
);
width = 730;
},
{
associatedMasterId = m01;
layerId = "7D80B02A-B363-42D6-92FF-E68DF28B9A13";
name = top;
shapes = (
{
closed = 0;
nodes = (
(370,300,l,{
name = frontTopColor;
}),
(200,300,l,{
name = shadowColor;
})
);
},
{
closed = 0;
nodes = (
(630,400,l,{
name = frontTopColor;
}),
(450,400,l,{
name = shadowColor;
})
);
},
{
closed = 0;
nodes = (
(630,100,l,{
name = frontTopColor;
}),
(450,100,l,{
name = shadowColor;
})
);
}
);
width = 730;
},
{
associatedMasterId = m01;
layerId = "9879E0E0-DBA3-4536-A73A-7866A49999A9";
name = highlightColor;
shapes = (
{
closed = 0;
nodes = (
(630,700,l,{
name = "";
}),
(200,700,l,{
name = "";
}),
(147,700,o,{
name = "";
}),
(100,653,o,{
name = "";
}),
(100,600,c,{
name = "";
}),
(100,200,l,{
name = "";
})
);
},
{
closed = 0;
nodes = (
(350,600,l,{
name = "";
}),
(350,300,l,{
name = "";
}),
(200,300,l,{
name = "";
})
);
},
{
closed = 0;
nodes = (
(630,400,l,{
name = "";
}),
(540,400,l,{
name = "";
}),
(450,400,l,{
name = "";
})
);
},
{
closed = 0;
nodes = (
(630,100,l,{
name = "";
}),
(550,100,l,{
name = "";
}),
(450,100,l,{
name = "";
})
);
}
);
width = 730;
}
);
metricLeft = H;
metricRight = H;
unicode = 198;
},
{
color = 4;
glyphname = B;
layers = (
{
layerId = m01;
shapes = (
{
pos = (200,640);
ref = _part.square;
scale = (-1,1);
},
{
pos = (100,100);
ref = _part.square;
},
{
pos = (100,300);
ref = _part.square;
},
{
pos = (100,400);
ref = _part.square;
},
{
pos = (100,500);
ref = _part.square;
},
{
pos = (460,640);
ref = _part.corner;
},
{
pos = (460,100);
ref = _part.square;
},
{
pos = (460,300);
ref = _part.corner;
},
{
pos = (460,500);
ref = _part.corner;
scale = (1,-1);
},
{
angle = 180;
pos = (200,100);
ref = _part.square;
},
{
pos = (460,100);
ref = _part.corner;
scale = (1,-1);
},
{
pos = (400,0);
ref = _part.square;
scale = (0.6,1);
},
{
pos = (300,0);
ref = _part.square;
},
{
pos = (400,640);
ref = _part.square;
scale = (0.6,1);
},
{
pos = (300,640);
ref = _part.square;
},
{
pos = (200,640);
ref = _part.square;
},
{
pos = (400,300);
ref = _part.square;
scale = (0.6,1);
},
{
pos = (300,300);
ref = _part.square;
},
{
pos = (300,300);
ref = _part.square;
scale = (-1,1);
},
{
pos = (460,500);
ref = _part.square;
},
{
angle = 180;
pos = (300,100);
ref = _part.corner;
},
{
pos = (100,200);
ref = _part.square;
},
{
pos = (460,200);
ref = _part.square;
},
{
pos = (100,540);
ref = _part.square;
},
{
pos = (460,540);
ref = _part.square;
}
);
width = 660;
},
{
associatedMasterId = m01;
layerId = "8966C031-067B-4C95-A644-260DCC7C04AC";
name = side;
shapes = (
{
closed = 0;
nodes = (
(100,740,l,{
name = shadowColor;
}),
(100,0,l,{
name = shadowBottomColor;
})
);
},
{
closed = 0;
nodes = (
(460,640,l,{
name = shadowBottomColor;
}),
(460,400,l,{
name = shadowColor;
})
);
},
{
closed = 0;
nodes = (
(460,300,l,{
name = shadowBottomColor;
}),
(460,100,l,{
name = shadowColor;
})
);
},
{
closed = 0;
nodes = (
(200,100,l,{
name = shadowBottomColor;
}),
(300,0,l,{
name = shadowColor;
})
);
}
);
width = 660;
},
{
associatedMasterId = m01;
layerId = "0508F9CA-0B55-4E3C-B494-846A95D8283E";
name = top;
shapes = (
{
closed = 0;
nodes = (
(560,640,l,{
name = topColor;
}),
(560,693,o),
(513,740,o),
(460,740,cs,{
name = topColor;
}),
(100,740,l,{
name = topColor;
})
);
},
{
closed = 0;
nodes = (
(460,100,l,{
name = frontTopColor;
}),
(150,100,l,{
name = shadowColor;
})
);
},
{
closed = 0;
nodes = (
(560,300,l,{
name = shadowMiddleColor;
}),
(460,400,l,{
name = frontTopColor;
}),
(150,400,l,{
name = shadowColor;
})
);
}
);
width = 660;
},
{
associatedMasterId = m01;
layerId = "0AA9A5F4-A136-4191-8FA1-E273530B0A82";
name = highlightColor;
shapes = (
{
closed = 0;
nodes = (
(460,640,l,{
name = highlightColor;
}),
(460,400,l,{
name = highlightColor;
}),
(200,400,l,{
name = highlightColor;
})
);
},
{
closed = 0;
nodes = (
(460,300,l,{
name = highlightColor;
}),
(460,100,l,{
name = highlightColor;
}),
(200,100,l,{
name = highlightColor;
})
);
},
{
closed = 0;
nodes = (
(460,740,ls,{
name = highlightColor;
}),
(100,740,l,{
name = highlightColor;
}),
(100,200,l,{
name = highlightColor;
})
);
}
);
width = 660;
}
);
metricLeft = H;
metricRight = H;
unicode = 66;
},
{
color = 4;
glyphname = C;
layers = (
{
layerId = m01;
shapes = (
{
angle = 180;
pos = (200,60);
ref = _part.corner;
},
{
pos = (100,60);
ref = _part.square;
},
{
pos = (200,640);
ref = _part.corner;
scale = (-1,1);
},
{
pos = (200,640);
ref = _part.square;
},
{
pos = (300,640);
ref = _part.square;
},
{
pos = (450,540);
ref = _part.square;
},
{
pos = (200,-40);
ref = _part.square;
},
{
pos = (300,-40);
ref = _part.square;
},
{
pos = (450,60);
ref = _part.square;
},
{
pos = (100,200);
ref = _part.square;
},
{
pos = (100,300);
ref = _part.square;
},
{
pos = (450,60);
ref = _part.corner;
scale = (1,-1);
},
{
pos = (400,-40);
ref = _part.square;
scale = (0.5,1);
},
{
pos = (100,540);
ref = _part.square;
},
{
pos = (400,640);
ref = _part.square;
scale = (0.5,1);
},
{
pos = (450,640);
ref = _part.corner;
},
{
pos = (100,400);
ref = _part.square;
},
{
pos = (100,100);
ref = _part.square;
},
{
pos = (100,500);
ref = _part.square;
}
);
width = 650;
},
{
associatedMasterId = m01;
layerId = "13F7DB04-9C43-40FD-A771-775EC2759071";
name = side;
shapes = (
{
closed = 0;
nodes = (
(450,160,l,{
name = shadowColor;
}),
(450,60,l,{
name = shadowColor;
})
);
},
{
closed = 0;
nodes = (
(450,660,l,{
name = shadowBottomColor;
}),
(450,540,l,{
name = shadowColor;
})
);
},
{
closed = 0;
nodes = (
(200,740,l,{
name = topColor;
}),
(147,740,o),
(100,693,o),
(100,640,cs,{
name = shadowColor;
}),
(100,60,l,{
name = shadowBottomColor;
})
);
}
);
width = 650;
},
{
associatedMasterId = m01;
layerId = "17BCE2E6-C5E8-447F-819B-331079EFA5DE";
name = top;
shapes = (
{
closed = 0;
nodes = (
(550,160,l,{
name = frontTopColor;
}),
(450,160,l,{
name = frontTopColor;
})
);
},
{
closed = 0;
nodes = (
(550,640,l,{
name = topColor;
}),
(200,740,l,{
name = topColor;
})
);
},
{
closed = 0;
nodes = (
(490,60,l,{
name = frontTopColor;
}),
(200,60,l,{
name = shadowColor;
})
);
}
);
width = 650;
},
{
associatedMasterId = m01;
layerId = "2DB8FC30-554A-4B5D-8FB6-E3D691B010F2";
name = highlightColor;
shapes = (
{
closed = 0;
nodes = (
(450,740,l,{
name = "";
}),
(200,740,ls,{
name = "";
}),
(147,740,o,{
name = "";
}),
(100,693,o,{
name = "";
}),
(100,640,cs,{
name = "";
}),
(100,190,ls,{
name = "";
})
);
},
{
closed = 0;
nodes = (
(450,160,l,{
name = "";
}),
(450,60,l,{
name = "";
}),
(200,60,l,{
name = "";
})
);
}
);
width = 650;
}
);
metricLeft = H;
metricRight = H;
unicode = 67;
},
{
color = 4;
glyphname = Ccedilla;
layers = (
{
layerId = m01;
shapes = (
{
angle = 180;
pos = (200,60);
ref = _part.corner;
},
{
pos = (100,60);
ref = _part.square;
},
{
pos = (200,640);
ref = _part.corner;
scale = (-1,1);
},
{
pos = (200,640);
ref = _part.square;
},
{
pos = (300,640);
ref = _part.square;
},
{
pos = (450,540);
ref = _part.square;
},
{
pos = (200,-40);
ref = _part.square;
},
{
pos = (300,-40);
ref = _part.square;
},
{
pos = (450,60);
ref = _part.square;
},
{
pos = (100,200);
ref = _part.square;
},
{
pos = (100,300);
ref = _part.square;
},
{
pos = (450,60);
ref = _part.corner;
scale = (1,-1);
},
{
pos = (400,-40);
ref = _part.square;
scale = (0.5,1);
},
{
pos = (100,540);
ref = _part.square;
},
{
pos = (400,640);
ref = _part.square;
scale = (0.5,1);
},
{
pos = (450,640);
ref = _part.corner;
},
{
pos = (100,400);
ref = _part.square;
},
{
pos = (100,100);
ref = _part.square;
},
{
pos = (100,500);
ref = _part.square;
},
{
pos = (230,-40);
ref = cedillacomb;
}
);
width = 650;
},
{
associatedMasterId = m01;
layerId = "13F7DB04-9C43-40FD-A771-775EC2759071";
name = side;
shapes = (
{
closed = 0;
nodes = (
(450,160,l,{
name = shadowColor;
}),
(450,60,l,{
name = shadowColor;
})
);
},
{
closed = 0;
nodes = (
(450,660,l,{
name = shadowBottomColor;
}),
(450,540,l,{
name = shadowColor;
})
);
},
{
closed = 0;
nodes = (
(200,740,l,{
name = topColor;
}),
(147,740,o),
(100,693,o),
(100,640,cs,{
name = shadowColor;
}),
(100,60,l,{
name = shadowBottomColor;
})
);
},
{
closed = 0;
nodes = (
(330,-40,l,{
name = shadowBottomColor;
}),
(330,-140,l,{
name = shadowColor;
})
);
},
{
closed = 0;
nodes = (
(230,-140,l,{
name = shadowBottomColor;
}),
(230,-240,l,{
name = shadowBottomColor;
})
);
}
);
width = 650;
},
{
associatedMasterId = m01;
layerId = "17BCE2E6-C5E8-447F-819B-331079EFA5DE";
name = top;
shapes = (
{
closed = 0;
nodes = (
(550,160,l,{
name = frontTopColor;
}),
(450,160,l,{
name = frontTopColor;
})
);
},
{
closed = 0;
nodes = (
(550,640,l,{
name = topColor;
}),
(200,740,l,{
name = topColor;
})
);
},
{
closed = 0;
nodes = (
(490,60,l,{
name = frontTopColor;
}),
(200,60,l,{
name = shadowColor;
})
);
},
{
closed = 0;
nodes = (
(380,-140,l,{
name = shadowBottomColor;
}),
(230,-140,l,{
name = shadowColor;
})
);
}
);
width = 650;
},
{
associatedMasterId = m01;
layerId = "2DB8FC30-554A-4B5D-8FB6-E3D691B010F2";
name = highlightColor;
shapes = (
{
closed = 0;
nodes = (
(450,740,l,{
name = "";
}),
(200,740,ls,{
name = "";
}),
(147,740,o,{
name = "";
}),
(100,693,o,{
name = "";
}),
(100,640,cs,{
name = "";
}),
(100,190,ls,{
name = "";
})
);
},
{
closed = 0;
nodes = (
(450,160,l,{
name = "";
}),
(450,60,l,{
name = "";
}),
(200,60,l,{
name = "";
})
);
},
{
closed = 0;
nodes = (
(330,-140,l),
(230,-140,l),
(230,-240,l)
);
}
);
width = 650;
}
);
metricLeft = H;
metricRight = H;
unicode = 199;
},
{
color = 4;
glyphname = D;
layers = (
{
layerId = m01;
shapes = (
{
pos = (200,640);
ref = _part.square;
scale = (-1,1);
},
{
pos = (100,100);
ref = _part.square;
},
{
pos = (100,200);
ref = _part.square;
},
{
pos = (100,300);
ref = _part.square;
},
{
pos = (100,400);
ref = _part.square;
},
{
pos = (460,640);
ref = _part.corner;
},
{
pos = (460,100);
ref = _part.square;
},
{
pos = (460,200);
ref = _part.square;
},
{
pos = (460,300);
ref = _part.square;
},
{
pos = (460,400);
ref = _part.square;
},
{
pos = (100,100);
ref = _part.square;
scale = (1,-1);
},
{
pos = (460,100);
ref = _part.corner;
scale = (1,-1);
},
{
pos = (400,0);
ref = _part.square;
scale = (0.6,1);
},
{
pos = (300,0);
ref = _part.square;
},
{
angle = 180;
pos = (300,100);
ref = _part.corner;
},
{
pos = (400,640);
ref = _part.square;
scale = (0.6,1);
},
{
pos = (300,640);
ref = _part.square;
},
{
pos = (200,640);
ref = _part.square;
},
{
pos = (100,500);
ref = _part.square;
},
{
pos = (460,500);
ref = _part.square;
},
{
pos = (100,540);
ref = _part.square;
},
{
pos = (460,540);
ref = _part.square;
}
);
width = 660;
},
{
associatedMasterId = m01;
layerId = "4E963FC4-5E4B-4AFB-BC34-6BDDCB1CDB57";
name = side;
shapes = (
{
closed = 0;
nodes = (
(100,740,l,{
name = shadowColor;
}),
(100,0,l,{
name = shadowBottomColor;
})
);
},
{
closed = 0;
nodes = (
(460,640,l,{
name = shadowBottomColor;
}),
(460,100,l,{
name = shadowColor;
})
);
},
{
closed = 0;
nodes = (
(200,100,l,{
name = shadowBottomColor;
}),
(300,0,l,{
name = shadowColor;
})
);
}
);
width = 660;
},
{
associatedMasterId = m01;
layerId = "039E00CD-4C34-4820-B6B3-D796D14AE2C6";
name = top;
shapes = (
{
closed = 0;
nodes = (
(560,640,l,{
name = topColor;
}),
(100,740,l,{
name = topColor;
})
);
},
{
closed = 0;
nodes = (
(460,100,l,{
name = frontTopColor;
}),
(200,100,l,{
name = shadowColor;
})
);
}
);
width = 660;
},
{
associatedMasterId = m01;
layerId = "6D323A00-F182-4296-BF1A-8ED2F1C27AE7";
name = highlightColor;
shapes = (
{
closed = 0;
nodes = (
(460,740,l,{
name = highlightColor;
}),
(100,740,l,{
name = highlightColor;
}),
(100,200,l,{
name = highlightColor;
})
);
},
{
closed = 0;
nodes = (
(460,540,l,{
name = highlightColor;
}),
(460,100,l,{
name = highlightColor;
}),
(200,100,l,{
name = highlightColor;
})
);
}
);
width = 660;
}
);
metricLeft = H;
metricRight = H;
unicode = 68;
},
{
color = 4;
glyphname = Eth;
layers = (
{
layerId = m01;
shapes = (
{
pos = (250,640);
ref = _part.square;
scale = (-1,1);
},
{
pos = (150,100);
ref = _part.square;
},
{
pos = (150,200);
ref = _part.square;
},
{
pos = (150,300);
ref = _part.square;
},
{
pos = (150,400);
ref = _part.square;
},
{
pos = (510,640);
ref = _part.corner;
},
{
pos = (510,100);
ref = _part.square;
},
{
pos = (510,200);
ref = _part.square;
},
{
pos = (510,300);
ref = _part.square;
},
{
pos = (510,400);
ref = _part.square;
},
{
pos = (150,100);
ref = _part.square;
scale = (1,-1);
},
{
pos = (510,100);
ref = _part.corner;
scale = (1,-1);
},
{
pos = (450,0);
ref = _part.square;
scale = (0.6,1);
},
{
pos = (350,0);
ref = _part.square;
},
{
angle = 180;
pos = (350,100);
ref = _part.corner;
},
{
pos = (450,640);
ref = _part.square;
scale = (0.6,1);
},
{
pos = (350,640);
ref = _part.square;
},
{
pos = (250,640);
ref = _part.square;
},
{
pos = (150,500);
ref = _part.square;
},
{
pos = (510,500);
ref = _part.square;
},
{
pos = (150,540);
ref = _part.square;
},
{
pos = (510,540);
ref = _part.square;
},
{
pos = (250,300);
ref = _part.square;
},
{
pos = (50,300);
ref = _part.square;
}
);
width = 710;
},
{
associatedMasterId = m01;
layerId = "4E963FC4-5E4B-4AFB-BC34-6BDDCB1CDB57";
name = side;
shapes = (
{
closed = 0;
nodes = (
(150,740,l,{
name = shadowColor;
}),
(150,400,l,{
name = shadowBottomColor;
})
);
},
{
closed = 0;
nodes = (
(510,640,l,{
name = shadowBottomColor;
}),
(510,100,l,{
name = shadowColor;
})
);
},
{
closed = 0;
nodes = (
(250,100,l,{
name = shadowBottomColor;
}),
(350,0,l,{
name = shadowColor;
})
);
},
{
closed = 0;
nodes = (
(50,400,l,{
name = shadowColor;
}),
(50,200,l,{
name = shadowBottomColor;
})
);
},
{
closed = 0;
nodes = (
(150,300,l,{
name = shadowBottomColor;
}),
(150,0,l,{
name = shadowBottomColor;
})
);
}
);
width = 660;
},
{
associatedMasterId = m01;
layerId = "039E00CD-4C34-4820-B6B3-D796D14AE2C6";
name = top;
shapes = (
{
closed = 0;
nodes = (
(610,640,l,{
name = topColor;
}),
(150,740,l,{
name = topColor;
})
);
},
{
closed = 0;
nodes = (
(510,100,l,{
name = frontTopColor;
}),
(250,100,l,{
name = shadowColor;
})
);
},
{
closed = 0;
nodes = (
(450,400,l,{
name = frontTopColor;
}),
(250,400,l,{
name = shadowColor;
})
);
},
{
closed = 0;
nodes = (
(150,400,l,{
name = shadowColor;
}),
(50,400,l,{
name = frontTopColor;
})
);
}
);
width = 660;
},
{
associatedMasterId = m01;
layerId = "6D323A00-F182-4296-BF1A-8ED2F1C27AE7";
name = highlightColor;
shapes = (
{
closed = 0;
nodes = (
(510,740,l,{
name = "";
}),
(150,740,l,{
name = "";
}),
(150,440,l,{
name = "";
})
);
},
{
closed = 0;
nodes = (
(510,540,l,{
name = "";
}),
(510,100,l,{
name = "";
}),
(250,100,l,{
name = "";
})
);
},
{
closed = 0;
nodes = (
(150,400,l,{
name = "";
}),
(50,400,l,{
name = "";
}),
(50,300,l,{
name = "";
})
);
}
);
width = 660;
}
);
metricRight = H;
unicode = 208;
},
{
color = 4;
glyphname = Dcroat;
layers = (
{
layerId = m01;
shapes = (
{
pos = (250,640);
ref = _part.square;
scale = (-1,1);
},
{
pos = (150,100);
ref = _part.square;
},
{
pos = (150,200);
ref = _part.square;
},
{
pos = (150,300);
ref = _part.square;
},
{
pos = (150,400);
ref = _part.square;
},
{
pos = (510,640);
ref = _part.corner;
},
{
pos = (510,100);
ref = _part.square;
},
{
pos = (510,200);
ref = _part.square;
},
{
pos = (510,300);
ref = _part.square;
},
{
pos = (510,400);
ref = _part.square;
},
{
pos = (150,100);
ref = _part.square;
scale = (1,-1);
},
{
pos = (510,100);
ref = _part.corner;
scale = (1,-1);
},
{
pos = (450,0);
ref = _part.square;
scale = (0.6,1);
},
{
pos = (350,0);
ref = _part.square;
},
{
angle = 180;
pos = (350,100);
ref = _part.corner;
},
{
pos = (450,640);
ref = _part.square;
scale = (0.6,1);
},
{
pos = (350,640);
ref = _part.square;
},
{
pos = (250,640);
ref = _part.square;
},
{
pos = (150,500);
ref = _part.square;
},
{
pos = (510,500);
ref = _part.square;
},
{
pos = (150,540);
ref = _part.square;
},
{
pos = (510,540);
ref = _part.square;
},
{
pos = (250,300);
ref = _part.square;
},
{
pos = (50,300);
ref = _part.square;
}
);
width = 710;
},
{
associatedMasterId = m01;
layerId = "4E963FC4-5E4B-4AFB-BC34-6BDDCB1CDB57";
name = side;
shapes = (
{
closed = 0;
nodes = (
(150,740,l,{
name = shadowColor;
}),
(150,400,l,{
name = shadowBottomColor;
})
);
},
{
closed = 0;
nodes = (
(510,640,l,{
name = shadowBottomColor;
}),
(510,100,l,{
name = shadowColor;
})
);
},
{
closed = 0;
nodes = (
(250,100,l,{
name = shadowBottomColor;
}),
(350,0,l,{
name = shadowColor;
})
);
},
{
closed = 0;
nodes = (
(50,400,l,{
name = shadowColor;
}),
(50,200,l,{
name = shadowBottomColor;
})
);
},
{
closed = 0;
nodes = (
(150,300,l,{
name = shadowBottomColor;
}),
(150,0,l,{
name = shadowBottomColor;
})
);
}
);
width = 660;
},
{
associatedMasterId = m01;
layerId = "039E00CD-4C34-4820-B6B3-D796D14AE2C6";
name = top;
shapes = (
{
closed = 0;
nodes = (
(610,640,l,{
name = topColor;
}),
(150,740,l,{
name = topColor;
})
);
},
{
closed = 0;
nodes = (
(510,100,l,{
name = frontTopColor;
}),
(250,100,l,{
name = shadowColor;
})
);
},
{
closed = 0;
nodes = (
(450,400,l,{
name = frontTopColor;
}),
(250,400,l,{
name = shadowColor;
})
);
},
{
closed = 0;
nodes = (
(150,400,l,{
name = shadowColor;
}),
(50,400,l,{
name = frontTopColor;
})
);
}
);
width = 660;
},
{
associatedMasterId = m01;
layerId = "6D323A00-F182-4296-BF1A-8ED2F1C27AE7";
name = highlightColor;
shapes = (
{
closed = 0;
nodes = (
(510,740,l,{
name = "";
}),
(150,740,l,{
name = "";
}),
(150,440,l,{
name = "";
})
);
},
{
closed = 0;
nodes = (
(510,540,l,{
name = "";
}),
(510,100,l,{
name = "";
}),
(250,100,l,{
name = "";
})
);
},
{
closed = 0;
nodes = (
(150,400,l,{
name = "";
}),
(50,400,l,{
name = "";
}),
(50,300,l,{
name = "";
})
);
}
);
width = 660;
}
);
metricRight = H;
unicode = 272;
},
{
color = 4;
glyphname = E;
layers = (
{
layerId = m01;
shapes = (
{
angle = 180;
pos = (200,60);
ref = _part.corner;
},
{
pos = (100,100);
ref = _part.square;
},
{
pos = (100,300);
ref = _part.square;
},
{
pos = (100,400);
ref = _part.square;
},
{
pos = (100,500);
ref = _part.square;
},
{
pos = (200,600);
ref = _part.corner;
scale = (-1,1);
},
{
pos = (300,280);
ref = _part.square;
scale = (-1,1);
},
{
pos = (200,600);
ref = _part.square;
},
{
pos = (300,280);
ref = _part.square;
},
{
pos = (300,600);
ref = _part.square;
},
{
pos = (400,280);
ref = _part.square;
},
{
pos = (400,600);
ref = _part.square;
},
{
pos = (200,-40);
ref = _part.square;
},
{
pos = (300,-40);
ref = _part.square;
},
{
pos = (400,-40);
ref = _part.square;
},
{
pos = (100,200);
ref = _part.square;
},
{
pos = (100,60);
ref = _part.square;
},
{
pos = (500,280);
ref = _part.square;
scale = (0.5,1);
},
{
pos = (500,600);
ref = _part.square;
scale = (0.5,1);
},
{
pos = (500,-40);
ref = _part.square;
scale = (0.5,1);
}
);
width = 650;
},
{
associatedMasterId = m01;
layerId = "D4997CF1-8A71-4C14-B601-E35C6327E996";
name = side;
shapes = (
{
closed = 0;
nodes = (
(550,700,l,{
name = topColor;
}),
(200,700,ls,{
name = topColor;
}),
(147,700,o),
(100,653,o),
(100,600,cs,{
name = shadowColor;
}),
(100,60,l,{
name = shadowBottomColor;
})
);
}
);
width = 650;
},
{
associatedMasterId = m01;
layerId = "7081DCC8-A062-432E-832A-56606B550515";
name = top;
shapes = (
{
closed = 0;
nodes = (
(570,380,l,{
name = frontTopColor;
}),
(180,380,l,{
name = shadowColor;
})
);
},
{
closed = 0;
nodes = (
(570,60,l,{
name = frontTopColor;
}),
(180,60,l,{
name = shadowColor;
})
);
}
);
width = 650;
},
{
associatedMasterId = m01;
layerId = "EDB7E09F-A7AC-487C-B8FF-D6E8EC6F1416";
name = highlightColor;
shapes = (
{
closed = 0;
nodes = (
(550,700,l),
(200,700,ls),
(147,700,o),
(100,653,o),
(100,600,cs),
(100,200,l)
);
},
{
closed = 0;
nodes = (
(550,380,l),
(370,380,l),
(200,380,l)
);
},
{
closed = 0;
nodes = (
(550,60,l),
(390,60,l),
(200,60,l)
);
}
);
width = 650;
}
);
metricLeft = H;
metricRight = H;
unicode = 69;
},
{
color = 4;
glyphname = F;
layers = (
{
layerId = m01;
shapes = (
{
pos = (100,0);
ref = _part.square;
},
{
pos = (100,100);
ref = _part.square;
},
{
pos = (100,300);
ref = _part.square;
},
{
pos = (100,400);
ref = _part.square;
},
{
pos = (100,500);
ref = _part.square;
},
{
pos = (200,600);
ref = _part.corner;
scale = (-1,1);
},
{
pos = (300,300);
ref = _part.corner;
scale = (-1,1);
},
{
pos = (200,600);
ref = _part.square;
},
{
pos = (300,300);
ref = _part.square;
},
{
pos = (300,600);
ref = _part.square;
},
{
pos = (400,300);
ref = _part.square;
},
{
pos = (400,600);
ref = _part.square;
scale = (0.5,1);
},
{
pos = (450,600);
ref = _part.square;
},
{
pos = (100,200);
ref = _part.square;
}
);
width = 650;
},
{
associatedMasterId = m01;
layerId = "2370A5A6-4AE8-485F-9996-4436778F3408";
name = side;
shapes = (
{
closed = 0;
nodes = (
(550,700,l,{
name = topColor;
}),
(200,700,ls,{
name = topColor;
}),
(147,700,o),
(100,653,o),
(100,600,cs,{
name = shadowColor;
}),
(100,0,l,{
name = shadowBottomColor;
})
);
}
);
width = 650;
},
{
associatedMasterId = m01;
layerId = "B254B304-BD3F-4D30-895C-F4494AA7E51C";
name = top;
shapes = (
{
closed = 0;
nodes = (
(500,400,l,{
name = frontTopColor;
}),
(240,400,l,{
name = shadowColor;
}),
(150,400,l,{
name = shadowBottomColor;
})
);
}
);
width = 650;
},
{
associatedMasterId = m01;
layerId = "93C2E488-4A4B-4EF2-BF8C-334BE54D9502";
name = highlightColor;
shapes = (
{
closed = 0;
nodes = (
(550,700,l),
(200,700,ls),
(147,700,o),
(100,653,o),
(100,600,cs),
(100,180,l)
);
},
{
closed = 0;
nodes = (
(500,400,l),
(300,400,ls),
(247,400,o),
(200,353,o),
(200,300,c)
);
}
);
width = 650;
}
);
metricLeft = H;
metricRight = H;
unicode = 70;
},
{
color = 4;
glyphname = G;
layers = (
{
layerId = m01;
shapes = (
{
angle = 180;
pos = (200,60);
ref = _part.corner;
},
{
pos = (100,60);
ref = _part.square;
},
{
pos = (100,500);
ref = _part.square;
},
{
pos = (200,640);
ref = _part.corner;
scale = (-1,1);
},
{
pos = (200,640);
ref = _part.square;
},
{
pos = (450,300);
ref = _part.square;
},
{
pos = (450,640);
ref = _part.corner;
},
{
pos = (200,-40);
ref = _part.square;
},
{
pos = (450,60);
ref = _part.square;
},
{
pos = (100,300);
ref = _part.square;
},
{
pos = (350,60);
ref = _part.corner;
scale = (1,-1);
},
{
pos = (100,400);
ref = _part.square;
},
{
pos = (450,540);
ref = _part.square;
},
{
pos = (350,640);
ref = _part.square;
},
{
pos = (450,-40);
ref = _part.square;
},
{
pos = (350,300);
ref = _part.square;
},
{
pos = (300,300);
ref = _part.square;
scale = (0.5,1);
},
{
pos = (100,200);
ref = _part.square;
},
{
pos = (450,200);
ref = _part.square;
},
{
pos = (100,100);
ref = _part.square;
},
{
pos = (450,100);
ref = _part.square;
},
{
pos = (100,540);
ref = _part.square;
},
{
pos = (300,640);
ref = _part.square;
scale = (0.5,1);
},
{
pos = (300,-40);
ref = _part.square;
scale = (0.5,1);
}
);
width = 650;
},
{
associatedMasterId = m01;
layerId = "2C384F79-5CD3-4E38-BE7D-B4F85283FAEF";
name = side;
shapes = (
{
closed = 0;
nodes = (
(300,400,l,{
name = shadowColor;
}),
(300,300,l,{
name = shadowColor;
})
);
},
{
closed = 0;
nodes = (
(450,670,l,{
name = shadowBottomColor;
}),
(450,540,l,{
name = shadowColor;
})
);
},
{
closed = 0;
nodes = (
(200,740,l,{
name = topColor;
}),
(147,740,o),
(100,693,o),
(100,640,cs,{
name = shadowColor;
}),
(100,60,l,{
name = shadowBottomColor;
})
);
},
{
closed = 0;
nodes = (
(450,300,l,{
name = shadowBottomColor;
}),
(450,-40,l,{
name = shadowColor;
})
);
}
);
width = 650;
},
{
associatedMasterId = m01;
layerId = "0FFE4ED2-6023-4C84-AC42-C3167908F38C";
name = top;
shapes = (
{
closed = 0;
nodes = (
(550,60,l,{
name = frontTopColor;
}),
(200,60,l,{
name = shadowColor;
})
);
},
{
closed = 0;
nodes = (
(550,400,l,{
name = frontTopColor;
}),
(300,400,l,{
name = frontTopColor;
})
);
},
{
closed = 0;
nodes = (
(550,640,l,{
name = topColor;
}),
(550,693,o),
(503,740,o),
(450,740,cs,{
name = topColor;
}),
(200,740,l,{
name = topColor;
})
);
}
);
width = 650;
},
{
associatedMasterId = m01;
layerId = "A4FBAE46-958F-45DF-839B-9985185F3E80";
name = highlightColor;
shapes = (
{
closed = 0;
nodes = (
(450,740,l),
(200,740,ls),
(147,740,o),
(100,693,o),
(100,640,cs),
(100,190,l)
);
},
{
closed = 0;
nodes = (
(450,300,l),
(450,60,l),
(200,60,l)
);
},
{
closed = 0;
nodes = (
(550,400,l),
(300,400,l),
(300,300,l)
);
}
);
width = 650;
}
);
metricLeft = H;
metricRight = H;
unicode = 71;
},
{
color = 4;
glyphname = H;
layers = (
{
layerId = m01;
shapes = (
{
pos = (100,0);
ref = _part.square;
},
{
pos = (100,100);
ref = _part.square;
},
{
pos = (100,300);
ref = _part.square;
},
{
pos = (100,400);
ref = _part.square;
},
{
pos = (200,600);
ref = _part.square;
scale = (-1,1);
},
{
pos = (300,300);
ref = _part.square;
scale = (-1,1);
},
{
pos = (300,300);
ref = _part.square;
},
{
pos = (400,300);
ref = _part.square;
scale = (0.5,1);
},
{
pos = (450,0);
ref = _part.square;
},
{
pos = (450,100);
ref = _part.square;
},
{
pos = (450,300);
ref = _part.square;
},
{
pos = (450,400);
ref = _part.square;
},
{
pos = (450,600);
ref = _part.square;
},
{
pos = (100,500);
ref = _part.square;
},
{
pos = (450,500);
ref = _part.square;
},
{
pos = (100,200);
ref = _part.square;
},
{
pos = (450,200);
ref = _part.square;
}
);
width = 650;
},
{
associatedMasterId = m01;
layerId = "5BB07B42-561E-4270-A853-7E26F5130516";
name = side;
shapes = (
{
closed = 0;
nodes = (
(100,700,l,{
name = shadowColor;
}),
(100,0,l,{
name = shadowBottomColor;
})
);
},
{
closed = 0;
nodes = (
(450,300,l,{
name = shadowBottomColor;
}),
(450,0,l,{
name = shadowColor;
})
);
},
{
closed = 0;
nodes = (
(450,700,l,{
name = shadowColor;
}),
(450,400,l,{
name = shadowColor;
})
);
}
);
width = 650;
},
{
associatedMasterId = m01;
layerId = "A6279EE8-A047-4C8D-ABCA-08F0EBA0DBD2";
name = top;
shapes = (
{
closed = 0;
nodes = (
(200,700,l,{
name = topColor;
}),
(100,700,l,{
name = topColor;
})
);
},
{
closed = 0;
nodes = (
(550,700,l,{
name = topColor;
}),
(450,700,l,{
name = topColor;
})
);
},
{
closed = 0;
nodes = (
(550,400,l,{
name = frontTopColor;
}),
(140,400,l,{
name = shadowColor;
})
);
}
);
width = 650;
},
{
associatedMasterId = m01;
layerId = "585F8603-551C-4BE7-A371-D9DEC41B3951";
name = highlightColor;
shapes = (
{
closed = 0;
nodes = (
(200,700,l),
(100,700,l),
(100,160,l)
);
},
{
closed = 0;
nodes = (
(550,700,l),
(450,700,l),
(450,400,l),
(200,400,l)
);
}
);
width = 650;
}
);
unicode = 72;
},
{
color = 4;
glyphname = I;
layers = (
{
layerId = m01;
shapes = (
{
pos = (280,0);
ref = _part.square;
},
{
pos = (280,100);
ref = _part.square;
},
{
pos = (280,200);
ref = _part.square;
},
{
pos = (280,300);
ref = _part.square;
},
{
pos = (280,400);
ref = _part.square;
},
{
pos = (180,600);
ref = _part.square;
},
{
pos = (280,600);
ref = _part.square;
},
{
pos = (380,600);
ref = _part.square;
},
{
pos = (180,0);
ref = _part.square;
},
{
pos = (380,0);
ref = _part.square;
},
{
pos = (280,500);
ref = _part.square;
},
{
pos = (460,600);
ref = _part.square;
},
{
pos = (460,0);
ref = _part.square;
},
{
pos = (100,600);
ref = _part.square;
},
{
pos = (100,0);
ref = _part.square;
}
);
width = 660;
},
{
associatedMasterId = m01;
layerId = "55BEE56A-246E-4DD6-A8EB-C1BB4F2B7546";
name = side;
shapes = (
{
closed = 0;
nodes = (
(100,700,l,{
name = shadowColor;
}),
(100,600,l,{
name = shadowColor;
})
);
},
{
closed = 0;
nodes = (
(280,600,l,{
name = shadowBottomColor;
}),
(280,100,l,{
name = shadowColor;
})
);
},
{
closed = 0;
nodes = (
(100,100,l,{
name = shadowColor;
}),
(100,0,l,{
name = shadowBottomColor;
})
);
}
);
width = 660;
},
{
associatedMasterId = m01;
layerId = "C4EE4B83-14A0-4E92-870F-CC70CEBF13BC";
name = top;
shapes = (
{
closed = 0;
nodes = (
(330,100,l,{
name = shadowColor;
}),
(100,100,l,{
name = frontTopColor;
})
);
},
{
closed = 0;
nodes = (
(560,700,l,{
name = topColor;
}),
(100,700,l,{
name = topColor;
})
);
},
{
closed = 0;
nodes = (
(560,100,l,{
name = frontTopColor;
}),
(380,100,l,{
name = shadowColor;
})
);
}
);
width = 660;
},
{
associatedMasterId = m01;
layerId = "093722E8-9592-40FC-8032-5E2C5098B9CB";
name = highlightColor;
shapes = (
{
closed = 0;
nodes = (
(280,500,l),
(280,100,l),
(100,100,l)
);
},
{
closed = 0;
nodes = (
(560,100,l),
(472,100,l),
(380,100,l)
);
},
{
closed = 0;
nodes = (
(560,700,l),
(100,700,l),
(100,600,l)
);
}
);
width = 660;
}
);
metricLeft = H;
metricRight = H;
unicode = 73;
},
{
color = 4;
glyphname = IJ;
layers = (
{
layerId = m01;
shapes = (
{
pos = (300,-40);
ref = _part.square;
scale = (0.5,1);
},
{
pos = (450,60);
ref = _part.square;
},
{
pos = (450,200);
ref = _part.square;
},
{
pos = (450,300);
ref = _part.square;
},
{
pos = (450,400);
ref = _part.square;
},
{
pos = (100,600);
ref = _part.square;
},
{
pos = (300,600);
ref = _part.square;
scale = (0.5,1);
},
{
pos = (450,600);
ref = _part.square;
},
{
pos = (200,-40);
ref = _part.square;
},
{
pos = (450,60);
ref = _part.corner;
scale = (1,-1);
},
{
pos = (350,-40);
ref = _part.square;
},
{
pos = (350,700);
ref = _part.corner;
scale = (1,-1);
},
{
angle = 180;
pos = (200,60);
ref = _part.corner;
},
{
pos = (100,60);
ref = _part.square;
},
{
pos = (450,500);
ref = _part.square;
},
{
pos = (100,500);
ref = _part.square;
},
{
pos = (100,400);
ref = _part.square;
},
{
pos = (100,300);
ref = _part.square;
},
{
pos = (450,100);
ref = _part.square;
},
{
pos = (100,100);
ref = _part.square;
}
);
width = 650;
},
{
associatedMasterId = m01;
layerId = "2A8EDBC9-FD57-45D1-AA42-747219A74AB2";
name = side;
shapes = (
{
closed = 0;
nodes = (
(100,200,l,{
name = shadowColor;
}),
(100,60,ls,{
name = shadowBottomColor;
})
);
},
{
closed = 0;
nodes = (
(100,700,l,{
name = shadowColor;
}),
(100,300,l,{
name = shadowBottomColor;
})
);
},
{
closed = 0;
nodes = (
(300,700,l,{
name = shadowColor;
}),
(300,600,l,{
name = shadowColor;
})
);
},
{
closed = 0;
nodes = (
(450,700,l,{
name = shadowBottomColor;
}),
(450,60,l,{
name = shadowColor;
})
);
}
);
width = 650;
},
{
associatedMasterId = m01;
layerId = "8856AFD9-88E8-4BF7-8694-553994670AE2";
name = top;
shapes = (
{
closed = 0;
nodes = (
(200,200,l,{
name = frontTopColor;
}),
(100,200,l,{
name = frontTopColor;
})
);
},
{
closed = 0;
nodes = (
(200,700,l,{
name = topColor;
}),
(100,700,l,{
name = topColor;
})
);
},
{
closed = 0;
nodes = (
(550,700,l,{
name = topColor;
}),
(300,700,l,{
name = topColor;
})
);
},
{
closed = 0;
nodes = (
(550,60,l,{
name = frontTopColor;
}),
(200,60,l,{
name = shadowColor;
})
);
}
);
width = 650;
},
{
associatedMasterId = m01;
layerId = "856D75B3-91D6-4B9D-B145-E7BA9AE86A4C";
name = highlightColor;
shapes = (
{
closed = 0;
nodes = (
(200,200,l),
(100,200,l),
(100,100,ls)
);
},
{
closed = 0;
nodes = (
(200,700,l),
(100,700,l),
(100,400,l)
);
},
{
closed = 0;
nodes = (
(300,600,l),
(300,700,l),
(550,700,l)
);
},
{
closed = 0;
nodes = (
(450,500,l),
(450,60,l),
(200,60,l)
);
}
);
width = 650;
}
);
metricLeft = H;
metricRight = H;
unicode = 306;
},
{
color = 4;
glyphname = J;
layers = (
{
layerId = m01;
shapes = (
{
pos = (300,-40);
ref = _part.square;
scale = (0.5,1);
},
{
pos = (450,60);
ref = _part.square;
},
{
pos = (450,200);
ref = _part.square;
},
{
pos = (450,300);
ref = _part.square;
},
{
pos = (450,400);
ref = _part.square;
},
{
pos = (200,600);
ref = _part.square;
},
{
pos = (300,600);
ref = _part.square;
scale = (0.5,1);
},
{
pos = (450,600);
ref = _part.square;
},
{
pos = (200,-40);
ref = _part.square;
},
{
pos = (450,60);
ref = _part.corner;
scale = (1,-1);
},
{
pos = (350,-40);
ref = _part.square;
},
{
pos = (350,700);
ref = _part.corner;
scale = (1,-1);
},
{
angle = 180;
pos = (200,60);
ref = _part.corner;
},
{
pos = (100,60);
ref = _part.square;
},
{
pos = (100,200);
ref = _part.square;
},
{
pos = (450,500);
ref = _part.square;
},
{
pos = (450,100);
ref = _part.square;
},
{
pos = (100,100);
ref = _part.square;
}
);
width = 650;
},
{
associatedMasterId = m01;
layerId = "0FC5E8EF-8F1E-4DE6-ABC2-8DFF0D744A61";
name = side;
shapes = (
{
closed = 0;
nodes = (
(450,700,l,{
name = shadowBottomColor;
}),
(450,60,l,{
name = shadowColor;
})
);
},
{
closed = 0;
nodes = (
(200,700,l,{
name = shadowColor;
}),
(200,600,l,{
name = shadowColor;
})
);
},
{
closed = 0;
nodes = (
(100,300,l,{
name = shadowColor;
}),
(100,60,l,{
name = shadowBottomColor;
})
);
}
);
width = 650;
},
{
associatedMasterId = m01;
layerId = "18438908-CED8-4CDD-9F5F-5BDD6962EDDF";
name = top;
shapes = (
{
closed = 0;
nodes = (
(550,700,l,{
name = topColor;
}),
(200,700,l,{
name = topColor;
})
);
},
{
closed = 0;
nodes = (
(200,300,l,{
name = frontTopColor;
}),
(100,300,l,{
name = frontTopColor;
})
);
},
{
closed = 0;
nodes = (
(550,60,l,{
name = frontTopColor;
}),
(200,60,l,{
name = shadowColor;
})
);
}
);
width = 650;
},
{
associatedMasterId = m01;
layerId = "93BB84E3-731F-4138-A651-9C1D69E514E9";
name = highlightColor;
shapes = (
{
closed = 0;
nodes = (
(200,300,l),
(100,300,l),
(100,60,ls)
);
},
{
closed = 0;
nodes = (
(550,700,l),
(200,700,l),
(200,600,l)
);
},
{
closed = 0;
nodes = (
(450,500,l),
(450,60,l),
(200,60,l)
);
}
);
width = 650;
}
);
metricLeft = H;
metricRight = H;
unicode = 74;
},
{
color = 4;
glyphname = K;
layers = (
{
layerId = m01;
shapes = (
{
pos = (100,0);
ref = _part.square;
},
{
pos = (100,100);
ref = _part.square;
},
{
pos = (100,300);
ref = _part.square;
},
{
pos = (100,400);
ref = _part.square;
},
{
pos = (300,300);
ref = _part.square;
scale = (-1,1);
},
{
pos = (300,300);
ref = _part.square;
},
{
pos = (100,500);
ref = _part.square;
},
{
pos = (100,600);
ref = _part.square;
},
{
pos = (450,100);
ref = _part.square;
scale = (1,-1);
},
{
pos = (450,100);
ref = _part.square;
},
{
pos = (450,300);
ref = _part.corner;
},
{
pos = (450,500);
ref = _part.corner;
scale = (1,-1);
},
{
pos = (450,500);
ref = _part.square;
},
{
pos = (450,600);
ref = _part.square;
},
{
pos = (400,300);
ref = _part.square;
scale = (0.5,1);
},
{
pos = (100,200);
ref = _part.square;
},
{
pos = (450,200);
ref = _part.square;
}
);
width = 650;
},
{
associatedMasterId = m01;
layerId = "2FE8F371-E62E-40FD-9D5B-69F4C2DCF7F9";
name = side;
shapes = (
{
closed = 0;
nodes = (
(450,300,l,{
name = shadowBottomColor;
}),
(450,0,l,{
name = shadowColor;
})
);
},
{
closed = 0;
nodes = (
(100,700,l,{
name = shadowColor;
}),
(100,0,l,{
name = shadowBottomColor;
})
);
},
{
closed = 0;
nodes = (
(450,700,l,{
name = shadowColor;
}),
(450,370,l,{
name = shadowBottomColor;
})
);
}
);
width = 650;
},
{
associatedMasterId = m01;
layerId = "2E644F71-C771-4536-B6A4-3F8D6F14C1C0";
name = top;
shapes = (
{
closed = 0;
nodes = (
(550,700,l,{
name = topColor;
}),
(450,700,l,{
name = topColor;
})
);
},
{
closed = 0;
nodes = (
(200,700,l,{
name = topColor;
}),
(100,700,l,{
name = topColor;
})
);
},
{
closed = 0;
nodes = (
(450,400,l,{
name = frontTopColor;
}),
(200,400,l,{
name = shadowColor;
})
);
}
);
width = 650;
},
{
associatedMasterId = m01;
layerId = "D8CF50E8-B896-4A1B-BA92-FEB8719735D8";
name = highlightColor;
shapes = (
{
closed = 0;
nodes = (
(550,700,l),
(450,700,l),
(450,400,l),
(200,400,l)
);
},
{
closed = 0;
nodes = (
(200,700,l),
(100,700,l),
(100,200,l)
);
}
);
width = 650;
}
);
metricLeft = H;
metricRight = H;
unicode = 75;
},
{
color = 4;
glyphname = L;
layers = (
{
layerId = m01;
shapes = (
{
pos = (100,60);
ref = _part.square;
},
{
pos = (100,200);
ref = _part.square;
},
{
pos = (100,300);
ref = _part.square;
},
{
pos = (100,400);
ref = _part.square;
},
{
pos = (100,500);
ref = _part.square;
},
{
pos = (200,-40);
ref = _part.square;
},
{
pos = (300,-40);
ref = _part.square;
},
{
pos = (400,-40);
ref = _part.square;
scale = (0.5,1);
},
{
angle = 180;
pos = (200,60);
ref = _part.corner;
},
{
pos = (100,600);
ref = _part.square;
},
{
pos = (100,100);
ref = _part.square;
},
{
pos = (100,700);
ref = _part.square;
},
{
pos = (100,750);
ref = _part.square;
}
);
width = 550;
},
{
associatedMasterId = m01;
layerId = "852E2F17-4E0B-4A54-8518-2FADA965201D";
name = side;
shapes = (
{
closed = 0;
nodes = (
(100,850,l,{
name = shadowColor;
}),
(100,60,ls,{
name = shadowBottomColor;
})
);
}
);
width = 550;
},
{
associatedMasterId = m01;
layerId = "C5487AA0-F86A-48E8-A1FB-1432211887E5";
name = top;
shapes = (
{
closed = 0;
nodes = (
(450,60,l,{
name = frontTopColor;
}),
(200,60,l,{
name = shadowColor;
})
);
},
{
closed = 0;
nodes = (
(200,850,l,{
name = topColor;
}),
(100,850,l,{
name = topColor;
})
);
}
);
width = 550;
},
{
associatedMasterId = m01;
layerId = "6091D937-1047-40EF-A9D1-7698E053A8A9";
name = highlightColor;
shapes = (
{
closed = 0;
nodes = (
(200,850,l),
(100,850,l),
(100,60,ls)
);
},
{
closed = 0;
nodes = (
(450,60,l),
(320,60,l),
(200,60,l)
);
}
);
width = 550;
}
);
metricLeft = H;
unicode = 76;
},
{
color = 4;
glyphname = M;
layers = (
{
layerId = m01;
shapes = (
{
pos = (100,100);
ref = _part.square;
},
{
pos = (100,400);
ref = _part.square;
},
{
pos = (350,300);
ref = _part.square;
},
{
pos = (350,400);
ref = _part.square;
},
{
pos = (200,640);
ref = _part.square;
scale = (1.5,1);
},
{
pos = (100,0);
ref = _part.square;
},
{
pos = (350,0);
ref = _part.square;
},
{
pos = (100,200);
ref = _part.square;
},
{
pos = (100,300);
ref = _part.square;
},
{
pos = (350,100);
ref = _part.square;
},
{
pos = (350,200);
ref = _part.square;
},
{
pos = (200,640);
ref = _part.corner;
scale = (-1,1);
},
{
pos = (600,300);
ref = _part.square;
},
{
pos = (600,400);
ref = _part.square;
},
{
pos = (600,640);
ref = _part.corner;
},
{
pos = (600,0);
ref = _part.square;
},
{
pos = (600,100);
ref = _part.square;
},
{
pos = (600,200);
ref = _part.square;
},
{
pos = (450,640);
ref = _part.square;
scale = (-1,1);
},
{
pos = (600,640);
ref = _part.square;
scale = (-1.5,1);
},
{
pos = (100,500);
ref = _part.square;
},
{
pos = (350,500);
ref = _part.square;
},
{
pos = (600,500);
ref = _part.square;
},
{
pos = (100,540);
ref = _part.square;
},
{
pos = (350,540);
ref = _part.square;
},
{
pos = (600,540);
ref = _part.square;
}
);
width = 800;
},
{
associatedMasterId = m01;
layerId = "3AC84568-D63D-4AF8-8702-0A17C3889192";
name = side;
shapes = (
{
closed = 0;
nodes = (
(200,740,l,{
name = topColor;
}),
(100,640,l,{
name = shadowColor;
}),
(100,0,l,{
name = shadowBottomColor;
})
);
},
{
closed = 0;
nodes = (
(600,640,l,{
name = shadowBottomColor;
}),
(600,50,l,{
name = shadowColor;
})
);
},
{
closed = 0;
nodes = (
(350,640,l,{
name = shadowBottomColor;
}),
(350,50,l,{
name = shadowColor;
})
);
}
);
width = 800;
},
{
associatedMasterId = m01;
layerId = "27E3982A-3C49-4446-AC97-826B020C6322";
name = top;
shapes = (
{
closed = 0;
nodes = (
(700,640,l,{
name = topColor;
}),
(200,740,l,{
name = topColor;
})
);
}
);
width = 800;
},
{
associatedMasterId = m01;
layerId = "02E5E079-F19D-4EC4-8542-26A8C0A61071";
name = highlightColor;
shapes = (
{
closed = 0;
nodes = (
(600,740,l),
(200,740,ls),
(147,740,o),
(100,693,o),
(100,640,cs),
(100,200,l)
);
}
);
width = 800;
}
);
metricLeft = H;
metricRight = H;
unicode = 77;
},
{
color = 4;
glyphname = N;
layers = (
{
layerId = m01;
shapes = (
{
pos = (100,100);
ref = _part.square;
},
{
pos = (100,400);
ref = _part.square;
},
{
pos = (350,600);
ref = _part.corner;
},
{
pos = (100,0);
ref = _part.square;
},
{
pos = (100,200);
ref = _part.square;
},
{
pos = (100,300);
ref = _part.square;
},
{
pos = (200,600);
ref = _part.square;
scale = (-1,1);
},
{
pos = (600,100);
ref = _part.square;
scale = (1,-1);
},
{
pos = (600,300);
ref = _part.square;
},
{
pos = (600,400);
ref = _part.square;
},
{
pos = (600,100);
ref = _part.square;
},
{
pos = (600,200);
ref = _part.square;
},
{
pos = (100,500);
ref = _part.square;
},
{
pos = (600,500);
ref = _part.square;
},
{
angle = 180;
pos = (450,100);
ref = _part.corner;
},
{
pos = (350,300);
ref = _part.square;
},
{
pos = (350,400);
ref = _part.square;
},
{
pos = (350,100);
ref = _part.square;
},
{
pos = (350,200);
ref = _part.square;
},
{
pos = (350,500);
ref = _part.square;
},
{
pos = (450,0);
ref = _part.square;
scale = (1.5,1);
},
{
pos = (600,600);
ref = _part.square;
},
{
pos = (200,600);
ref = _part.square;
scale = (1.5,1);
}
);
width = 800;
},
{
associatedMasterId = m01;
layerId = "5741736B-BCAE-4924-ACB5-6C1B1A2F47B0";
name = side;
shapes = (
{
closed = 0;
nodes = (
(600,700,l,{
name = shadowColor;
}),
(600,100,l,{
name = shadowBottomColor;
})
);
},
{
closed = 0;
nodes = (
(100,700,l,{
name = shadowColor;
}),
(100,0,l,{
name = shadowBottomColor;
})
);
},
{
closed = 0;
nodes = (
(350,600,l,{
name = shadowBottomColor;
}),
(350,100,l,{
name = shadowColor;
})
);
}
);
width = 800;
},
{
associatedMasterId = m01;
layerId = "6DB2CB06-3C8E-4854-BDE6-44B05588C16B";
name = top;
shapes = (
{
closed = 0;
nodes = (
(700,700,l,{
name = topColor;
}),
(600,700,l,{
name = topColor;
})
);
},
{
closed = 0;
nodes = (
(350,700,l,{
name = topColor;
}),
(100,700,l,{
name = topColor;
})
);
},
{
closed = 0;
nodes = (
(750,100,l,{
name = frontTopColor;
}),
(450,100,l,{
name = shadowColor;
})
);
}
);
width = 800;
},
{
associatedMasterId = m01;
layerId = "562187E4-9B97-4768-B045-31CEAF9F8EAF";
name = highlightColor;
shapes = (
{
closed = 0;
nodes = (
(700,700,l),
(600,700,l),
(600,100,l),
(450,100,l)
);
},
{
closed = 0;
nodes = (
(350,700,l),
(100,700,l),
(100,200,l)
);
}
);
width = 800;
}
);
metricLeft = H;
metricRight = H;
unicode = 78;
},
{
color = 4;
glyphname = Eng;
layers = (
{
layerId = m01;
shapes = (
{
pos = (100,100);
ref = _part.square;
},
{
pos = (100,400);
ref = _part.square;
},
{
pos = (350,600);
ref = _part.corner;
},
{
pos = (100,0);
ref = _part.square;
},
{
pos = (100,200);
ref = _part.square;
},
{
pos = (100,300);
ref = _part.square;
},
{
pos = (200,600);
ref = _part.square;
scale = (-1,1);
},
{
pos = (600,100);
ref = _part.square;
scale = (1,-1);
},
{
pos = (600,300);
ref = _part.square;
},
{
pos = (600,400);
ref = _part.square;
},
{
pos = (600,100);
ref = _part.square;
},
{
pos = (600,200);
ref = _part.square;
},
{
pos = (100,500);
ref = _part.square;
},
{
pos = (600,500);
ref = _part.square;
},
{
angle = 180;
pos = (450,100);
ref = _part.corner;
},
{
pos = (350,300);
ref = _part.square;
},
{
pos = (350,400);
ref = _part.square;
},
{
pos = (350,100);
ref = _part.square;
},
{
pos = (350,200);
ref = _part.square;
},
{
pos = (350,500);
ref = _part.square;
},
{
pos = (450,0);
ref = _part.square;
scale = (1.5,1);
},
{
pos = (600,600);
ref = _part.square;
},
{
pos = (200,600);
ref = _part.square;
scale = (1.5,1);
},
{
pos = (600,-100);
ref = _part.square;
},
{
pos = (500,-200);
ref = _part.square;
},
{
pos = (600,-100);
ref = _part.corner;
scale = (1,-1);
}
);
width = 800;
},
{
associatedMasterId = m01;
layerId = "5741736B-BCAE-4924-ACB5-6C1B1A2F47B0";
name = side;
shapes = (
{
closed = 0;
nodes = (
(600,700,l,{
name = shadowColor;
}),
(600,100,l,{
name = shadowBottomColor;
})
);
},
{
closed = 0;
nodes = (
(100,700,l,{
name = shadowColor;
}),
(100,0,l,{
name = shadowBottomColor;
})
);
},
{
closed = 0;
nodes = (
(350,600,l,{
name = shadowBottomColor;
}),
(350,100,l,{
name = shadowColor;
})
);
},
{
closed = 0;
nodes = (
(600,0,l,{
name = shadowBottomColor;
}),
(600,-100,l,{
name = shadowColor;
})
);
},
{
closed = 0;
nodes = (
(500,-100,l,{
name = shadowBottomColor;
}),
(500,-200,l,{
name = shadowBottomColor;
})
);
}
);
width = 800;
},
{
associatedMasterId = m01;
layerId = "6DB2CB06-3C8E-4854-BDE6-44B05588C16B";
name = top;
shapes = (
{
closed = 0;
nodes = (
(700,700,l,{
name = topColor;
}),
(600,700,l,{
name = topColor;
})
);
},
{
closed = 0;
nodes = (
(350,700,l,{
name = topColor;
}),
(100,700,l,{
name = topColor;
})
);
},
{
closed = 0;
nodes = (
(750,100,l,{
name = frontTopColor;
}),
(450,100,l,{
name = shadowColor;
})
);
},
{
closed = 0;
nodes = (
(590,-100,l,{
name = shadowBottomColor;
}),
(500,-100,l,{
name = shadowColor;
})
);
}
);
width = 800;
},
{
associatedMasterId = m01;
layerId = "562187E4-9B97-4768-B045-31CEAF9F8EAF";
name = highlightColor;
shapes = (
{
closed = 0;
nodes = (
(700,700,l),
(600,700,l),
(600,100,l),
(450,100,l)
);
},
{
closed = 0;
nodes = (
(350,700,l),
(100,700,l),
(100,200,l)
);
},
{
closed = 0;
nodes = (
(600,-100,l),
(500,-100,l),
(500,-200,l)
);
}
);
width = 800;
}
);
metricLeft = H;
metricRight = H;
unicode = 330;
},
{
color = 4;
glyphname = O;
layers = (
{
layerId = m01;
shapes = (
{
pos = (200,640);
ref = _part.corner;
scale = (-1,1);
},
{
pos = (100,60);
ref = _part.square;
},
{
pos = (100,200);
ref = _part.square;
},
{
pos = (100,300);
ref = _part.square;
},
{
pos = (100,400);
ref = _part.square;
},
{
pos = (450,640);
ref = _part.corner;
},
{
pos = (450,60);
ref = _part.square;
},
{
pos = (450,200);
ref = _part.square;
},
{
pos = (450,300);
ref = _part.square;
},
{
pos = (450,400);
ref = _part.square;
},
{
angle = 180;
pos = (200,60);
ref = _part.corner;
},
{
pos = (450,60);
ref = _part.corner;
scale = (1,-1);
},
{
pos = (300,-40);
ref = _part.square;
},
{
pos = (200,-40);
ref = _part.square;
},
{
pos = (300,640);
ref = _part.square;
},
{
pos = (200,640);
ref = _part.square;
},
{
pos = (100,500);
ref = _part.square;
},
{
pos = (450,500);
ref = _part.square;
},
{
pos = (100,100);
ref = _part.square;
},
{
pos = (450,100);
ref = _part.square;
},
{
pos = (100,540);
ref = _part.square;
},
{
pos = (450,540);
ref = _part.square;
},
{
pos = (400,-40);
ref = _part.square;
scale = (0.5,1);
},
{
pos = (400,640);
ref = _part.square;
scale = (0.5,1);
}
);
width = 650;
},
{
associatedMasterId = m01;
layerId = "10B63CF4-5522-4E07-8E10-CFE4820A53FD";
name = side;
shapes = (
{
closed = 0;
nodes = (
(200,740,l,{
name = topColor;
}),
(100,640,l,{
name = shadowColor;
}),
(100,60,l,{
name = shadowBottomColor;
})
);
},
{
closed = 0;
nodes = (
(450,640,l,{
name = shadowBottomColor;
}),
(450,60,l,{
name = shadowColor;
})
);
}
);
width = 650;
},
{
associatedMasterId = m01;
layerId = "208566FE-B55F-44D3-AA81-52447B841A83";
name = top;
shapes = (
{
closed = 0;
nodes = (
(550,640,l,{
name = topColor;
}),
(450,740,l,{
name = topColor;
}),
(200,740,l,{
name = topColor;
})
);
},
{
closed = 0;
nodes = (
(550,60,l,{
name = frontTopColor;
}),
(200,60,l,{
name = shadowColor;
})
);
}
);
width = 650;
},
{
associatedMasterId = m01;
layerId = "6DFAC5CD-CB97-4FBA-9364-96010D8BAA51";
name = highlightColor;
shapes = (
{
closed = 0;
nodes = (
(450,740,l),
(200,740,ls),
(150,740,o),
(100,690,o),
(100,640,cs),
(100,190,l)
);
},
{
closed = 0;
nodes = (
(450,640,l),
(450,60,l),
(200,60,l)
);
}
);
width = 650;
}
);
metricLeft = H;
metricRight = H;
unicode = 79;
},
{
color = 4;
glyphname = Oslash;
layers = (
{
layerId = m01;
shapes = (
{
pos = (200,600);
ref = _part.corner;
scale = (-1,1);
},
{
angle = 180;
pos = (200,200);
ref = _part.corner;
},
{
pos = (100,200);
ref = _part.square;
},
{
pos = (100,300);
ref = _part.square;
},
{
pos = (100,400);
ref = _part.square;
},
{
pos = (250,600);
ref = _part.corner;
},
{
pos = (450,100);
ref = _part.square;
},
{
pos = (450,200);
ref = _part.square;
},
{
pos = (450,300);
ref = _part.square;
},
{
pos = (450,500);
ref = _part.corner;
},
{
angle = 180;
pos = (400,100);
ref = _part.corner;
},
{
pos = (450,100);
ref = _part.corner;
scale = (1,-1);
},
{
pos = (400,0);
ref = _part.square;
scale = (0.5,1);
},
{
pos = (200,600);
ref = _part.square;
scale = (0.5,1);
},
{
pos = (200,100);
ref = _part.corner;
scale = (1,-1);
},
{
pos = (450,600);
ref = _part.corner;
scale = (-1,1);
},
{
pos = (100,100);
ref = _part.square;
scale = (1,-1);
},
{
pos = (550,600);
ref = _part.square;
scale = (-1,1);
},
{
pos = (100,500);
ref = _part.square;
},
{
pos = (450,400);
ref = _part.square;
},
{
pos = (270,300);
ref = _part.square;
scale = (1.1,1);
}
);
width = 650;
},
{
associatedMasterId = m01;
layerId = "76824EC3-F0FD-438E-87B7-5B41EDBD08CD";
name = side;
shapes = (
{
closed = 0;
nodes = (
(250,700,l,{
name = topColor;
}),
(200,700,ls,{
name = topColor;
}),
(147,700,o),
(100,653,o),
(100,600,cs,{
name = shadowColor;
}),
(100,200,ls,{
name = shadowBottomColor;
})
);
},
{
closed = 0;
nodes = (
(100,100,l,{
name = shadowColor;
}),
(100,0,l,{
name = shadowBottomColor;
})
);
},
{
closed = 0;
nodes = (
(270,400,l,{
name = shadowColor;
}),
(270,300,l,{
name = shadowColor;
})
);
},
{
closed = 0;
nodes = (
(450,600,l,{
name = shadowBottomColor;
}),
(450,100,l,{
name = shadowColor;
})
);
}
);
width = 650;
},
{
associatedMasterId = m01;
layerId = "ABF3328B-30B6-44FB-BE17-146E080B8CB2";
name = top;
shapes = (
{
closed = 0;
nodes = (
(380,400,l,{
name = frontTopColor;
}),
(270,400,l,{
name = frontTopColor;
})
);
},
{
closed = 0;
nodes = (
(550,700,l,{
name = topColor;
}),
(450,700,ls,{
name = topColor;
}),
(397,700,o),
(350,653,o),
(350,600,c,{
name = shadowColor;
})
);
},
{
closed = 0;
nodes = (
(550,500,l,{
name = shadowColor;
}),
(550,553,o),
(503,600,o),
(450,600,c,{
name = shadowColor;
})
);
},
{
closed = 0;
nodes = (
(290,100,l,{
name = shadowColor;
}),
(100,100,l,{
name = shadowColor;
})
);
},
{
closed = 0;
nodes = (
(550,100,l,{
name = frontTopColor;
}),
(300,100,l,{
name = shadowColor;
})
);
}
);
width = 650;
},
{
associatedMasterId = m01;
layerId = "A7E2B0E6-0EFE-46AD-BA3F-5FBC5D7751D1";
name = highlightColor;
shapes = (
{
closed = 0;
nodes = (
(250,700,l),
(200,700,ls),
(147,700,o),
(100,653,o),
(100,600,cs),
(100,200,ls)
);
},
{
closed = 0;
nodes = (
(380,400,l),
(270,400,l),
(270,300,l)
);
},
{
closed = 0;
nodes = (
(450,600,l),
(450,100,l),
(100,100,l),
(100,0,l)
);
},
{
closed = 0;
nodes = (
(550,700,l),
(450,700,ls),
(397,700,o),
(350,653,o),
(350,600,c)
);
}
);
width = 650;
}
);
metricLeft = H;
metricRight = H;
unicode = 216;
},
{
color = 4;
glyphname = OE;
layers = (
{
layerId = m01;
shapes = (
{
angle = 180;
pos = (200,100);
ref = _part.corner;
},
{
pos = (100,100);
ref = _part.square;
},
{
pos = (100,300);
ref = _part.square;
},
{
pos = (100,400);
ref = _part.square;
},
{
pos = (100,500);
ref = _part.square;
},
{
pos = (200,600);
ref = _part.corner;
scale = (-1,1);
},
{
pos = (300,0);
ref = _part.square;
scale = (-1,1);
},
{
pos = (200,600);
ref = _part.square;
},
{
angle = 180;
pos = (450,100);
ref = _part.corner;
},
{
pos = (350,100);
ref = _part.square;
},
{
pos = (350,300);
ref = _part.square;
},
{
pos = (350,400);
ref = _part.square;
},
{
pos = (350,500);
ref = _part.square;
},
{
pos = (350,600);
ref = _part.corner;
},
{
angle = 180;
pos = (550,100);
ref = _part.square;
},
{
pos = (550,600);
ref = _part.square;
scale = (-1,1);
},
{
pos = (550,300);
ref = _part.square;
scale = (0.8,1);
},
{
pos = (550,600);
ref = _part.square;
scale = (0.8,1);
},
{
pos = (550,0);
ref = _part.square;
scale = (0.8,1);
},
{
pos = (550,300);
ref = _part.square;
scale = (-1,1);
},
{
pos = (350,0);
ref = _part.square;
scale = (-0.5,1);
},
{
pos = (300,600);
ref = _part.square;
scale = (0.5,1);
},
{
pos = (100,200);
ref = _part.square;
},
{
pos = (350,200);
ref = _part.square;
}
);
width = 730;
},
{
associatedMasterId = m01;
layerId = "E9CA82F4-FFD0-4AE0-A91F-D41330194DB1";
name = side;
shapes = (
{
closed = 0;
nodes = (
(330,700,l,{
name = topColor;
}),
(200,700,ls,{
name = topColor;
}),
(147,700,o),
(100,653,o),
(100,600,cs,{
name = shadowColor;
}),
(100,100,l,{
name = shadowBottomColor;
})
);
},
{
closed = 0;
nodes = (
(350,600,l,{
name = shadowBottomColor;
}),
(350,100,l,{
name = shadowColor;
})
);
},
{
closed = 0;
nodes = (
(350,700,l,{
name = topColor;
}),
(430,700,l,{
name = shadowColor;
})
);
},
{
closed = 0;
nodes = (
(450,700,l,{
name = shadowColor;
}),
(450,600,l,{
name = shadowBottomColor;
})
);
}
);
width = 730;
},
{
associatedMasterId = m01;
layerId = "E758897E-5038-4467-8DCB-F339FBD2BBFD";
name = top;
shapes = (
{
closed = 0;
nodes = (
(630,400,l,{
name = frontTopColor;
}),
(450,400,l,{
name = shadowColor;
})
);
},
{
closed = 0;
nodes = (
(630,700,l,{
name = topColor;
}),
(450,700,l,{
name = topColor;
})
);
},
{
closed = 0;
nodes = (
(630,100,l,{
name = frontTopColor;
}),
(450,100,l,{
name = shadowColor;
})
);
},
{
closed = 0;
nodes = (
(440,100,l,{
name = frontTopColor;
}),
(200,100,l,{
name = shadowColor;
})
);
}
);
width = 730;
},
{
associatedMasterId = m01;
layerId = "84915933-9019-49D9-A183-E56FEC7916D5";
name = highlightColor;
shapes = (
{
closed = 0;
nodes = (
(630,400,l),
(540,400,l),
(450,400,l)
);
},
{
closed = 0;
nodes = (
(630,700,l),
(542,700,l),
(450,700,l)
);
},
{
closed = 0;
nodes = (
(350,700,l),
(200,700,ls),
(147,700,o),
(100,653,o),
(100,600,cs),
(100,150,l)
);
},
{
closed = 0;
nodes = (
(350,550,l),
(350,100,l),
(200,100,l)
);
},
{
closed = 0;
nodes = (
(630,100,l),
(540,100,l),
(450,100,l)
);
}
);
width = 730;
}
);
metricLeft = H;
metricRight = H;
unicode = 338;
},
{
color = 4;
glyphname = P;
layers = (
{
layerId = m01;
shapes = (
{
pos = (100,0);
ref = _part.square;
},
{
pos = (100,100);
ref = _part.square;
},
{
pos = (100,300);
ref = _part.square;
},
{
pos = (100,400);
ref = _part.square;
},
{
pos = (200,640);
ref = _part.square;
scale = (-1,1);
},
{
angle = 180;
pos = (300,300);
ref = _part.corner;
},
{
pos = (200,640);
ref = _part.square;
},
{
pos = (300,200);
ref = _part.square;
},
{
pos = (300,640);
ref = _part.square;
},
{
pos = (400,200);
ref = _part.square;
scale = (0.5,1);
},
{
pos = (400,640);
ref = _part.square;
scale = (0.5,1);
},
{
pos = (450,300);
ref = _part.corner;
scale = (1,-1);
},
{
pos = (450,400);
ref = _part.square;
},
{
pos = (450,640);
ref = _part.corner;
},
{
pos = (100,500);
ref = _part.square;
},
{
pos = (450,500);
ref = _part.square;
},
{
pos = (100,200);
ref = _part.square;
},
{
pos = (450,300);
ref = _part.square;
},
{
pos = (100,540);
ref = _part.square;
},
{
pos = (450,540);
ref = _part.square;
}
);
width = 650;
},
{
associatedMasterId = m01;
layerId = "A80043D5-E7FF-4B77-8042-EB9E36D03A9B";
name = side;
shapes = (
{
closed = 0;
nodes = (
(100,740,l,{
name = shadowColor;
}),
(100,0,l,{
name = shadowBottomColor;
})
);
},
{
closed = 0;
nodes = (
(450,640,l,{
name = shadowBottomColor;
}),
(450,300,l,{
name = shadowColor;
})
);
}
);
width = 650;
},
{
associatedMasterId = m01;
layerId = "6EE6B079-6B20-4FEE-9F8D-8E7AD54CD6F1";
name = top;
shapes = (
{
closed = 0;
nodes = (
(450,740,l,{
name = topColor;
}),
(100,740,l,{
name = topColor;
})
);
},
{
closed = 0;
nodes = (
(450,300,l,{
name = frontTopColor;
}),
(200,300,l,{
name = shadowColor;
})
);
}
);
width = 650;
},
{
associatedMasterId = m01;
layerId = "1CE9DBA8-9D46-4845-BBDE-556013B60DAB";
name = highlightColor;
shapes = (
{
closed = 0;
nodes = (
(450,740,l),
(100,740,l),
(100,0,l)
);
},
{
closed = 0;
nodes = (
(450,640,l),
(450,300,l),
(200,300,l)
);
}
);
width = 650;
}
);
metricLeft = H;
metricRight = H;
unicode = 80;
},
{
color = 4;
glyphname = Thorn;
layers = (
{
layerId = m01;
shapes = (
{
pos = (100,0);
ref = _part.square;
},
{
pos = (100,100);
ref = _part.square;
},
{
pos = (100,300);
ref = _part.square;
},
{
pos = (100,400);
ref = _part.square;
},
{
pos = (200,600);
ref = _part.square;
scale = (-1,1);
},
{
angle = 180;
pos = (300,200);
ref = _part.square;
},
{
pos = (300,500);
ref = _part.corner;
scale = (-1,1);
},
{
pos = (300,100);
ref = _part.square;
},
{
pos = (300,500);
ref = _part.square;
},
{
pos = (400,100);
ref = _part.square;
scale = (0.5,1);
},
{
pos = (400,500);
ref = _part.square;
scale = (0.5,1);
},
{
pos = (450,200);
ref = _part.corner;
scale = (1,-1);
},
{
pos = (450,300);
ref = _part.square;
},
{
pos = (450,500);
ref = _part.corner;
},
{
pos = (100,500);
ref = _part.square;
},
{
pos = (450,400);
ref = _part.square;
},
{
pos = (100,200);
ref = _part.square;
},
{
pos = (450,200);
ref = _part.square;
}
);
width = 650;
},
{
associatedMasterId = m01;
layerId = "0E12295C-EB1F-4A32-9C3F-8E4BA5F200F5";
name = side;
shapes = (
{
closed = 0;
nodes = (
(450,500,l,{
name = shadowBottomColor;
}),
(450,200,l,{
name = shadowColor;
})
);
},
{
closed = 0;
nodes = (
(100,700,l,{
name = shadowColor;
}),
(100,0,l,{
name = shadowBottomColor;
})
);
}
);
width = 650;
},
{
associatedMasterId = m01;
layerId = "218FFE3F-DFE9-4B4F-B698-DBF82B52C137";
name = top;
shapes = (
{
closed = 0;
nodes = (
(450,600,l,{
name = topColor;
}),
(300,600,ls,{
name = topColor;
}),
(247,600,o),
(200,553,o),
(200,500,c,{
name = shadowColor;
})
);
},
{
closed = 0;
nodes = (
(500,200,l,{
name = frontTopColor;
}),
(200,200,l,{
name = shadowColor;
})
);
},
{
closed = 0;
nodes = (
(200,700,l,{
name = topColor;
}),
(100,700,l,{
name = topColor;
})
);
}
);
width = 650;
},
{
associatedMasterId = m01;
layerId = "32499790-09B8-4886-9949-5198C597ACCD";
name = highlightColor;
shapes = (
{
closed = 0;
nodes = (
(450,600,l),
(300,600,ls),
(247,600,o),
(200,553,o),
(200,500,c)
);
},
{
closed = 0;
nodes = (
(450,500,l),
(450,200,l),
(200,200,l)
);
},
{
closed = 0;
nodes = (
(200,700,l),
(100,700,l),
(100,200,l)
);
}
);
width = 650;
}
);
metricLeft = H;
metricRight = H;
unicode = 222;
},
{
color = 4;
glyphname = Q;
layers = (
{
layerId = m01;
shapes = (
{
pos = (200,640);
ref = _part.corner;
scale = (-1,1);
},
{
pos = (100,60);
ref = _part.square;
},
{
pos = (100,200);
ref = _part.square;
},
{
pos = (100,300);
ref = _part.square;
},
{
pos = (100,400);
ref = _part.square;
},
{
pos = (450,640);
ref = _part.corner;
},
{
pos = (450,160);
ref = _part.corner;
scale = (1,-1);
},
{
pos = (450,200);
ref = _part.square;
},
{
pos = (450,300);
ref = _part.square;
},
{
pos = (450,400);
ref = _part.square;
},
{
angle = 180;
pos = (200,60);
ref = _part.corner;
},
{
pos = (450,-40);
ref = _part.square;
},
{
pos = (400,-40);
ref = _part.square;
scale = (0.5,1);
},
{
pos = (300,-40);
ref = _part.square;
},
{
pos = (200,-40);
ref = _part.square;
},
{
pos = (400,640);
ref = _part.square;
scale = (0.5,1);
},
{
pos = (300,640);
ref = _part.square;
},
{
pos = (200,640);
ref = _part.square;
},
{
pos = (100,500);
ref = _part.square;
},
{
pos = (450,500);
ref = _part.square;
},
{
pos = (100,160);
ref = _part.square;
},
{
pos = (450,160);
ref = _part.square;
},
{
pos = (100,540);
ref = _part.square;
},
{
pos = (450,540);
ref = _part.square;
}
);
width = 650;
},
{
associatedMasterId = m01;
layerId = "BFB81115-5DF9-4DAE-BE33-CFF038AA8BBF";
name = side;
shapes = (
{
closed = 0;
nodes = (
(450,740,l,{
name = topColor;
}),
(200,740,ls,{
name = topColor;
}),
(147,740,o),
(100,693,o),
(100,640,cs,{
name = shadowColor;
}),
(100,60,l,{
name = shadowBottomColor;
})
);
},
{
closed = 0;
nodes = (
(450,640,l,{
name = shadowBottomColor;
}),
(450,60,l,{
name = shadowColor;
})
);
}
);
width = 650;
},
{
associatedMasterId = m01;
layerId = "2370BA0D-6059-4E8D-91C0-14EB87394893";
name = top;
shapes = (
{
closed = 0;
nodes = (
(550,60,l,{
name = shadowBottomColor;
}),
(470,60,l,{
name = frontTopColor;
}),
(200,60,l,{
name = shadowColor;
})
);
}
);
width = 650;
},
{
associatedMasterId = m01;
layerId = "9F8FCF1E-00D2-4E65-8336-721C809815FE";
name = highlightColor;
shapes = (
{
closed = 0;
nodes = (
(450,740,l),
(200,740,ls),
(147,740,o),
(100,693,o),
(100,640,cs),
(100,190,l)
);
},
{
closed = 0;
nodes = (
(450,640,l),
(450,60,l),
(200,60,l)
);
}
);
width = 650;
}
);
metricLeft = H;
metricRight = H;
unicode = 81;
},
{
color = 4;
glyphname = R;
layers = (
{
layerId = m01;
shapes = (
{
pos = (100,0);
ref = _part.square;
},
{
pos = (100,100);
ref = _part.square;
},
{
pos = (100,200);
ref = _part.square;
},
{
pos = (100,300);
ref = _part.square;
},
{
pos = (100,500);
ref = _part.square;
},
{
pos = (200,640);
ref = _part.square;
scale = (-1,1);
},
{
pos = (200,640);
ref = _part.square;
},
{
pos = (300,200);
ref = _part.square;
},
{
pos = (300,640);
ref = _part.square;
},
{
pos = (400,200);
ref = _part.square;
scale = (0.5,1);
},
{
pos = (400,640);
ref = _part.square;
scale = (0.5,1);
},
{
pos = (450,0);
ref = _part.square;
},
{
pos = (450,100);
ref = _part.square;
},
{
pos = (450,200);
ref = _part.corner;
},
{
pos = (450,400);
ref = _part.corner;
scale = (1,-1);
},
{
pos = (450,500);
ref = _part.square;
},
{
pos = (450,640);
ref = _part.corner;
},
{
pos = (300,200);
ref = _part.square;
scale = (-1,1);
},
{
pos = (100,400);
ref = _part.square;
},
{
pos = (450,400);
ref = _part.square;
},
{
pos = (100,540);
ref = _part.square;
},
{
pos = (450,540);
ref = _part.square;
}
);
width = 650;
},
{
associatedMasterId = m01;
layerId = "184E9BEF-1A34-4B44-98D7-FCC568A3E8AD";
name = side;
shapes = (
{
closed = 0;
nodes = (
(100,740,l,{
name = shadowColor;
}),
(100,0,l,{
name = shadowBottomColor;
})
);
},
{
closed = 0;
nodes = (
(450,230,l,{
name = shadowBottomColor;
}),
(450,0,l,{
name = shadowColor;
})
);
},
{
closed = 0;
nodes = (
(450,640,l,{
name = shadowBottomColor;
}),
(450,300,l,{
name = shadowColor;
})
);
}
);
width = 650;
},
{
associatedMasterId = m01;
layerId = "DECE277A-2A10-4798-ABD5-98D410F50F32";
name = top;
shapes = (
{
closed = 0;
nodes = (
(550,640,l,{
name = topColor;
}),
(450,740,l,{
name = topColor;
}),
(100,740,l,{
name = topColor;
})
);
},
{
closed = 0;
nodes = (
(600,300,l,{
name = frontTopColor;
}),
(150,300,l,{
name = shadowColor;
})
);
}
);
width = 650;
},
{
associatedMasterId = m01;
layerId = "E12A84AE-EF3B-46B6-97F1-80ED1A29AD7B";
name = highlightColor;
shapes = (
{
closed = 0;
nodes = (
(450,640,l),
(450,300,l),
(200,300,l)
);
},
{
closed = 0;
nodes = (
(450,740,l),
(100,740,l),
(100,200,l)
);
}
);
width = 650;
}
);
metricLeft = H;
metricRight = H;
unicode = 82;
},
{
color = 4;
glyphname = S;
layers = (
{
anchors = (
{
name = bottom;
pos = (350,0);
},
{
name = top;
pos = (350,700);
}
);
layerId = m01;
shapes = (
{
angle = 180;
pos = (200,400);
ref = _part.corner;
},
{
pos = (450,60);
ref = _part.square;
},
{
pos = (200,640);
ref = _part.corner;
scale = (-1,1);
},
{
pos = (200,300);
ref = _part.square;
},
{
pos = (200,640);
ref = _part.square;
},
{
pos = (300,300);
ref = _part.square;
},
{
pos = (300,640);
ref = _part.square;
},
{
pos = (450,300);
ref = _part.corner;
},
{
pos = (200,-40);
ref = _part.square;
},
{
pos = (300,-40);
ref = _part.square;
},
{
pos = (100,500);
ref = _part.square;
},
{
pos = (450,500);
ref = _part.square;
},
{
pos = (100,60);
ref = _part.square;
},
{
pos = (450,60);
ref = _part.corner;
scale = (1,-1);
},
{
pos = (400,300);
ref = _part.square;
scale = (0.5,1);
},
{
pos = (400,640);
ref = _part.square;
scale = (0.5,1);
},
{
pos = (400,-40);
ref = _part.square;
scale = (0.5,1);
},
{
pos = (100,400);
ref = _part.square;
},
{
pos = (450,200);
ref = _part.square;
},
{
angle = 180;
pos = (200,60);
ref = _part.corner;
},
{
pos = (450,640);
ref = _part.corner;
},
{
pos = (450,100);
ref = _part.square;
},
{
pos = (100,540);
ref = _part.square;
},
{
pos = (450,540);
ref = _part.square;
}
);
width = 650;
},
{
associatedMasterId = m01;
layerId = "7DE7D723-8400-467D-834D-5BB4D3F50919";
name = side;
shapes = (
{
closed = 0;
nodes = (
(100,160,l,{
name = shadowColor;
}),
(100,60,l,{
name = shadowBottomColor;
})
);
},
{
closed = 0;
nodes = (
(450,660,l,{
name = shadowBottomColor;
}),
(450,500,l,{
name = shadowColor;
})
);
},
{
closed = 0;
nodes = (
(450,300,l,{
name = shadowBottomColor;
}),
(450,60,l,{
name = shadowColor;
})
);
}
);
width = 650;
},
{
associatedMasterId = m01;
layerId = "BF6D1113-3786-4EB3-AF42-EAEEDD79B7D9";
name = top;
shapes = (
{
closed = 0;
nodes = (
(520,60,l,{
name = frontTopColor;
}),
(150,60,l,{
name = shadowColor;
})
);
},
{
closed = 0;
nodes = (
(450,400,l,{
name = frontTopColor;
}),
(150,400,l,{
name = shadowColor;
})
);
},
{
closed = 0;
nodes = (
(200,160,l,{
name = frontTopColor;
}),
(100,160,l,{
name = frontTopColor;
})
);
},
{
closed = 0;
nodes = (
(450,740,l,{
name = topColor;
}),
(200,740,ls,{
name = topColor;
}),
(147,740,o),
(100,693,o),
(100,640,cs,{
name = shadowColor;
}),
(100,400,l,{
name = shadowBottomColor;
})
);
}
);
width = 650;
},
{
anchors = (
{
name = bottom;
pos = (350,0);
},
{
name = top;
pos = (350,700);
}
);
associatedMasterId = m01;
layerId = "E26A9DEB-8BD4-4E22-BE95-6E772DF5D180";
name = highlightColor;
shapes = (
{
closed = 0;
nodes = (
(450,740,l),
(200,740,ls),
(147,740,o),
(100,693,o),
(100,640,cs),
(100,400,ls)
);
},
{
closed = 0;
nodes = (
(450,400,l),
(328,400,l),
(200,400,l)
);
},
{
closed = 0;
nodes = (
(450,300,l),
(450,60,l),
(200,60,l)
);
},
{
closed = 0;
nodes = (
(200,160,l),
(100,160,l),
(100,60,l)
);
}
);
width = 650;
}
);
metricLeft = H;
metricRight = H;
unicode = 83;
},
{
color = 4;
glyphname = Scedilla;
layers = (
{
anchors = (
{
name = bottom;
pos = (350,0);
},
{
name = top;
pos = (350,700);
}
);
layerId = m01;
shapes = (
{
angle = 180;
pos = (200,400);
ref = _part.corner;
},
{
pos = (450,60);
ref = _part.square;
},
{
pos = (200,640);
ref = _part.corner;
scale = (-1,1);
},
{
pos = (200,300);
ref = _part.square;
},
{
pos = (200,640);
ref = _part.square;
},
{
pos = (300,300);
ref = _part.square;
},
{
pos = (300,640);
ref = _part.square;
},
{
pos = (450,300);
ref = _part.corner;
},
{
pos = (200,-40);
ref = _part.square;
},
{
pos = (300,-40);
ref = _part.square;
},
{
pos = (100,500);
ref = _part.square;
},
{
pos = (450,500);
ref = _part.square;
},
{
pos = (100,60);
ref = _part.square;
},
{
pos = (450,60);
ref = _part.corner;
scale = (1,-1);
},
{
pos = (400,300);
ref = _part.square;
scale = (0.5,1);
},
{
pos = (400,640);
ref = _part.square;
scale = (0.5,1);
},
{
pos = (400,-40);
ref = _part.square;
scale = (0.5,1);
},
{
pos = (100,400);
ref = _part.square;
},
{
pos = (450,200);
ref = _part.square;
},
{
angle = 180;
pos = (200,60);
ref = _part.corner;
},
{
pos = (450,640);
ref = _part.corner;
},
{
pos = (450,100);
ref = _part.square;
},
{
pos = (100,540);
ref = _part.square;
},
{
pos = (450,540);
ref = _part.square;
},
{
pos = (230,-40);
ref = cedillacomb;
}
);
width = 650;
},
{
associatedMasterId = m01;
layerId = "7DE7D723-8400-467D-834D-5BB4D3F50919";
name = side;
shapes = (
{
closed = 0;
nodes = (
(100,160,l,{
name = shadowColor;
}),
(100,60,l,{
name = shadowBottomColor;
})
);
},
{
closed = 0;
nodes = (
(450,660,l,{
name = shadowBottomColor;
}),
(450,500,l,{
name = shadowColor;
})
);
},
{
closed = 0;
nodes = (
(450,300,l,{
name = shadowBottomColor;
}),
(450,60,l,{
name = shadowColor;
})
);
},
{
closed = 0;
nodes = (
(330,-40,l,{
name = shadowBottomColor;
}),
(330,-140,l,{
name = shadowColor;
})
);
},
{
closed = 0;
nodes = (
(230,-140,l,{
name = shadowBottomColor;
}),
(230,-240,l,{
name = shadowBottomColor;
})
);
}
);
width = 650;
},
{
associatedMasterId = m01;
layerId = "BF6D1113-3786-4EB3-AF42-EAEEDD79B7D9";
name = top;
shapes = (
{
closed = 0;
nodes = (
(520,60,l,{
name = frontTopColor;
}),
(150,60,l,{
name = shadowColor;
})
);
},
{
closed = 0;
nodes = (
(450,400,l,{
name = frontTopColor;
}),
(150,400,l,{
name = shadowColor;
})
);
},
{
closed = 0;
nodes = (
(200,160,l,{
name = frontTopColor;
}),
(100,160,l,{
name = frontTopColor;
})
);
},
{
closed = 0;
nodes = (
(450,740,l,{
name = topColor;
}),
(200,740,ls,{
name = topColor;
}),
(147,740,o),
(100,693,o),
(100,640,cs,{
name = shadowColor;
}),
(100,400,l,{
name = shadowBottomColor;
})
);
},
{
closed = 0;
nodes = (
(380,-140,l,{
name = shadowBottomColor;
}),
(230,-140,l,{
name = shadowColor;
})
);
}
);
width = 650;
},
{
anchors = (
{
name = bottom;
pos = (350,0);
},
{
name = top;
pos = (350,700);
}
);
associatedMasterId = m01;
layerId = "E26A9DEB-8BD4-4E22-BE95-6E772DF5D180";
name = highlightColor;
shapes = (
{
closed = 0;
nodes = (
(450,740,l),
(200,740,ls),
(147,740,o),
(100,693,o),
(100,640,cs),
(100,400,ls)
);
},
{
closed = 0;
nodes = (
(450,400,l),
(328,400,l),
(200,400,l)
);
},
{
closed = 0;
nodes = (
(450,300,l),
(450,60,l),
(200,60,l)
);
},
{
closed = 0;
nodes = (
(200,160,l),
(100,160,l),
(100,60,l)
);
},
{
closed = 0;
nodes = (
(330,-140,l),
(230,-140,l),
(230,-240,l)
);
}
);
width = 650;
}
);
metricLeft = H;
metricRight = H;
unicode = 350;
},
{
color = 4;
glyphname = Germandbls;
layers = (
{
layerId = m01;
shapes = (
{
pos = (100,0);
ref = _part.square;
},
{
pos = (100,100);
ref = _part.square;
},
{
pos = (100,300);
ref = _part.square;
},
{
pos = (100,400);
ref = _part.square;
},
{
pos = (410,380);
ref = _part.corner;
scale = (-1,1);
},
{
angle = 180;
pos = (410,320);
ref = _part.corner;
},
{
pos = (200,640);
ref = _part.corner;
scale = (-1,1);
},
{
pos = (450,100);
ref = _part.corner;
scale = (1,-1);
},
{
pos = (450,100);
ref = _part.square;
scale = (1,1.2);
},
{
pos = (450,220);
ref = _part.corner;
},
{
pos = (450,640);
ref = _part.corner;
},
{
pos = (300,640);
ref = _part.square;
scale = (-1,1);
},
{
pos = (400,640);
ref = _part.square;
scale = (0.5,1);
},
{
pos = (450,480);
ref = _part.corner;
scale = (1,-1);
},
{
pos = (390,100);
ref = _part.square;
scale = (0.6,-1);
},
{
pos = (300,640);
ref = _part.square;
},
{
pos = (300,100);
ref = _part.square;
scale = (0.9,-1);
},
{
pos = (100,200);
ref = _part.square;
},
{
pos = (410,480);
ref = _part.square;
scale = (0.4,-1);
},
{
pos = (410,320);
ref = _part.square;
scale = (0.4,-1);
},
{
pos = (310,380);
ref = _part.square;
scale = (1,-0.6);
},
{
pos = (100,500);
ref = _part.square;
scale = (1,1.4);
},
{
pos = (450,640);
ref = _part.square;
scale = (1,-1.6);
}
);
width = 650;
},
{
associatedMasterId = m01;
layerId = "45971817-6D9B-4772-B5C8-6E9D12E5AB05";
name = side;
shapes = (
{
closed = 0;
nodes = (
(450,740,l,{
name = topColor;
}),
(200,740,ls,{
name = topColor;
}),
(147,740,o),
(100,693,o),
(100,640,cs,{
name = shadowColor;
}),
(100,0,l,{
name = shadowBottomColor;
})
);
},
{
closed = 0;
nodes = (
(450,220,l,{
name = shadowBottomColor;
}),
(450,100,l,{
name = shadowColor;
})
);
},
{
closed = 0;
nodes = (
(450,640,l,{
name = shadowBottomColor;
}),
(450,480,l,{
name = shadowColor;
})
);
},
{
closed = 0;
nodes = (
(300,100,l,{
name = shadowColor;
}),
(300,0,l,{
name = shadowBottomColor;
})
);
}
);
width = 650;
},
{
associatedMasterId = m01;
layerId = "5862D1DA-3EFA-4AE2-A5A8-31839647A07F";
name = top;
shapes = (
{
closed = 0;
nodes = (
(450,320,l,{
name = shadowColor;
}),
(410,320,l,{
name = shadowBottomColor;
})
);
},
{
closed = 0;
nodes = (
(450,100,l,{
name = shadowColor;
}),
(300,100,l,{
name = frontTopColor;
})
);
},
{
closed = 0;
nodes = (
(450,480,l,{
name = frontTopColor;
}),
(410,480,ls,{
name = frontTopColor;
}),
(357,480,o),
(310,433,o),
(310,380,cs,{
name = shadowColor;
}),
(310,320,ls,{
name = shadowColor;
})
);
}
);
width = 650;
},
{
associatedMasterId = m01;
layerId = "9C7A40F6-B20E-4F6A-AC0E-9A229A22508F";
name = highlightColor;
shapes = (
{
closed = 0;
nodes = (
(450,480,l),
(410,480,ls),
(357,480,o),
(310,433,o),
(310,380,cs),
(310,320,ls)
);
},
{
closed = 0;
nodes = (
(450,740,l),
(200,740,ls),
(147,740,o),
(100,693,o),
(100,640,cs),
(100,0,l)
);
},
{
closed = 0;
nodes = (
(450,100,l),
(300,100,l),
(300,0,l)
);
}
);
width = 650;
}
);
metricLeft = H;
metricRight = H;
unicode = 7838;
},
{
color = 4;
glyphname = T;
kernLeft = T;
kernRight = T;
layers = (
{
layerId = m01;
shapes = (
{
pos = (280,0);
ref = _part.square;
},
{
pos = (280,100);
ref = _part.square;
},
{
pos = (280,200);
ref = _part.square;
},
{
pos = (280,300);
ref = _part.square;
},
{
pos = (280,400);
ref = _part.square;
},
{
pos = (180,600);
ref = _part.square;
scale = (-0.8,1);
},
{
pos = (180,600);
ref = _part.square;
},
{
pos = (280,600);
ref = _part.square;
},
{
pos = (380,600);
ref = _part.square;
},
{
pos = (480,600);
ref = _part.square;
scale = (0.8,1);
},
{
pos = (280,500);
ref = _part.square;
},
{
pos = (280,-90);
ref = _part.square;
}
);
width = 660;
},
{
associatedMasterId = m01;
layerId = "5095376C-A845-4BE1-BAF0-188C0B77B0D7";
name = side;
shapes = (
{
closed = 0;
nodes = (
(100,700,l,{
name = shadowColor;
}),
(100,600,l,{
name = shadowColor;
})
);
},
{
closed = 0;
nodes = (
(280,600,l,{
name = shadowBottomColor;
}),
(280,-40,l,{
name = shadowColor;
})
);
}
);
width = 660;
},
{
associatedMasterId = m01;
layerId = "5E73D7B2-DEFB-465F-B486-93ED628714F1";
name = top;
shapes = (
{
closed = 0;
nodes = (
(560,700,l,{
name = topColor;
}),
(100,700,l,{
name = topColor;
})
);
}
);
width = 660;
},
{
associatedMasterId = m01;
layerId = "DB132561-9562-4CA6-8A99-E5B08A3C9235";
name = highlightColor;
shapes = (
{
closed = 0;
nodes = (
(280,450,l),
(280,190,l),
(280,-90,l)
);
},
{
closed = 0;
nodes = (
(560,700,l),
(100,700,l),
(100,600,l)
);
}
);
width = 660;
}
);
metricLeft = H;
metricRight = H;
unicode = 84;
},
{
color = 4;
glyphname = Tcedilla;
kernLeft = T;
kernRight = T;
layers = (
{
layerId = m01;
shapes = (
{
ref = T;
},
{
pos = (280,-90);
ref = cedillacomb;
}
);
width = 660;
},
{
associatedMasterId = m01;
layerId = "0B1B299D-CFFC-4A29-8CEE-DF147F990DA8";
name = side;
shapes = (
{
closed = 0;
nodes = (
(380,-90,l,{
name = shadowBottomColor;
}),
(380,-190,l,{
name = shadowColor;
})
);
},
{
closed = 0;
nodes = (
(100,700,l,{
name = shadowColor;
}),
(100,600,l,{
name = shadowColor;
})
);
},
{
closed = 0;
nodes = (
(280,600,l,{
name = shadowBottomColor;
}),
(280,-40,l,{
name = shadowColor;
})
);
},
{
closed = 0;
nodes = (
(280,-190,l,{
name = shadowBottomColor;
}),
(280,-290,l,{
name = shadowBottomColor;
})
);
}
);
width = 660;
},
{
associatedMasterId = m01;
layerId = "AD475087-960D-48E3-9734-EF64F26CB8EA";
name = top;
shapes = (
{
closed = 0;
nodes = (
(560,700,l,{
name = topColor;
}),
(100,700,l,{
name = topColor;
})
);
},
{
closed = 0;
nodes = (
(430,-190,l,{
name = shadowBottomColor;
}),
(280,-190,l,{
name = shadowColor;
})
);
}
);
width = 660;
},
{
associatedMasterId = m01;
layerId = "6B59BF87-F137-4EE1-B2E5-F377A6752ED4";
name = highlightColor;
shapes = (
{
closed = 0;
nodes = (
(280,450,l),
(280,190,l),
(280,-90,l)
);
},
{
closed = 0;
nodes = (
(560,700,l),
(100,700,l),
(100,600,l)
);
},
{
closed = 0;
nodes = (
(380,-190,l),
(280,-190,l),
(280,-290,l)
);
}
);
width = 660;
}
);
metricLeft = H;
metricRight = H;
unicode = 354;
},
{
color = 4;
glyphname = U;
layers = (
{
layerId = m01;
shapes = (
{
pos = (100,100);
ref = _part.square;
},
{
pos = (100,200);
ref = _part.square;
},
{
pos = (100,300);
ref = _part.square;
},
{
pos = (100,400);
ref = _part.square;
},
{
pos = (450,100);
ref = _part.square;
},
{
pos = (450,200);
ref = _part.square;
},
{
pos = (450,300);
ref = _part.square;
},
{
pos = (450,400);
ref = _part.square;
},
{
pos = (100,500);
ref = _part.square;
},
{
pos = (450,500);
ref = _part.square;
},
{
angle = 180;
pos = (200,60);
ref = _part.corner;
},
{
pos = (450,60);
ref = _part.corner;
scale = (1,-1);
},
{
pos = (400,-40);
ref = _part.square;
scale = (0.5,1);
},
{
pos = (300,-40);
ref = _part.square;
},
{
pos = (200,-40);
ref = _part.square;
},
{
pos = (100,600);
ref = _part.square;
},
{
pos = (450,600);
ref = _part.square;
},
{
pos = (100,60);
ref = _part.square;
},
{
pos = (450,60);
ref = _part.square;
}
);
width = 650;
},
{
associatedMasterId = m01;
layerId = "24CBA0B6-AB82-4D75-BD59-EE21924C8F0F";
name = side;
shapes = (
{
closed = 0;
nodes = (
(450,700,l,{
name = shadowColor;
}),
(450,60,l,{
name = shadowBottomColor;
})
);
},
{
closed = 0;
nodes = (
(100,700,l,{
name = shadowColor;
}),
(100,60,l,{
name = shadowBottomColor;
})
);
}
);
width = 650;
},
{
associatedMasterId = m01;
layerId = "171C8F42-6ACC-469A-8C9D-5B8FA423DFEC";
name = top;
shapes = (
{
closed = 0;
nodes = (
(550,700,l,{
name = topColor;
}),
(450,700,l,{
name = topColor;
})
);
},
{
closed = 0;
nodes = (
(200,700,l,{
name = topColor;
}),
(100,700,l,{
name = topColor;
})
);
},
{
closed = 0;
nodes = (
(500,60,l,{
name = frontTopColor;
}),
(200,60,l,{
name = shadowColor;
})
);
}
);
width = 650;
},
{
associatedMasterId = m01;
layerId = "5047BA9F-17F1-40C2-951D-441F9859E2B5";
name = highlightColor;
shapes = (
{
closed = 0;
nodes = (
(200,700,l),
(100,700,l),
(100,180,l)
);
},
{
closed = 0;
nodes = (
(550,700,l),
(450,700,l),
(450,60,l),
(200,60,l)
);
}
);
width = 650;
}
);
metricLeft = H;
metricRight = H;
unicode = 85;
},
{
color = 4;
glyphname = V;
layers = (
{
layerId = m01;
shapes = (
{
pos = (100,200);
ref = _part.square;
},
{
pos = (100,300);
ref = _part.square;
},
{
pos = (100,400);
ref = _part.square;
},
{
pos = (450,200);
ref = _part.square;
},
{
pos = (450,300);
ref = _part.square;
},
{
pos = (450,400);
ref = _part.square;
},
{
pos = (100,500);
ref = _part.square;
},
{
pos = (450,500);
ref = _part.square;
},
{
angle = 180;
pos = (300,20);
ref = _part.corner;
},
{
pos = (450,120);
ref = _part.corner;
scale = (1,-1);
},
{
pos = (350,20);
ref = _part.corner;
scale = (1,-1);
},
{
pos = (300,-80);
ref = _part.square;
scale = (0.5,1);
},
{
angle = 180;
pos = (200,120);
ref = _part.corner;
},
{
pos = (100,600);
ref = _part.square;
},
{
pos = (450,600);
ref = _part.square;
},
{
pos = (100,120);
ref = _part.square;
},
{
pos = (450,120);
ref = _part.square;
}
);
width = 650;
},
{
associatedMasterId = m01;
layerId = "83C19C75-A843-4BBE-8A34-F8D88EB9EF1B";
name = side;
shapes = (
{
closed = 0;
nodes = (
(100,700,l,{
name = shadowColor;
}),
(100,120,l,{
name = shadowBottomColor;
})
);
},
{
closed = 0;
nodes = (
(450,700,l,{
name = shadowColor;
}),
(450,20,l,{
name = shadowBottomColor;
})
);
}
);
width = 650;
},
{
associatedMasterId = m01;
layerId = "3A95A5D4-3C53-4CA2-8356-1334061F93A9";
name = top;
shapes = (
{
closed = 0;
nodes = (
(200,700,l,{
name = topColor;
}),
(100,700,l,{
name = topColor;
})
);
},
{
closed = 0;
nodes = (
(550,700,l,{
name = topColor;
}),
(450,700,l,{
name = topColor;
})
);
},
{
closed = 0;
nodes = (
(450,20,l,{
name = frontTopColor;
}),
(200,20,l,{
name = shadowColor;
})
);
}
);
width = 650;
},
{
associatedMasterId = m01;
layerId = "829F19D9-109D-466A-85BF-5C06DDEDEE34";
name = highlightColor;
shapes = (
{
closed = 0;
nodes = (
(200,700,l),
(100,700,l),
(100,180,ls)
);
},
{
closed = 0;
nodes = (
(550,700,l),
(450,700,l),
(450,20,l),
(200,20,l)
);
}
);
width = 650;
}
);
metricLeft = H;
metricRight = H;
unicode = 86;
},
{
color = 4;
glyphname = W;
layers = (
{
layerId = m01;
shapes = (
{
pos = (100,200);
ref = _part.square;
},
{
pos = (100,300);
ref = _part.square;
},
{
pos = (100,400);
ref = _part.square;
},
{
pos = (100,500);
ref = _part.square;
},
{
angle = 180;
pos = (200,120);
ref = _part.corner;
},
{
angle = 180;
pos = (300,20);
ref = _part.corner;
},
{
pos = (320,200);
ref = _part.square;
},
{
pos = (320,300);
ref = _part.square;
},
{
pos = (320,400);
ref = _part.square;
},
{
pos = (540,200);
ref = _part.square;
},
{
pos = (540,300);
ref = _part.square;
},
{
pos = (540,400);
ref = _part.square;
},
{
pos = (320,500);
ref = _part.square;
},
{
pos = (540,500);
ref = _part.square;
},
{
angle = 180;
pos = (420,120);
ref = _part.square;
},
{
pos = (440,20);
ref = _part.corner;
scale = (1,-1);
},
{
pos = (540,120);
ref = _part.corner;
scale = (1,-1);
},
{
pos = (300,20);
ref = _part.square;
scale = (1,-1);
},
{
pos = (100,600);
ref = _part.square;
},
{
pos = (320,600);
ref = _part.square;
},
{
pos = (540,600);
ref = _part.square;
},
{
pos = (100,120);
ref = _part.square;
},
{
pos = (320,120);
ref = _part.square;
},
{
pos = (540,120);
ref = _part.square;
},
{
pos = (340,20);
ref = _part.square;
scale = (1,-1);
}
);
width = 740;
},
{
associatedMasterId = m01;
layerId = "DDD78A23-A816-40A5-AF53-5698D6E27A8E";
name = side;
shapes = (
{
closed = 0;
nodes = (
(100,700,l,{
name = shadowColor;
}),
(100,120,l,{
name = shadowBottomColor;
})
);
},
{
closed = 0;
nodes = (
(540,700,l,{
name = shadowColor;
}),
(540,20,l,{
name = shadowBottomColor;
})
);
},
{
closed = 0;
nodes = (
(320,700,l,{
name = shadowColor;
}),
(320,20,l,{
name = shadowBottomColor;
})
);
}
);
width = 740;
},
{
associatedMasterId = m01;
layerId = "3E1BE474-CE80-4899-A4F9-64D575547367";
name = top;
shapes = (
{
closed = 0;
nodes = (
(200,700,l,{
name = topColor;
}),
(100,700,l,{
name = topColor;
})
);
},
{
closed = 0;
nodes = (
(640,700,l,{
name = topColor;
}),
(540,700,l,{
name = topColor;
})
);
},
{
closed = 0;
nodes = (
(590,20,l,{
name = frontTopColor;
}),
(420,20,l,{
name = shadowColor;
})
);
},
{
closed = 0;
nodes = (
(420,700,l,{
name = topColor;
}),
(320,700,l,{
name = topColor;
})
);
},
{
closed = 0;
nodes = (
(370,20,l,{
name = frontTopColor;
}),
(200,20,l,{
name = shadowColor;
})
);
}
);
width = 740;
},
{
associatedMasterId = m01;
layerId = "0672F58E-936E-40BA-A571-18198F9383CA";
name = highlightColor;
shapes = (
{
closed = 0;
nodes = (
(200,700,l),
(100,700,l),
(100,170,l)
);
},
{
closed = 0;
nodes = (
(640,700,l),
(540,700,l),
(540,20,l),
(420,20,l)
);
},
{
closed = 0;
nodes = (
(420,700,l),
(320,700,l),
(320,20,l),
(200,20,l)
);
}
);
width = 740;
}
);
metricLeft = H;
metricRight = H;
unicode = 87;
},
{
color = 4;
glyphname = X;
layers = (
{
layerId = m01;
shapes = (
{
pos = (100,600);
ref = _part.square;
},
{
pos = (100,0);
ref = _part.square;
},
{
pos = (200,200);
ref = _part.corner;
scale = (-1,1);
},
{
pos = (450,600);
ref = _part.square;
},
{
pos = (450,0);
ref = _part.square;
},
{
pos = (450,300);
ref = _part.corner;
},
{
pos = (100,500);
ref = _part.square;
},
{
pos = (450,500);
ref = _part.square;
},
{
angle = 180;
pos = (200,400);
ref = _part.corner;
},
{
pos = (450,500);
ref = _part.corner;
scale = (1,-1);
},
{
pos = (400,300);
ref = _part.square;
scale = (0.5,1);
},
{
pos = (300,300);
ref = _part.square;
},
{
pos = (200,300);
ref = _part.square;
},
{
pos = (450,200);
ref = _part.square;
},
{
pos = (100,400);
ref = _part.square;
},
{
pos = (100,100);
ref = _part.square;
},
{
pos = (450,100);
ref = _part.square;
}
);
width = 650;
},
{
associatedMasterId = m01;
layerId = "2C826690-E8DC-48BA-A4BF-9C2F1FC6A02F";
name = side;
shapes = (
{
closed = 0;
nodes = (
(200,300,l,{
name = shadowBottomColor;
}),
(150,300,o),
(100,250,o),
(100,200,cs,{
name = shadowColor;
}),
(100,0,l,{
name = shadowBottomColor;
})
);
},
{
closed = 0;
nodes = (
(450,700,l,{
name = shadowColor;
}),
(450,400,l,{
name = shadowBottomColor;
})
);
},
{
closed = 0;
nodes = (
(450,300,l,{
name = shadowBottomColor;
}),
(450,0,l,{
name = shadowColor;
})
);
},
{
closed = 0;
nodes = (
(100,700,l,{
name = shadowColor;
}),
(100,400,l,{
name = shadowBottomColor;
})
);
}
);
width = 650;
},
{
associatedMasterId = m01;
layerId = "ED62FCD5-8A4C-4AB3-9BEB-1BC45A8C5F72";
name = top;
shapes = (
{
closed = 0;
nodes = (
(550,700,l,{
name = topColor;
}),
(450,700,l,{
name = topColor;
})
);
},
{
closed = 0;
nodes = (
(200,700,l,{
name = topColor;
}),
(100,700,l,{
name = topColor;
})
);
},
{
closed = 0;
nodes = (
(500,400,l,{
name = frontTopColor;
}),
(200,400,l,{
name = shadowColor;
})
);
}
);
width = 650;
},
{
associatedMasterId = m01;
layerId = "AFAF83D9-928A-4125-A1B4-1D12260F1F9B";
name = highlightColor;
shapes = (
{
closed = 0;
nodes = (
(200,700,l),
(100,700,l),
(100,400,ls)
);
},
{
closed = 0;
nodes = (
(550,700,l),
(450,700,l),
(450,400,l),
(200,400,l)
);
},
{
closed = 0;
nodes = (
(200,300,l),
(150,300,o),
(100,250,o),
(100,200,cs),
(100,0,l)
);
}
);
width = 650;
}
);
metricLeft = H;
metricRight = H;
unicode = 88;
},
{
color = 4;
glyphname = Y;
layers = (
{
layerId = m01;
shapes = (
{
pos = (280,0);
ref = _part.square;
},
{
pos = (280,100);
ref = _part.square;
},
{
angle = 180;
pos = (200,300);
ref = _part.corner;
},
{
pos = (200,200);
ref = _part.square;
scale = (0.8,1);
},
{
pos = (280,200);
ref = _part.square;
},
{
pos = (380,200);
ref = _part.square;
scale = (0.8,1);
},
{
pos = (100,400);
ref = _part.square;
},
{
pos = (460,300);
ref = _part.corner;
scale = (1,-1);
},
{
pos = (460,400);
ref = _part.square;
},
{
pos = (100,500);
ref = _part.square;
},
{
pos = (460,500);
ref = _part.square;
},
{
pos = (100,300);
ref = _part.square;
},
{
pos = (460,300);
ref = _part.square;
},
{
pos = (100,600);
ref = _part.square;
},
{
pos = (460,600);
ref = _part.square;
},
{
pos = (280,-100);
ref = _part.square;
}
);
width = 660;
},
{
associatedMasterId = m01;
layerId = "80FE2F5E-55CD-4A45-A5D7-D8BBCF9DEE7C";
name = top;
shapes = (
{
closed = 0;
nodes = (
(560,700,l,{
name = topColor;
}),
(460,700,l,{
name = topColor;
})
);
},
{
closed = 0;
nodes = (
(200,700,l,{
name = topColor;
}),
(100,700,l,{
name = topColor;
})
);
},
{
closed = 0;
nodes = (
(520,300,l,{
name = frontTopColor;
}),
(200,300,l,{
name = shadowColor;
})
);
}
);
width = 660;
},
{
associatedMasterId = m01;
layerId = "F72E37EA-1BB9-43B7-A575-B99562C95FCF";
name = side;
shapes = (
{
closed = 0;
nodes = (
(460,700,l,{
name = shadowColor;
}),
(460,300,l,{
name = shadowBottomColor;
})
);
},
{
closed = 0;
nodes = (
(280,200,l,{
name = shadowBottomColor;
}),
(280,-100,l,{
name = shadowColor;
})
);
},
{
closed = 0;
nodes = (
(100,700,l,{
name = shadowColor;
}),
(100,300,ls,{
name = shadowBottomColor;
})
);
}
);
width = 660;
},
{
associatedMasterId = m01;
layerId = "FC691A22-FEA9-45E4-ABC8-EB506F3F2DCF";
name = highlightColor;
shapes = (
{
closed = 0;
nodes = (
(560,700,l),
(460,700,l),
(460,300,l),
(200,300,l)
);
},
{
closed = 0;
nodes = (
(200,700,l),
(100,700,l),
(100,300,l)
);
}
);
width = 660;
}
);
metricLeft = H;
metricRight = H;
unicode = 89;
},
{
color = 4;
glyphname = Z;
layers = (
{
layerId = m01;
shapes = (
{
pos = (200,300);
ref = _part.corner;
scale = (-1,1);
},
{
pos = (100,100);
ref = _part.square;
},
{
pos = (450,500);
ref = _part.square;
},
{
pos = (200,600);
ref = _part.square;
scale = (-1,1);
},
{
pos = (200,300);
ref = _part.square;
},
{
pos = (200,600);
ref = _part.square;
},
{
pos = (300,300);
ref = _part.square;
},
{
pos = (300,600);
ref = _part.square;
},
{
pos = (450,400);
ref = _part.corner;
scale = (1,-1);
},
{
pos = (200,0);
ref = _part.square;
},
{
pos = (300,0);
ref = _part.square;
},
{
pos = (450,400);
ref = _part.square;
},
{
pos = (450,600);
ref = _part.square;
},
{
pos = (100,0);
ref = _part.square;
},
{
pos = (450,100);
ref = _part.square;
scale = (1,-1);
},
{
pos = (400,300);
ref = _part.square;
scale = (0.5,1);
},
{
pos = (400,600);
ref = _part.square;
scale = (0.5,1);
},
{
pos = (400,0);
ref = _part.square;
scale = (0.5,1);
},
{
pos = (100,200);
ref = _part.square;
}
);
width = 650;
},
{
associatedMasterId = m01;
layerId = "D03CB3EB-EB05-4C80-90E4-F70CD60F3C55";
name = top;
shapes = (
{
closed = 0;
nodes = (
(550,700,l,{
name = topColor;
}),
(100,700,l,{
name = topColor;
})
);
},
{
closed = 0;
nodes = (
(620,100,l,{
name = frontTopColor;
}),
(200,100,l,{
name = shadowColor;
})
);
},
{
closed = 0;
nodes = (
(450,600,l,{
name = shadowBottomColor;
}),
(450,400,l,{
name = shadowColor;
})
);
}
);
width = 650;
},
{
associatedMasterId = m01;
layerId = "BB440D3E-1573-4FC4-B03E-1E139E1793A3";
name = side;
shapes = (
{
closed = 0;
nodes = (
(100,700,l,{
name = shadowColor;
}),
(100,600,l,{
name = shadowColor;
})
);
},
{
closed = 0;
nodes = (
(510,400,l,{
name = frontTopColor;
}),
(200,400,ls,{
name = shadowColor;
}),
(147,400,o),
(100,353,o),
(100,300,cs,{
name = shadowColor;
}),
(100,0,l,{
name = shadowBottomColor;
})
);
}
);
width = 650;
},
{
associatedMasterId = m01;
layerId = "99B450E9-A4A2-4F4E-B34B-910038065DBA";
name = highlightColor;
shapes = (
{
closed = 0;
nodes = (
(550,700,l),
(100,700,l),
(100,600,l)
);
},
{
closed = 0;
nodes = (
(550,100,l),
(373,100,l),
(200,100,l)
);
},
{
closed = 0;
nodes = (
(450,600,l),
(450,400,l),
(200,400,ls),
(147,400,o),
(100,353,o),
(100,300,cs),
(100,100,l)
);
}
);
width = 650;
}
);
metricLeft = H;
metricRight = H;
unicode = 90;
},
{
color = 4;
glyphname = a;
kernLeft = o;
kernRight = n;
layers = (
{
layerId = m01;
shapes = (
{
angle = 180;
pos = (200,60);
ref = _part.corner;
},
{
pos = (100,440);
ref = _part.square;
},
{
pos = (200,200);
ref = _part.square;
},
{
pos = (300,200);
ref = _part.square;
},
{
pos = (400,60);
ref = _part.square;
scale = (1,-1);
},
{
pos = (400,180);
ref = _part.square;
},
{
pos = (400,340);
ref = _part.square;
},
{
pos = (200,200);
ref = _part.corner;
scale = (-1,1);
},
{
pos = (200,-40);
ref = _part.square;
},
{
pos = (300,60);
ref = _part.corner;
scale = (1,-1);
},
{
pos = (300,440);
ref = _part.square;
},
{
pos = (400,440);
ref = _part.corner;
},
{
pos = (200,440);
ref = _part.square;
},
{
pos = (100,60);
ref = _part.square;
},
{
pos = (400,60);
ref = _part.square;
},
{
pos = (400,280);
ref = _part.square;
},
{
pos = (100,100);
ref = _part.square;
},
{
pos = (400,80);
ref = _part.square;
}
);
width = 600;
},
{
associatedMasterId = m01;
layerId = "971C4F35-4BF0-4765-A8F9-09C822CC6A5A";
name = side;
shapes = (
{
closed = 0;
nodes = (
(100,540,l,{
name = shadowColor;
}),
(100,440,l,{
name = shadowColor;
})
);
},
{
closed = 0;
nodes = (
(400,200,l,{
name = shadowBottomColor;
}),
(400,-40,l,{
name = shadowColor;
})
);
},
{
closed = 0;
nodes = (
(400,440,l,{
name = shadowBottomColor;
}),
(400,300,l,{
name = shadowColor;
})
);
}
);
width = 600;
},
{
associatedMasterId = m01;
layerId = "92DBE46C-EEC7-4696-A06C-134CBAD1D7B7";
name = top;
shapes = (
{
closed = 0;
nodes = (
(400,540,l,{
name = topColor;
}),
(100,540,l,{
name = topColor;
})
);
},
{
closed = 0;
nodes = (
(430,60,l,{
name = frontTopColor;
}),
(190,60,l,{
name = shadowColor;
})
);
},
{
closed = 0;
nodes = (
(400,300,l,{
name = frontTopColor;
}),
(200,300,ls,{
name = shadowColor;
}),
(147,300,o,{
name = "";
}),
(100,253,o,{
name = "";
}),
(100,200,cs,{
name = shadowColor;
}),
(100,60,l,{
name = shadowBottomColor;
})
);
}
);
width = 600;
},
{
associatedMasterId = m01;
layerId = "AECD7D3B-E4F1-4B26-8D66-12FB38001D98";
name = highlightColor;
shapes = (
{
closed = 0;
nodes = (
(400,440,l),
(400,300,l),
(200,300,ls),
(147,300,o),
(100,253,o),
(100,200,cs),
(100,90,l)
);
},
{
closed = 0;
nodes = (
(400,200,l),
(400,60,l),
(200,60,l)
);
},
{
closed = 0;
nodes = (
(400,540,l),
(100,540,l),
(100,440,l)
);
}
);
width = 600;
}
);
metricLeft = n;
metricRight = n;
unicode = 97;
},
{
color = 4;
glyphname = ae;
kernLeft = o;
kernRight = n;
layers = (
{
layerId = m01;
shapes = (
{
angle = 180;
pos = (200,60);
ref = _part.corner;
},
{
pos = (100,90);
ref = _part.square;
},
{
pos = (100,420);
ref = _part.square;
},
{
pos = (200,190);
ref = _part.square;
},
{
pos = (300,190);
ref = _part.square;
},
{
pos = (400,90);
ref = _part.square;
},
{
pos = (400,190);
ref = _part.square;
},
{
pos = (200,190);
ref = _part.corner;
scale = (-1,1);
},
{
pos = (200,-40);
ref = _part.square;
},
{
pos = (300,60);
ref = _part.corner;
scale = (1,-1);
},
{
pos = (300,420);
ref = _part.corner;
},
{
pos = (200,420);
ref = _part.square;
},
{
pos = (500,420);
ref = _part.corner;
scale = (-1,1);
},
{
pos = (500,190);
ref = _part.square;
},
{
pos = (500,420);
ref = _part.square;
},
{
pos = (600,290);
ref = _part.corner;
scale = (1,-1);
},
{
pos = (600,420);
ref = _part.corner;
},
{
angle = 180;
pos = (500,60);
ref = _part.corner;
},
{
pos = (600,-40);
ref = _part.square;
},
{
pos = (500,-40);
ref = _part.square;
},
{
pos = (100,60);
ref = _part.square;
},
{
pos = (400,60);
ref = _part.square;
},
{
pos = (300,320);
ref = _part.square;
},
{
pos = (600,320);
ref = _part.square;
},
{
pos = (300,290);
ref = _part.square;
},
{
pos = (600,290);
ref = _part.square;
}
);
width = 800;
},
{
associatedMasterId = m01;
layerId = "28B1EB0E-5A92-45D1-85B5-C973507C647A";
name = side;
shapes = (
{
closed = 0;
nodes = (
(100,520,l,{
name = shadowColor;
}),
(100,420,l,{
name = shadowColor;
})
);
},
{
closed = 0;
nodes = (
(600,520,l,{
name = topColor;
}),
(500,520,ls,{
name = topColor;
}),
(447,520,o),
(400,473,o),
(400,420,c,{
name = shadowColor;
})
);
},
{
closed = 0;
nodes = (
(400,190,l,{
name = shadowBottomColor;
}),
(400,60,ls,{
name = shadowColor;
}),
(400,7,o),
(447,-40,o),
(500,-40,cs)
);
},
{
closed = 0;
nodes = (
(600,420,l,{
name = shadowBottomColor;
}),
(600,290,l,{
name = shadowColor;
})
);
},
{
closed = 0;
nodes = (
(300,420,l,{
name = shadowBottomColor;
}),
(300,290,l,{
name = shadowColor;
})
);
}
);
width = 800;
},
{
associatedMasterId = m01;
layerId = "9272EE95-304D-41A0-BE76-376F8505E845";
name = top;
shapes = (
{
closed = 0;
nodes = (
(400,60,l,{
name = frontTopColor;
}),
(200,60,l,{
name = shadowColor;
})
);
},
{
closed = 0;
nodes = (
(700,60,l,{
name = frontTopColor;
}),
(500,60,l,{
name = shadowColor;
})
);
},
{
closed = 0;
nodes = (
(600,290,l,{
name = frontTopColor;
}),
(400,290,l,{
name = shadowColor;
})
);
},
{
closed = 0;
nodes = (
(300,520,l,{
name = topColor;
}),
(100,520,l,{
name = topColor;
})
);
},
{
closed = 0;
nodes = (
(300,290,l,{
name = frontBottomColor;
}),
(200,290,l,{
name = frontBottomColor;
}),
(147,290,o),
(100,243,o),
(100,190,cs,{
name = shadowColor;
}),
(100,60,l,{
name = shadowBottomColor;
})
);
}
);
width = 800;
},
{
associatedMasterId = m01;
layerId = "48C97199-1A30-49AF-8E75-321657D8D404";
name = highlightColor;
shapes = (
{
closed = 0;
nodes = (
(300,410,l),
(300,290,l),
(200,290,ls),
(147,290,o),
(100,243,o),
(100,190,cs),
(100,60,ls)
);
},
{
closed = 0;
nodes = (
(300,520,l),
(100,520,l),
(100,420,l)
);
},
{
closed = 0;
nodes = (
(600,410,l),
(600,290,l),
(400,290,l)
);
},
{
closed = 0;
nodes = (
(600,520,l),
(500,520,ls),
(447,520,o),
(400,473,o),
(400,420,c)
);
},
{
closed = 0;
nodes = (
(700,60,l),
(597,60,l),
(500,60,l)
);
},
{
closed = 0;
nodes = (
(400,190,l),
(400,60,l),
(200,60,l)
);
}
);
width = 800;
}
);
metricLeft = n;
metricRight = o;
unicode = 230;
},
{
color = 4;
glyphname = b;
kernLeft = H;
kernRight = o;
layers = (
{
layerId = m01;
shapes = (
{
angle = 180;
pos = (200,100);
ref = _part.square;
},
{
pos = (100,100);
ref = _part.square;
},
{
pos = (100,200);
ref = _part.square;
},
{
pos = (100,300);
ref = _part.square;
},
{
angle = 180;
pos = (300,100);
ref = _part.square;
},
{
pos = (300,0);
ref = _part.square;
},
{
pos = (300,440);
ref = _part.corner;
scale = (-1,1);
},
{
pos = (300,440);
ref = _part.square;
},
{
pos = (100,400);
ref = _part.square;
},
{
pos = (100,500);
ref = _part.square;
},
{
pos = (100,600);
ref = _part.square;
},
{
pos = (400,100);
ref = _part.corner;
scale = (1,-1);
},
{
pos = (400,100);
ref = _part.square;
},
{
pos = (400,200);
ref = _part.square;
},
{
pos = (400,300);
ref = _part.square;
},
{
pos = (400,440);
ref = _part.corner;
},
{
pos = (400,340);
ref = _part.square;
}
);
width = 600;
},
{
associatedMasterId = m01;
layerId = "D975E749-9395-4D2F-8817-42CB17820FEA";
name = side;
shapes = (
{
closed = 0;
nodes = (
(400,440,l,{
name = shadowBottomColor;
}),
(400,100,l,{
name = shadowColor;
})
);
},
{
closed = 0;
nodes = (
(100,700,l,{
name = shadowColor;
}),
(100,0,l,{
name = shadowBottomColor;
})
);
}
);
width = 600;
},
{
associatedMasterId = m01;
layerId = "44C1B1B5-C2EF-4359-AD44-31B5CA5F79B3";
name = top;
shapes = (
{
closed = 0;
nodes = (
(400,540,l,{
name = topColor;
}),
(300,540,ls,{
name = topColor;
}),
(247,540,o),
(200,493,o),
(200,440,c,{
name = shadowColor;
})
);
},
{
closed = 0;
nodes = (
(420,100,l,{
name = frontTopColor;
}),
(200,100,l,{
name = shadowColor;
})
);
},
{
closed = 0;
nodes = (
(200,700,l,{
name = topColor;
}),
(100,700,l,{
name = topColor;
})
);
}
);
width = 600;
},
{
associatedMasterId = m01;
layerId = "444C88E5-EC60-4E81-B520-34D065B4CE6B";
name = highlightColor;
shapes = (
{
closed = 0;
nodes = (
(400,440,l),
(400,100,l),
(200,100,l)
);
},
{
closed = 0;
nodes = (
(400,540,l),
(300,540,ls),
(247,540,o),
(200,493,o),
(200,440,c)
);
},
{
closed = 0;
nodes = (
(200,700,l),
(100,700,l),
(100,100,l)
);
}
);
width = 600;
}
);
metricLeft = H;
metricRight = o;
unicode = 98;
},
{
color = 4;
glyphname = c;
kernLeft = o;
kernRight = o;
layers = (
{
layerId = m01;
shapes = (
{
angle = 180;
pos = (200,60);
ref = _part.corner;
},
{
pos = (100,60);
ref = _part.square;
},
{
pos = (100,300);
ref = _part.square;
},
{
pos = (200,440);
ref = _part.corner;
scale = (-1,1);
},
{
pos = (200,440);
ref = _part.square;
},
{
pos = (300,440);
ref = _part.square;
},
{
pos = (400,340);
ref = _part.square;
},
{
pos = (400,440);
ref = _part.corner;
},
{
pos = (200,-40);
ref = _part.square;
},
{
pos = (300,-40);
ref = _part.square;
},
{
pos = (400,60);
ref = _part.square;
},
{
pos = (100,200);
ref = _part.square;
},
{
pos = (400,60);
ref = _part.corner;
scale = (1,-1);
},
{
pos = (100,100);
ref = _part.square;
},
{
pos = (100,340);
ref = _part.square;
}
);
width = 600;
},
{
associatedMasterId = m01;
layerId = "BE442087-5D85-4657-BF6F-C71B0740AEDB";
name = side;
shapes = (
{
closed = 0;
nodes = (
(400,500,l,{
name = shadowBottomColor;
}),
(400,340,l,{
name = shadowColor;
})
);
},
{
closed = 0;
nodes = (
(200,540,l,{
name = topColor;
}),
(147,540,o,{
name = "";
}),
(100,493,o,{
name = "";
}),
(100,440,cs,{
name = shadowColor;
}),
(100,60,l,{
name = shadowBottomColor;
})
);
},
{
closed = 0;
nodes = (
(400,160,l,{
name = shadowColor;
}),
(400,10,l,{
name = shadowBottomColor;
})
);
}
);
width = 600;
},
{
associatedMasterId = m01;
layerId = "CD1B8727-5231-4BA1-9BCB-585E332D0A5E";
name = top;
shapes = (
{
closed = 0;
nodes = (
(500,440,l,{
name = topColor;
}),
(500,493,o,{
name = topColor;
}),
(453,540,o,{
name = topColor;
}),
(400,540,cs,{
name = topColor;
}),
(200,540,l,{
name = topColor;
})
);
},
{
closed = 0;
nodes = (
(500,160,l,{
name = topColor;
}),
(400,160,l,{
name = topColor;
})
);
},
{
closed = 0;
nodes = (
(400,60,l,{
name = frontTopColor;
}),
(160,60,l,{
name = shadowColor;
})
);
}
);
width = 600;
},
{
associatedMasterId = m01;
layerId = "A324633B-DD11-4158-8962-43C649F60E38";
name = highlightColor;
shapes = (
{
closed = 0;
nodes = (
(400,540,l),
(200,540,ls),
(147,540,o),
(100,493,o),
(100,440,cs),
(100,60,l)
);
},
{
closed = 0;
nodes = (
(500,160,l),
(400,160,l),
(400,60,l),
(200,60,l)
);
}
);
width = 600;
}
);
metricLeft = o;
metricRight = o;
unicode = 99;
},
{
color = 4;
glyphname = ccedilla;
kernLeft = o;
kernRight = o;
layers = (
{
layerId = m01;
shapes = (
{
pos = (200,-40);
ref = cedillacomb;
},
{
ref = c;
}
);
width = 600;
},
{
associatedMasterId = m01;
layerId = "E1EE4EA1-9266-4B0E-97ED-8CDA44A393E8";
name = side;
shapes = (
{
closed = 0;
nodes = (
(400,500,l,{
name = shadowBottomColor;
}),
(400,340,l,{
name = shadowColor;
})
);
},
{
closed = 0;
nodes = (
(200,540,l,{
name = topColor;
}),
(147,540,o,{
name = "";
}),
(100,493,o,{
name = "";
}),
(100,440,cs,{
name = shadowColor;
}),
(100,60,l,{
name = shadowBottomColor;
})
);
},
{
closed = 0;
nodes = (
(400,160,l,{
name = shadowColor;
}),
(400,10,l,{
name = shadowBottomColor;
})
);
},
{
closed = 0;
nodes = (
(300,-40,l,{
name = shadowBottomColor;
}),
(300,-140,l,{
name = shadowColor;
})
);
},
{
closed = 0;
nodes = (
(200,-140,l,{
name = shadowBottomColor;
}),
(200,-240,l,{
name = shadowBottomColor;
})
);
}
);
width = 600;
},
{
associatedMasterId = m01;
layerId = "54A4800C-CF11-4870-B2FA-DB47D8251F75";
name = top;
shapes = (
{
closed = 0;
nodes = (
(500,440,l,{
name = topColor;
}),
(500,493,o,{
name = topColor;
}),
(453,540,o,{
name = topColor;
}),
(400,540,cs,{
name = topColor;
}),
(200,540,l,{
name = topColor;
})
);
},
{
closed = 0;
nodes = (
(500,160,l,{
name = topColor;
}),
(400,160,l,{
name = topColor;
})
);
},
{
closed = 0;
nodes = (
(400,60,l,{
name = frontTopColor;
}),
(160,60,l,{
name = shadowColor;
})
);
},
{
closed = 0;
nodes = (
(300,-140,l,{
name = shadowBottomColor;
}),
(200,-140,l,{
name = shadowColor;
})
);
}
);
width = 600;
},
{
associatedMasterId = m01;
layerId = "E2DFAABB-B204-4147-9CA6-2764D69AA601";
name = highlightColor;
shapes = (
{
closed = 0;
nodes = (
(300,-140,l),
(200,-140,l),
(200,-240,l)
);
},
{
closed = 0;
nodes = (
(400,540,l),
(200,540,ls),
(147,540,o),
(100,493,o),
(100,440,cs),
(100,60,l)
);
},
{
closed = 0;
nodes = (
(500,160,l),
(400,160,l),
(400,60,l),
(200,60,l)
);
}
);
width = 600;
}
);
metricLeft = H;
metricRight = H;
unicode = 231;
},
{
color = 4;
glyphname = d;
kernLeft = o;
kernRight = H;
layers = (
{
layerId = m01;
shapes = (
{
pos = (200,400);
ref = _part.square;
},
{
angle = 180;
pos = (200,60);
ref = _part.corner;
},
{
pos = (200,100);
ref = _part.square;
scale = (-1,1);
},
{
pos = (200,200);
ref = _part.square;
scale = (-1,1);
},
{
pos = (200,300);
ref = _part.square;
scale = (-1,1);
},
{
pos = (200,400);
ref = _part.corner;
scale = (-1,1);
},
{
angle = 180;
pos = (500,60);
ref = _part.corner;
},
{
pos = (400,100);
ref = _part.square;
},
{
pos = (400,200);
ref = _part.square;
},
{
pos = (400,300);
ref = _part.square;
},
{
pos = (400,400);
ref = _part.square;
},
{
pos = (400,460);
ref = _part.square;
},
{
pos = (300,400);
ref = _part.corner;
},
{
pos = (300,60);
ref = _part.corner;
scale = (1,-1);
},
{
pos = (200,-40);
ref = _part.square;
},
{
pos = (200,60);
ref = _part.square;
scale = (-1,1);
},
{
pos = (400,60);
ref = _part.square;
}
);
width = 600;
},
{
associatedMasterId = m01;
layerId = "65001239-6DCC-4C29-92EF-C4B58EB6E567";
name = side;
shapes = (
{
closed = 0;
nodes = (
(300,500,l,{
name = topColor;
}),
(200,500,ls,{
name = topColor;
}),
(147,500,o),
(100,453,o),
(100,400,cs,{
name = shadowColor;
}),
(100,60,l,{
name = shadowBottomColor;
})
);
},
{
closed = 0;
nodes = (
(400,560,l,{
name = shadowColor;
}),
(400,420,l,{
name = shadowBottomColor;
})
);
},
{
closed = 0;
nodes = (
(400,400,l,{
name = shadowBottomColor;
}),
(400,60,l,{
name = shadowColor;
})
);
}
);
width = 600;
},
{
associatedMasterId = m01;
layerId = "A2529DCC-4C02-45C5-B97C-6586EACB154C";
name = top;
shapes = (
{
closed = 0;
nodes = (
(500,560,l,{
name = topColor;
}),
(400,560,l,{
name = topColor;
})
);
},
{
closed = 0;
nodes = (
(400,60,l,{
name = frontTopColor;
}),
(200,60,l,{
name = shadowColor;
})
);
}
);
width = 600;
},
{
associatedMasterId = m01;
layerId = "020CC2C4-BE04-4F9C-AA6F-2DA101F498D9";
name = highlightColor;
shapes = (
{
closed = 0;
nodes = (
(300,500,l),
(200,500,ls),
(147,500,o),
(100,453,o),
(100,400,cs),
(100,60,l)
);
},
{
closed = 0;
nodes = (
(500,560,l),
(400,560,l),
(400,460,l)
);
},
{
closed = 0;
nodes = (
(400,370,l),
(400,60,l),
(200,60,l)
);
}
);
width = 600;
}
);
metricLeft = o;
metricRight = H;
unicode = 100;
},
{
color = 4;
glyphname = e;
kernLeft = o;
kernRight = n;
layers = (
{
layerId = m01;
shapes = (
{
angle = 180;
pos = (200,60);
ref = _part.corner;
},
{
pos = (100,100);
ref = _part.square;
},
{
pos = (200,440);
ref = _part.corner;
scale = (-1,1);
},
{
angle = 180;
pos = (300,290);
ref = _part.corner;
},
{
pos = (200,440);
ref = _part.square;
},
{
pos = (300,190);
ref = _part.square;
},
{
pos = (300,440);
ref = _part.square;
},
{
pos = (400,290);
ref = _part.corner;
scale = (1,-1);
},
{
pos = (400,340);
ref = _part.square;
},
{
pos = (400,440);
ref = _part.corner;
},
{
pos = (200,-40);
ref = _part.square;
},
{
pos = (300,-40);
ref = _part.square;
},
{
pos = (400,-40);
ref = _part.square;
},
{
pos = (100,200);
ref = _part.square;
},
{
pos = (100,300);
ref = _part.square;
},
{
pos = (100,60);
ref = _part.square;
},
{
pos = (400,290);
ref = _part.square;
},
{
pos = (100,340);
ref = _part.square;
}
);
width = 600;
},
{
associatedMasterId = m01;
layerId = "0D36A86D-59B0-4D8C-9718-2661B7A53B03";
name = side;
shapes = (
{
closed = 0;
nodes = (
(400,540,l,{
name = topColor;
}),
(200,540,ls,{
name = topColor;
}),
(147,540,o),
(100,493,o),
(100,440,cs,{
name = shadowColor;
}),
(100,60,l,{
name = shadowBottomColor;
})
);
},
{
closed = 0;
nodes = (
(400,440,l,{
name = shadowBottomColor;
}),
(400,290,l,{
name = shadowColor;
})
);
}
);
width = 600;
},
{
associatedMasterId = m01;
layerId = "358FE338-11CE-443A-8771-2BC59DED9742";
name = top;
shapes = (
{
closed = 0;
nodes = (
(430,290,l,{
name = frontTopColor;
}),
(190,290,l,{
name = shadowColor;
})
);
},
{
closed = 0;
nodes = (
(500,60,l,{
name = frontTopColor;
}),
(190,60,l,{
name = shadowColor;
})
);
}
);
width = 600;
},
{
associatedMasterId = m01;
layerId = "D28718A9-1401-4229-BF7B-6C170B6E03C9";
name = highlightColor;
shapes = (
{
closed = 0;
nodes = (
(400,440,l),
(400,290,l),
(200,290,l)
);
},
{
closed = 0;
nodes = (
(400,540,l),
(200,540,ls),
(147,540,o),
(100,493,o),
(100,440,cs),
(100,60,ls)
);
},
{
closed = 0;
nodes = (
(500,60,l),
(350,60,l),
(200,60,l)
);
}
);
width = 600;
}
);
metricLeft = o;
metricRight = o;
unicode = 101;
},
{
color = 4;
glyphname = f;
kernLeft = f;
kernRight = f;
layers = (
{
layerId = m01;
shapes = (
{
pos = (200,0);
ref = _part.square;
},
{
pos = (200,100);
ref = _part.square;
},
{
pos = (200,200);
ref = _part.square;
},
{
pos = (200,300);
ref = _part.square;
},
{
pos = (300,520);
ref = _part.corner;
scale = (-1,1);
},
{
pos = (400,300);
ref = _part.corner;
scale = (-1,1);
},
{
pos = (300,520);
ref = _part.square;
},
{
pos = (400,300);
ref = _part.square;
},
{
pos = (400,520);
ref = _part.square;
},
{
pos = (200,400);
ref = _part.square;
},
{
pos = (100,300);
ref = _part.square;
},
{
pos = (200,-40);
ref = _part.square;
},
{
pos = (200,500);
ref = _part.square;
scale = (1,0.2);
}
);
width = 550;
},
{
associatedMasterId = m01;
layerId = "BD8B5540-350D-4D59-8617-6A3A7D764E6F";
name = side;
shapes = (
{
closed = 0;
nodes = (
(200,300,l,{
name = shadowBottomColor;
}),
(200,-40,l,{
name = shadowColor;
})
);
},
{
closed = 0;
nodes = (
(100,400,l,{
name = shadowColor;
}),
(100,300,l,{
name = shadowColor;
})
);
},
{
closed = 0;
nodes = (
(500,400,l,{
name = frontTopColor;
}),
(400,400,l,{
name = shadowColor;
}),
(347,400,o),
(300,353,o),
(300,300,c,{
name = shadowColor;
})
);
},
{
closed = 0;
nodes = (
(500,620,l,{
name = topColor;
}),
(300,620,ls,{
name = topColor;
}),
(247,620,o),
(200,573,o),
(200,520,cs,{
name = shadowColor;
}),
(200,350,l,{
name = shadowBottomColor;
})
);
}
);
width = 550;
},
{
associatedMasterId = m01;
layerId = "D73087D2-9EBD-4096-9054-9B5B0F1EEB46";
name = top;
shapes = (
{
closed = 0;
nodes = (
(250,400,l,{
name = shadowColor;
}),
(100,400,l,{
name = frontTopColor;
})
);
}
);
width = 550;
},
{
associatedMasterId = m01;
layerId = "FE395021-3BDB-4AC6-B56C-FF60C241B3CD";
name = highlightColor;
shapes = (
{
closed = 0;
nodes = (
(500,620,l),
(300,620,ls),
(247,620,o),
(200,573,o),
(200,520,cs),
(200,440,l)
);
},
{
closed = 0;
nodes = (
(500,400,l),
(400,400,ls),
(347,400,o),
(300,353,o),
(300,300,c)
);
},
{
closed = 0;
nodes = (
(200,220,l),
(200,99,l),
(200,-40,l)
);
},
{
closed = 0;
nodes = (
(200,400,l),
(100,400,l),
(100,300,l)
);
}
);
width = 550;
}
);
metricLeft = H;
unicode = 102;
},
{
color = 4;
glyphname = g;
kernLeft = n;
kernRight = n;
layers = (
{
layerId = m01;
shapes = (
{
angle = 180;
pos = (200,270);
ref = _part.corner;
},
{
pos = (200,400);
ref = _part.corner;
scale = (-1,1);
},
{
pos = (200,400);
ref = _part.square;
},
{
pos = (300,270);
ref = _part.corner;
scale = (1,-1);
},
{
pos = (400,300);
ref = _part.square;
},
{
pos = (300,400);
ref = _part.corner;
},
{
pos = (200,170);
ref = _part.square;
},
{
pos = (100,300);
ref = _part.square;
},
{
pos = (400,400);
ref = _part.square;
},
{
pos = (400,100);
ref = _part.corner;
scale = (1,-1);
},
{
pos = (200,0);
ref = _part.square;
},
{
pos = (300,0);
ref = _part.square;
},
{
pos = (400,200);
ref = _part.square;
},
{
pos = (400,100);
ref = _part.square;
},
{
angle = 180;
pos = (200,100);
ref = _part.square;
},
{
pos = (100,270);
ref = _part.square;
}
);
width = 600;
},
{
associatedMasterId = m01;
layerId = "1CD9C220-61A7-430E-98A3-F5C1FBF81D69";
name = side;
shapes = (
{
closed = 0;
nodes = (
(400,500,l,{
name = shadowColor;
}),
(400,410,l,{
name = shadowBottomColor;
})
);
},
{
closed = 0;
nodes = (
(300,500,l,{
name = topColor;
}),
(200,500,ls,{
name = topColor;
}),
(147,500,o),
(100,453,o),
(100,400,cs,{
name = shadowColor;
}),
(100,270,l,{
name = shadowBottomColor;
})
);
},
{
closed = 0;
nodes = (
(100,100,l,{
name = shadowColor;
}),
(100,0,l,{
name = shadowBottomColor;
})
);
},
{
closed = 0;
nodes = (
(400,270,l,{
name = shadowBottomColor;
}),
(400,100,l,{
name = shadowBottomColor;
})
);
},
{
closed = 0;
nodes = (
(400,400,l,{
name = shadowBottomColor;
}),
(400,280,l,{
name = shadowColor;
})
);
}
);
width = 600;
},
{
associatedMasterId = m01;
layerId = "B5BDBB10-291E-4421-A7B2-B5B679DE7ECB";
name = top;
shapes = (
{
closed = 0;
nodes = (
(450,270,l,{
name = frontTopColor;
}),
(200,270,l,{
name = shadowColor;
})
);
},
{
closed = 0;
nodes = (
(500,500,l,{
name = topColor;
}),
(400,500,l,{
name = topColor;
})
);
},
{
closed = 0;
nodes = (
(400,100,l,{
name = shadowColor;
}),
(100,100,l,{
name = frontTopColor;
})
);
}
);
width = 600;
},
{
associatedMasterId = m01;
layerId = "DFD2A5D6-4187-451E-95AC-3E30735C3137";
name = highlightColor;
shapes = (
{
closed = 0;
nodes = (
(300,500,l),
(200,500,ls),
(147,500,o),
(100,453,o),
(100,400,cs),
(100,270,ls)
);
},
{
closed = 0;
nodes = (
(500,500,l),
(400,500,l),
(400,450,l)
);
},
{
closed = 0;
nodes = (
(400,210,l),
(400,100,l),
(100,100,l),
(100,0,l)
);
},
{
closed = 0;
nodes = (
(400,390,l),
(400,270,l),
(200,270,l)
);
}
);
width = 600;
}
);
metricLeft = o;
metricRight = q;
unicode = 103;
},
{
color = 4;
glyphname = h;
kernLeft = H;
kernRight = n;
layers = (
{
layerId = m01;
shapes = (
{
pos = (100,100);
ref = _part.square;
},
{
pos = (100,400);
ref = _part.square;
},
{
pos = (300,440);
ref = _part.square;
},
{
pos = (400,300);
ref = _part.square;
},
{
pos = (400,440);
ref = _part.corner;
},
{
pos = (100,0);
ref = _part.square;
},
{
pos = (400,0);
ref = _part.square;
},
{
pos = (100,200);
ref = _part.square;
},
{
pos = (100,300);
ref = _part.square;
},
{
pos = (400,100);
ref = _part.square;
},
{
pos = (400,200);
ref = _part.square;
},
{
pos = (300,440);
ref = _part.corner;
scale = (-1,1);
},
{
pos = (100,500);
ref = _part.square;
},
{
pos = (100,600);
ref = _part.square;
},
{
pos = (400,340);
ref = _part.square;
}
);
width = 600;
},
{
associatedMasterId = m01;
layerId = "EF4CD8A5-44F0-42CA-817E-7E457F5D4280";
name = side;
shapes = (
{
closed = 0;
nodes = (
(100,700,l,{
name = shadowColor;
}),
(100,0,l,{
name = shadowBottomColor;
})
);
},
{
closed = 0;
nodes = (
(400,440,l,{
name = shadowBottomColor;
}),
(400,0,l,{
name = shadowColor;
})
);
}
);
width = 600;
},
{
associatedMasterId = m01;
layerId = "D471E385-7E1A-4CA8-AFDD-FBF0C0B281C0";
name = top;
shapes = (
{
closed = 0;
nodes = (
(200,700,l,{
name = topColor;
}),
(100,700,l,{
name = topColor;
})
);
},
{
closed = 0;
nodes = (
(400,540,l,{
name = topColor;
}),
(300,540,ls,{
name = topColor;
}),
(247,540,o),
(200,493,o),
(200,440,c,{
name = shadowColor;
})
);
}
);
width = 600;
},
{
associatedMasterId = m01;
layerId = "5B2B23CC-EC7D-48C4-8D75-713AC75E9C20";
name = highlightColor;
shapes = (
{
closed = 0;
nodes = (
(200,700,l),
(100,700,l),
(100,100,l)
);
},
{
closed = 0;
nodes = (
(400,540,l),
(300,540,ls),
(250,540,o),
(200,490,o),
(200,440,c)
);
}
);
width = 600;
}
);
metricLeft = H;
metricRight = n;
unicode = 104;
},
{
color = 1;
glyphname = i;
kernLeft = n;
kernRight = n;
layers = (
{
layerId = m01;
shapes = (
{
pos = (250,200);
ref = _part.square;
scale = (1,-1);
},
{
pos = (250,200);
ref = _part.square;
},
{
pos = (250,300);
ref = _part.square;
},
{
pos = (250,0);
ref = _part.square;
},
{
pos = (250,500);
ref = _part.circle;
},
{
pos = (250,400);
ref = _part.square;
},
{
angle = 180;
pos = (450,500);
ref = _part.square;
},
{
pos = (450,0);
ref = _part.square;
scale = (-1,1);
},
{
pos = (250,400);
ref = _part.square;
scale = (-1,1);
},
{
pos = (250,0);
ref = _part.square;
scale = (-1,1);
},
{
angle = 180;
pos = (500,500);
ref = _part.square;
},
{
pos = (500,0);
ref = _part.square;
scale = (-1,1);
},
{
pos = (200,400);
ref = _part.square;
scale = (-1,1);
},
{
pos = (200,0);
ref = _part.square;
scale = (-1,1);
}
);
width = 600;
},
{
associatedMasterId = m01;
layerId = "5E32F3AA-F429-4284-AD9F-34B372F5AD22";
name = side;
shapes = (
{
closed = 0;
nodes = (
(100,500,l,{
name = shadowColor;
}),
(100,400,l,{
name = shadowColor;
})
);
},
{
closed = 0;
nodes = (
(250,400,l,{
name = shadowBottomColor;
}),
(250,100,l,{
name = shadowColor;
})
);
},
{
closed = 0;
nodes = (
(100,100,l,{
name = shadowColor;
}),
(100,0,l,{
name = shadowBottomColor;
})
);
}
);
width = 600;
},
{
associatedMasterId = m01;
layerId = "A8CDABEE-8FA1-469D-8FDB-9C3A39F2D284";
name = top;
shapes = (
{
closed = 0;
nodes = (
(500,500,l,{
name = topColor;
}),
(100,500,l,{
name = topColor;
})
);
},
{
closed = 0;
nodes = (
(500,100,l,{
name = frontTopColor;
}),
(340,100,l,{
name = shadowColor;
})
);
},
{
closed = 0;
nodes = (
(290,100,l,{
name = shadowColor;
}),
(100,100,l,{
name = frontTopColor;
})
);
}
);
width = 600;
},
{
associatedMasterId = m01;
layerId = "4484B361-992A-4A21-B915-CE8A0545BB7F";
name = highlightColor;
shapes = (
{
closed = 0;
nodes = (
(500,500,l),
(100,500,l),
(100,400,l)
);
},
{
closed = 0;
nodes = (
(250,400,l,{
name = "";
}),
(250,100,l,{
name = "";
}),
(100,100,l)
);
}
);
width = 600;
}
);
metricLeft = n;
metricRight = n;
unicode = 105;
},
{
color = 1;
glyphname = ij;
kernLeft = n;
kernRight = n;
layers = (
{
layerId = m01;
shapes = (
{
pos = (100,300);
ref = _part.square;
},
{
pos = (100,400);
ref = _part.square;
},
{
pos = (100,200);
ref = _part.square;
},
{
pos = (100,500);
ref = _part.circle;
},
{
pos = (400,300);
ref = _part.square;
},
{
pos = (400,400);
ref = _part.square;
},
{
pos = (400,200);
ref = _part.square;
},
{
pos = (400,500);
ref = _part.circle;
},
{
pos = (400,100);
ref = _part.corner;
scale = (1,-1);
},
{
pos = (400,100);
ref = _part.square;
},
{
pos = (300,0);
ref = _part.square;
},
{
pos = (300,400);
ref = _part.square;
},
{
pos = (200,0);
ref = _part.square;
},
{
pos = (100,0);
ref = _part.square;
}
);
width = 600;
},
{
associatedMasterId = m01;
layerId = "48A0978C-F69A-400B-B8C3-50D5E3F63DFC";
name = side;
shapes = (
{
closed = 0;
nodes = (
(100,500,l,{
name = shadowColor;
}),
(100,200,l,{
name = shadowBottomColor;
})
);
},
{
closed = 0;
nodes = (
(300,500,l,{
name = shadowColor;
}),
(300,400,l,{
name = shadowColor;
})
);
},
{
closed = 0;
nodes = (
(400,400,l,{
name = shadowBottomColor;
}),
(400,100,l,{
name = shadowColor;
})
);
},
{
closed = 0;
nodes = (
(100,100,l,{
name = shadowColor;
}),
(100,0,l,{
name = shadowBottomColor;
})
);
}
);
width = 600;
},
{
associatedMasterId = m01;
layerId = "3DEA3837-6C86-4C8A-916B-06C9C56AE241";
name = top;
shapes = (
{
closed = 0;
nodes = (
(200,500,l,{
name = topColor;
}),
(100,500,l,{
name = topColor;
})
);
},
{
closed = 0;
nodes = (
(500,500,l,{
name = topColor;
}),
(300,500,l,{
name = topColor;
})
);
},
{
closed = 0;
nodes = (
(450,100,l,{
name = shadowColor;
}),
(100,100,l,{
name = frontTopColor;
})
);
}
);
width = 600;
},
{
associatedMasterId = m01;
layerId = "8671950D-7773-4F06-97E4-5D2A66524741";
name = highlightColor;
shapes = (
{
closed = 0;
nodes = (
(200,500,l),
(100,500,l),
(100,260,l)
);
},
{
closed = 0;
nodes = (
(500,500,l),
(300,500,l),
(300,400,l)
);
},
{
closed = 0;
nodes = (
(400,100,l),
(100,100,l),
(100,0,l)
);
}
);
width = 600;
}
);
metricLeft = n;
metricRight = q;
unicode = 307;
},
{
color = 1;
glyphname = j;
kernLeft = n;
kernRight = n;
layers = (
{
layerId = m01;
shapes = (
{
pos = (300,300);
ref = _part.square;
},
{
pos = (300,400);
ref = _part.square;
},
{
pos = (300,200);
ref = _part.square;
},
{
pos = (300,500);
ref = _part.circle;
},
{
pos = (300,100);
ref = _part.corner;
scale = (1,-1);
},
{
pos = (300,100);
ref = _part.square;
},
{
pos = (200,0);
ref = _part.square;
},
{
pos = (200,400);
ref = _part.square;
},
{
pos = (100,0);
ref = _part.square;
},
{
pos = (100,400);
ref = _part.square;
}
);
width = 500;
},
{
associatedMasterId = m01;
layerId = "956EFE3C-B0B2-4905-9155-B66F36235172";
name = side;
shapes = (
{
closed = 0;
nodes = (
(100,500,l,{
name = shadowColor;
}),
(100,400,l,{
name = shadowColor;
})
);
},
{
closed = 0;
nodes = (
(300,400,l,{
name = shadowBottomColor;
}),
(300,100,l,{
name = shadowColor;
})
);
},
{
closed = 0;
nodes = (
(100,100,l,{
name = shadowColor;
}),
(100,0,l,{
name = shadowBottomColor;
})
);
}
);
width = 500;
},
{
associatedMasterId = m01;
layerId = "6CA2E20D-EB19-4BA7-958F-501780D32F85";
name = top;
shapes = (
{
closed = 0;
nodes = (
(400,500,l,{
name = topColor;
}),
(100,500,l,{
name = topColor;
})
);
},
{
closed = 0;
nodes = (
(360,100,l,{
name = shadowColor;
}),
(100,100,l,{
name = frontBottomColor;
})
);
}
);
width = 500;
},
{
associatedMasterId = m01;
layerId = "8D7E740C-9ECA-4FFA-9998-805590FD6B3D";
name = highlightColor;
shapes = (
{
closed = 0;
nodes = (
(300,400,l),
(300,100,l),
(100,100,l),
(100,0,l)
);
},
{
closed = 0;
nodes = (
(400,500,l),
(100,500,l),
(100,400,l)
);
}
);
width = 500;
}
);
metricLeft = n;
metricRight = q;
unicode = 106;
},
{
color = 4;
glyphname = k;
kernLeft = H;
kernRight = n;
layers = (
{
layerId = m01;
shapes = (
{
pos = (100,0);
ref = _part.square;
},
{
pos = (100,100);
ref = _part.square;
},
{
pos = (100,200);
ref = _part.square;
},
{
pos = (100,300);
ref = _part.square;
},
{
pos = (100,400);
ref = _part.square;
},
{
pos = (300,200);
ref = _part.square;
scale = (-1,1);
},
{
pos = (300,200);
ref = _part.square;
},
{
pos = (100,500);
ref = _part.square;
},
{
pos = (100,600);
ref = _part.square;
},
{
pos = (400,100);
ref = _part.square;
scale = (1,-1);
},
{
pos = (400,100);
ref = _part.square;
},
{
pos = (400,200);
ref = _part.corner;
},
{
pos = (400,400);
ref = _part.corner;
scale = (1,-1);
},
{
pos = (400,400);
ref = _part.square;
}
);
width = 600;
},
{
associatedMasterId = m01;
layerId = "D0B6CC77-D3DF-455D-B33E-D0D0C1C3CC1B";
name = side;
shapes = (
{
closed = 0;
nodes = (
(400,500,l,{
name = shadowColor;
}),
(400,300,l,{
name = shadowBottomColor;
})
);
},
{
closed = 0;
nodes = (
(400,200,l,{
name = shadowBottomColor;
}),
(400,0,l,{
name = shadowColor;
})
);
},
{
closed = 0;
nodes = (
(100,700,l,{
name = shadowColor;
}),
(100,0,l,{
name = shadowBottomColor;
})
);
}
);
width = 600;
},
{
associatedMasterId = m01;
layerId = "958E917D-927D-43AA-8FA3-5FD1313A456D";
name = top;
shapes = (
{
closed = 0;
nodes = (
(500,500,l,{
name = topColor;
}),
(400,500,l,{
name = topColor;
})
);
},
{
closed = 0;
nodes = (
(200,700,l,{
name = topColor;
}),
(100,700,l,{
name = topColor;
})
);
},
{
closed = 0;
nodes = (
(460,300,l,{
name = frontTopColor;
}),
(200,300,l,{
name = shadowColor;
})
);
}
);
width = 600;
},
{
associatedMasterId = m01;
layerId = "F914C2F2-C23F-4FC2-9733-3E500F49B676";
name = highlightColor;
shapes = (
{
closed = 0;
nodes = (
(500,500,l),
(400,500,l),
(400,300,l),
(200,300,l)
);
},
{
closed = 0;
nodes = (
(200,700,l),
(100,700,l),
(100,100,l)
);
}
);
width = 600;
}
);
metricLeft = H;
metricRight = n;
unicode = 107;
},
{
color = 4;
glyphname = l;
kernLeft = H;
kernRight = l;
layers = (
{
layerId = m01;
shapes = (
{
angle = 180;
pos = (200,60);
ref = _part.corner;
},
{
pos = (100,100);
ref = _part.square;
},
{
pos = (100,200);
ref = _part.square;
},
{
pos = (100,300);
ref = _part.square;
},
{
pos = (100,400);
ref = _part.square;
},
{
pos = (100,500);
ref = _part.square;
},
{
pos = (200,600);
ref = _part.square;
scale = (-1,1);
},
{
pos = (200,-40);
ref = _part.square;
},
{
pos = (100,60);
ref = _part.square;
},
{
pos = (250,-40);
ref = _part.square;
}
);
width = 450;
},
{
associatedMasterId = m01;
layerId = "83AB3AEA-381B-40EA-BA14-44C7B02B275A";
name = side;
shapes = (
{
closed = 0;
nodes = (
(100,700,l,{
name = shadowColor;
}),
(100,60,ls,{
name = shadowBottomColor;
})
);
}
);
width = 450;
},
{
associatedMasterId = m01;
layerId = "9E65DB83-4ADF-45B6-89AE-009635F4CDC6";
name = top;
shapes = (
{
closed = 0;
nodes = (
(200,700,l,{
name = topColor;
}),
(100,700,l,{
name = topColor;
})
);
},
{
closed = 0;
nodes = (
(350,60,l,{
name = frontTopColor;
}),
(150,60,l,{
name = shadowColor;
})
);
}
);
width = 450;
},
{
associatedMasterId = m01;
layerId = "617AFD1B-2122-43E8-9D84-42B018AD2A22";
name = highlightColor;
shapes = (
{
closed = 0;
nodes = (
(200,700,l),
(100,700,l),
(100,60,ls)
);
},
{
closed = 0;
nodes = (
(350,60,l),
(280,60,l),
(200,60,l)
);
}
);
width = 450;
}
);
metricLeft = H;
unicode = 108;
},
{
color = 4;
glyphname = m;
kernLeft = n;
kernRight = n;
layers = (
{
layerId = m01;
shapes = (
{
pos = (100,100);
ref = _part.square;
},
{
pos = (100,440);
ref = _part.square;
},
{
pos = (330,300);
ref = _part.square;
},
{
pos = (330,440);
ref = _part.corner;
},
{
pos = (100,0);
ref = _part.square;
},
{
pos = (330,0);
ref = _part.square;
},
{
pos = (100,200);
ref = _part.square;
},
{
pos = (100,300);
ref = _part.square;
},
{
pos = (330,100);
ref = _part.square;
},
{
pos = (330,200);
ref = _part.square;
},
{
pos = (300,440);
ref = _part.corner;
scale = (-1,1);
},
{
pos = (560,300);
ref = _part.square;
},
{
pos = (560,440);
ref = _part.corner;
},
{
pos = (560,0);
ref = _part.square;
},
{
pos = (560,100);
ref = _part.square;
},
{
pos = (560,200);
ref = _part.square;
},
{
pos = (530,440);
ref = _part.corner;
scale = (-1,1);
},
{
pos = (330,340);
ref = _part.square;
},
{
pos = (100,340);
ref = _part.square;
},
{
pos = (560,340);
ref = _part.square;
},
{
pos = (300,440);
ref = _part.square;
scale = (0.2,1);
},
{
pos = (530,440);
ref = _part.square;
scale = (0.2,1);
},
{
pos = (550,440);
ref = _part.square;
scale = (0.1,1);
},
{
pos = (320,440);
ref = _part.square;
scale = (0.1,1);
}
);
width = 760;
},
{
associatedMasterId = m01;
layerId = "E4B0C64F-CFC3-4F6D-980D-6BBB5BCB54D8";
name = side;
shapes = (
{
closed = 0;
nodes = (
(100,540,l,{
name = shadowColor;
}),
(100,0,l,{
name = shadowBottomColor;
})
);
},
{
closed = 0;
nodes = (
(560,440,l,{
name = shadowBottomColor;
}),
(560,0,l,{
name = shadowColor;
})
);
},
{
closed = 0;
nodes = (
(330,440,l,{
name = shadowBottomColor;
}),
(330,0,l,{
name = shadowColor;
})
);
}
);
width = 760;
},
{
associatedMasterId = m01;
layerId = "7540BD79-8BCA-4421-806B-7BF3DDE4ED7B";
name = top;
shapes = (
{
closed = 0;
nodes = (
(200,540,l,{
name = topColor;
}),
(100,540,l,{
name = topColor;
})
);
},
{
closed = 0;
nodes = (
(330,540,l,{
name = topColor;
}),
(300,540,ls,{
name = topColor;
}),
(247,540,o),
(200,493,o),
(200,440,c,{
name = shadowColor;
})
);
},
{
closed = 0;
nodes = (
(560,540,l,{
name = topColor;
}),
(530,540,ls,{
name = topColor;
}),
(477,540,o),
(430,493,o),
(430,440,c,{
name = shadowColor;
})
);
}
);
width = 760;
},
{
associatedMasterId = m01;
layerId = "32F825D2-DCC6-46B5-9F1E-7850447AF42E";
name = highlightColor;
shapes = (
{
closed = 0;
nodes = (
(200,540,l),
(100,540,l),
(100,100,l)
);
},
{
closed = 0;
nodes = (
(560,540,l),
(530,540,ls),
(477,540,o),
(430,493,o),
(430,440,c)
);
},
{
closed = 0;
nodes = (
(330,540,l),
(300,540,ls),
(247,540,o),
(200,493,o),
(200,440,c)
);
}
);
width = 760;
}
);
metricLeft = n;
metricRight = n;
unicode = 109;
},
{
color = 4;
glyphname = n;
kernLeft = n;
kernRight = n;
layers = (
{
layerId = m01;
shapes = (
{
pos = (100,100);
ref = _part.square;
},
{
pos = (100,440);
ref = _part.square;
},
{
pos = (300,440);
ref = _part.square;
},
{
pos = (400,300);
ref = _part.square;
},
{
pos = (400,440);
ref = _part.corner;
},
{
pos = (100,0);
ref = _part.square;
},
{
pos = (400,0);
ref = _part.square;
},
{
pos = (100,200);
ref = _part.square;
},
{
pos = (100,300);
ref = _part.square;
},
{
pos = (400,100);
ref = _part.square;
},
{
pos = (400,200);
ref = _part.square;
},
{
pos = (300,440);
ref = _part.corner;
scale = (-1,1);
},
{
pos = (400,340);
ref = _part.square;
},
{
pos = (100,340);
ref = _part.square;
}
);
width = 600;
},
{
associatedMasterId = m01;
layerId = "C77E4294-CE00-4D44-A737-913D441E1C56";
name = side;
shapes = (
{
closed = 0;
nodes = (
(100,540,l,{
name = shadowColor;
}),
(100,0,l,{
name = shadowBottomColor;
})
);
},
{
closed = 0;
nodes = (
(400,440,l,{
name = shadowBottomColor;
}),
(400,0,l,{
name = shadowColor;
})
);
}
);
width = 600;
},
{
associatedMasterId = m01;
layerId = "84C1B048-76CB-40BC-85F1-91379627EE03";
name = top;
shapes = (
{
closed = 0;
nodes = (
(200,540,l,{
name = topColor;
}),
(100,540,l,{
name = topColor;
})
);
},
{
closed = 0;
nodes = (
(400,540,l,{
name = topColor;
}),
(300,540,ls,{
name = topColor;
}),
(247,540,o),
(200,493,o),
(200,440,c,{
name = shadowColor;
})
);
}
);
width = 600;
},
{
associatedMasterId = m01;
layerId = "2F2DE47C-05B2-42A3-A57E-08F2877D3FD0";
name = highlightColor;
shapes = (
{
closed = 0;
nodes = (
(200,540,l),
(100,540,l),
(100,100,l)
);
},
{
closed = 0;
nodes = (
(400,540,l),
(300,540,ls),
(247,540,o),
(200,493,o),
(200,440,c)
);
}
);
width = 600;
}
);
unicode = 110;
},
{
color = 4;
glyphname = eng;
kernLeft = n;
kernRight = n;
layers = (
{
layerId = m01;
shapes = (
{
pos = (400,-100);
ref = _part.square;
},
{
pos = (300,-200);
ref = _part.square;
},
{
pos = (400,-100);
ref = _part.corner;
scale = (1,-1);
},
{
ref = n;
}
);
width = 600;
},
{
associatedMasterId = m01;
layerId = "89486CB9-1070-4773-A2AC-E91339E07433";
name = side;
shapes = (
{
closed = 0;
nodes = (
(100,540,l,{
name = shadowColor;
}),
(100,0,l,{
name = shadowBottomColor;
})
);
},
{
closed = 0;
nodes = (
(300,-100,l,{
name = shadowBottomColor;
}),
(300,-200,l,{
name = shadowBottomColor;
})
);
},
{
closed = 0;
nodes = (
(400,440,l,{
name = shadowBottomColor;
}),
(400,-100,l,{
name = shadowColor;
})
);
}
);
width = 600;
},
{
associatedMasterId = m01;
layerId = "6D315217-56B2-4054-BECC-277554767DAF";
name = top;
shapes = (
{
closed = 0;
nodes = (
(450,-100,l,{
name = shadowBottomColor;
}),
(300,-100,l,{
name = shadowColor;
})
);
},
{
closed = 0;
nodes = (
(200,540,l,{
name = topColor;
}),
(100,540,l,{
name = topColor;
})
);
},
{
closed = 0;
nodes = (
(400,540,l,{
name = topColor;
}),
(300,540,ls,{
name = topColor;
}),
(247,540,o),
(200,493,o),
(200,440,c,{
name = shadowColor;
})
);
}
);
width = 600;
},
{
associatedMasterId = m01;
layerId = "36DB5D21-749B-49A9-9903-50B26C6051AD";
name = highlightColor;
shapes = (
{
closed = 0;
nodes = (
(400,-100,l),
(300,-100,l),
(300,-200,l)
);
},
{
closed = 0;
nodes = (
(200,540,l),
(100,540,l),
(100,0,l)
);
},
{
closed = 0;
nodes = (
(400,540,l),
(300,540,ls),
(247,540,o),
(200,493,o),
(200,440,c)
);
}
);
width = 600;
}
);
metricLeft = n;
metricRight = n;
unicode = 331;
},
{
color = 4;
glyphname = o;
kernLeft = o;
kernRight = o;
layers = (
{
layerId = m01;
shapes = (
{
angle = 180;
pos = (200,60);
ref = _part.corner;
},
{
pos = (100,100);
ref = _part.square;
},
{
pos = (200,440);
ref = _part.corner;
scale = (-1,1);
},
{
pos = (200,440);
ref = _part.square;
},
{
pos = (300,440);
ref = _part.square;
},
{
pos = (400,60);
ref = _part.corner;
scale = (1,-1);
},
{
pos = (400,300);
ref = _part.square;
},
{
pos = (400,440);
ref = _part.corner;
},
{
pos = (200,-40);
ref = _part.square;
},
{
pos = (300,-40);
ref = _part.square;
},
{
pos = (100,200);
ref = _part.square;
},
{
pos = (100,300);
ref = _part.square;
},
{
pos = (400,100);
ref = _part.square;
},
{
pos = (400,200);
ref = _part.square;
},
{
pos = (100,60);
ref = _part.square;
},
{
pos = (400,60);
ref = _part.square;
},
{
pos = (400,340);
ref = _part.square;
},
{
pos = (100,340);
ref = _part.square;
}
);
width = 600;
},
{
associatedMasterId = m01;
layerId = "29DF8672-4DCD-4A9C-872D-60C448098C90";
name = side;
shapes = (
{
closed = 0;
nodes = (
(200,540,l,{
name = topColor;
}),
(147,540,o),
(100,493,o),
(100,440,cs,{
name = shadowColor;
}),
(100,60,l,{
name = shadowBottomColor;
})
);
},
{
closed = 0;
nodes = (
(400,440,l,{
name = shadowBottomColor;
}),
(400,60,l,{
name = shadowColor;
})
);
}
);
width = 600;
},
{
associatedMasterId = m01;
layerId = "D63B977E-27F9-417C-9E4D-E25A74EBA735";
name = top;
shapes = (
{
closed = 0;
nodes = (
(500,440,l,{
name = topColor;
}),
(500,493,o,{
name = topColor;
}),
(453,540,o,{
name = topColor;
}),
(400,540,cs,{
name = topColor;
}),
(200,540,l,{
name = topColor;
})
);
},
{
closed = 0;
nodes = (
(400,60,l,{
name = frontTopColor;
}),
(170,60,l,{
name = shadowColor;
})
);
}
);
width = 600;
},
{
associatedMasterId = m01;
layerId = "FB56B908-525B-463D-B56D-BC352D559B71";
name = highlightColor;
shapes = (
{
closed = 0;
nodes = (
(400,540,l),
(200,540,ls),
(147,540,o),
(100,493,o),
(100,440,cs),
(100,60,l)
);
},
{
closed = 0;
nodes = (
(400,440,l),
(400,60,l),
(200,60,l)
);
}
);
width = 600;
}
);
unicode = 111;
},
{
color = 4;
glyphname = oslash;
kernLeft = o;
kernRight = o;
layers = (
{
layerId = m01;
shapes = (
{
pos = (200,400);
ref = _part.corner;
scale = (-1,1);
},
{
angle = 180;
pos = (200,200);
ref = _part.corner;
},
{
pos = (100,200);
ref = _part.square;
},
{
pos = (100,300);
ref = _part.square;
},
{
pos = (200,400);
ref = _part.corner;
},
{
pos = (400,100);
ref = _part.square;
},
{
pos = (400,200);
ref = _part.square;
},
{
pos = (400,300);
ref = _part.corner;
},
{
angle = 180;
pos = (400,100);
ref = _part.corner;
},
{
pos = (400,100);
ref = _part.corner;
scale = (1,-1);
},
{
pos = (200,100);
ref = _part.corner;
scale = (1,-1);
},
{
pos = (400,400);
ref = _part.corner;
scale = (-1,1);
},
{
pos = (100,100);
ref = _part.square;
scale = (1,-1);
},
{
pos = (500,400);
ref = _part.square;
scale = (-1,1);
}
);
width = 600;
},
{
associatedMasterId = m01;
layerId = "68129A07-64E3-4A01-9572-7A2CE00C8AC4";
name = side;
shapes = (
{
closed = 0;
nodes = (
(200,500,l,{
name = topColor;
}),
(147,500,o),
(100,453,o),
(100,400,cs,{
name = shadowColor;
}),
(100,200,l,{
name = shadowBottomColor;
})
);
},
{
closed = 0;
nodes = (
(100,100,l,{
name = shadowColor;
}),
(100,0,l,{
name = shadowBottomColor;
})
);
},
{
closed = 0;
nodes = (
(400,400,l,{
name = shadowBottomColor;
}),
(400,100,l,{
name = shadowColor;
})
);
}
);
width = 600;
},
{
associatedMasterId = m01;
layerId = "DAF876B4-A7E5-4BB7-9399-5CE9F3475ADE";
name = top;
shapes = (
{
closed = 0;
nodes = (
(290,100,l,{
name = shadowColor;
}),
(100,100,l,{
name = shadowColor;
})
);
},
{
closed = 0;
nodes = (
(500,500,l,{
name = topColor;
}),
(400,500,ls,{
name = topColor;
}),
(347,500,o),
(300,453,o),
(300,400,c,{
name = shadowColor;
})
);
},
{
closed = 0;
nodes = (
(490,100,l,{
name = frontTopColor;
}),
(300,100,l,{
name = shadowColor;
})
);
}
);
width = 600;
},
{
associatedMasterId = m01;
layerId = "99A5434F-1134-4217-96AB-FD94200BF60D";
name = highlightColor;
shapes = (
{
closed = 0;
nodes = (
(200,500,l),
(147,500,o),
(100,453,o),
(100,400,cs),
(100,200,ls)
);
},
{
closed = 0;
nodes = (
(400,400,l),
(400,100,l),
(250,100,l)
);
},
{
closed = 0;
nodes = (
(200,100,l),
(100,100,l),
(100,0,l)
);
},
{
closed = 0;
nodes = (
(500,500,l),
(400,500,ls),
(347,500,o),
(300,453,o),
(300,400,c)
);
}
);
width = 600;
}
);
metricLeft = o;
metricRight = o;
unicode = 248;
},
{
color = 4;
glyphname = oe;
kernLeft = o;
kernRight = n;
layers = (
{
layerId = m01;
shapes = (
{
angle = 180;
pos = (200,60);
ref = _part.corner;
},
{
pos = (100,100);
ref = _part.square;
},
{
pos = (200,400);
ref = _part.corner;
scale = (-1,1);
},
{
pos = (200,400);
ref = _part.square;
},
{
pos = (300,300);
ref = _part.square;
},
{
pos = (300,400);
ref = _part.corner;
},
{
pos = (200,60);
ref = _part.corner;
scale = (1,-1);
},
{
pos = (100,200);
ref = _part.square;
},
{
pos = (100,300);
ref = _part.square;
},
{
pos = (300,100);
ref = _part.square;
},
{
pos = (300,200);
ref = _part.square;
},
{
angle = 180;
pos = (500,280);
ref = _part.square;
},
{
pos = (500,400);
ref = _part.corner;
scale = (-1,1);
},
{
pos = (500,180);
ref = _part.square;
},
{
pos = (500,400);
ref = _part.square;
},
{
pos = (600,280);
ref = _part.corner;
scale = (1,-1);
},
{
pos = (600,280);
ref = _part.square;
},
{
pos = (600,400);
ref = _part.corner;
},
{
angle = 180;
pos = (400,60);
ref = _part.corner;
},
{
pos = (400,-40);
ref = _part.square;
},
{
pos = (500,-40);
ref = _part.square;
},
{
pos = (600,-40);
ref = _part.square;
},
{
pos = (100,60);
ref = _part.square;
},
{
pos = (300,60);
ref = _part.square;
},
{
pos = (600,300);
ref = _part.square;
}
);
width = 800;
},
{
associatedMasterId = m01;
layerId = "53AC5529-7168-46BB-9582-C6CB0FF6C86C";
name = side;
shapes = (
{
closed = 0;
nodes = (
(600,400,l,{
name = shadowBottomColor;
}),
(600,280,l,{
name = shadowColor;
})
);
},
{
closed = 0;
nodes = (
(300,500,l,{
name = topColor;
}),
(200,500,ls,{
name = topColor;
}),
(147,500,o),
(100,453,o),
(100,400,cs,{
name = shadowColor;
}),
(100,60,l,{
name = shadowBottomColor;
})
);
},
{
closed = 0;
nodes = (
(300,400,l,{
name = shadowBottomColor;
}),
(300,60,ls,{
name = shadowColor;
})
);
}
);
width = 800;
},
{
associatedMasterId = m01;
layerId = "7FE0503C-E575-4B3E-A07D-49B362D183E7";
name = top;
shapes = (
{
closed = 0;
nodes = (
(760,60,l,{
name = frontTopColor;
}),
(400,60,l,{
name = shadowColor;
})
);
},
{
closed = 0;
nodes = (
(660,280,l,{
name = frontTopColor;
}),
(400,280,l,{
name = shadowColor;
})
);
},
{
closed = 0;
nodes = (
(600,500,l,{
name = topColor;
}),
(500,500,ls,{
name = topColor;
}),
(447,500,o),
(400,453,o),
(400,400,c,{
name = shadowColor;
})
);
},
{
closed = 0;
nodes = (
(350,60,l,{
name = frontTopColor;
}),
(200,60,l,{
name = shadowColor;
})
);
}
);
width = 800;
},
{
associatedMasterId = m01;
layerId = "1F8042F6-201E-46A5-932A-F20A6C241077";
name = highlightColor;
shapes = (
{
closed = 0;
nodes = (
(600,500,l),
(500,500,ls),
(447,500,o),
(400,453,o),
(400,400,c)
);
},
{
closed = 0;
nodes = (
(700,60,l),
(540,60,l),
(400,60,l)
);
},
{
closed = 0;
nodes = (
(300,400,l),
(300,60,l),
(200,60,l)
);
},
{
closed = 0;
nodes = (
(600,400,l),
(600,280,l),
(400,280,l)
);
},
{
closed = 0;
nodes = (
(300,500,l),
(200,500,ls),
(147,500,o),
(100,453,o),
(100,400,cs),
(100,60,l)
);
}
);
width = 800;
}
);
metricLeft = n;
metricRight = n;
unicode = 339;
},
{
color = 4;
glyphname = p;
kernLeft = n;
kernRight = o;
layers = (
{
layerId = m01;
shapes = (
{
pos = (100,0);
ref = _part.square;
},
{
pos = (100,100);
ref = _part.square;
},
{
pos = (100,200);
ref = _part.square;
},
{
angle = 180;
pos = (300,200);
ref = _part.square;
},
{
pos = (300,100);
ref = _part.square;
},
{
pos = (300,440);
ref = _part.corner;
scale = (-1,1);
},
{
pos = (300,440);
ref = _part.square;
},
{
pos = (100,300);
ref = _part.square;
},
{
pos = (100,440);
ref = _part.square;
},
{
pos = (400,200);
ref = _part.corner;
scale = (1,-1);
},
{
pos = (400,200);
ref = _part.square;
},
{
pos = (400,440);
ref = _part.corner;
},
{
pos = (400,300);
ref = _part.square;
},
{
pos = (100,340);
ref = _part.square;
},
{
pos = (400,340);
ref = _part.square;
}
);
width = 600;
},
{
associatedMasterId = m01;
layerId = "2CEC59BD-CB68-4999-B6E5-2D60C55E82A8";
name = side;
shapes = (
{
closed = 0;
nodes = (
(300,540,l,{
name = topColor;
}),
(247,540,o),
(200,493,o),
(200,440,c,{
name = shadowColor;
})
);
},
{
closed = 0;
nodes = (
(100,540,l,{
name = shadowColor;
}),
(100,0,l,{
name = shadowBottomColor;
})
);
},
{
closed = 0;
nodes = (
(400,440,l,{
name = shadowBottomColor;
}),
(400,200,l,{
name = shadowColor;
})
);
}
);
width = 600;
},
{
associatedMasterId = m01;
layerId = "7343A2ED-6493-41CF-9511-5E8E697B36DF";
name = top;
shapes = (
{
closed = 0;
nodes = (
(500,440,l,{
name = topColor;
}),
(500,493,o),
(453,540,o),
(400,540,cs,{
name = topColor;
}),
(300,540,ls,{
name = topColor;
})
);
},
{
closed = 0;
nodes = (
(200,540,l,{
name = topColor;
}),
(100,540,l,{
name = topColor;
})
);
},
{
closed = 0;
nodes = (
(400,200,l,{
name = frontTopColor;
}),
(170,200,l,{
name = shadowColor;
})
);
}
);
width = 600;
},
{
associatedMasterId = m01;
layerId = "1BAD2CCC-F4C1-4471-A1B0-72D6C1DCF427";
name = highlightColor;
shapes = (
{
closed = 0;
nodes = (
(400,440,l),
(400,200,l),
(200,200,l)
);
},
{
closed = 0;
nodes = (
(400,540,l),
(300,540,ls),
(247,540,o),
(200,493,o),
(200,440,c)
);
},
{
closed = 0;
nodes = (
(200,540,l),
(100,540,l),
(100,100,l)
);
}
);
width = 600;
}
);
metricLeft = H;
metricRight = o;
unicode = 112;
},
{
color = 4;
glyphname = thorn;
kernLeft = H;
kernRight = o;
layers = (
{
layerId = m01;
shapes = (
{
pos = (100,0);
ref = _part.square;
},
{
pos = (100,100);
ref = _part.square;
},
{
pos = (100,200);
ref = _part.square;
},
{
angle = 180;
pos = (300,200);
ref = _part.square;
},
{
pos = (300,100);
ref = _part.square;
},
{
pos = (300,440);
ref = _part.corner;
scale = (-1,1);
},
{
pos = (300,440);
ref = _part.square;
},
{
pos = (100,300);
ref = _part.square;
},
{
pos = (100,400);
ref = _part.square;
},
{
pos = (400,200);
ref = _part.corner;
scale = (1,-1);
},
{
pos = (400,200);
ref = _part.square;
},
{
pos = (400,300);
ref = _part.square;
},
{
pos = (400,440);
ref = _part.corner;
},
{
pos = (100,500);
ref = _part.square;
},
{
pos = (100,600);
ref = _part.square;
},
{
pos = (400,340);
ref = _part.square;
}
);
width = 600;
},
{
associatedMasterId = m01;
layerId = "DFCA2DE1-1664-4120-A0E8-C67BDCFD5D12";
name = side;
shapes = (
{
closed = 0;
nodes = (
(100,700,l,{
name = shadowColor;
}),
(100,0,l,{
name = shadowBottomColor;
})
);
},
{
closed = 0;
nodes = (
(400,440,l,{
name = shadowBottomColor;
}),
(400,200,l,{
name = shadowColor;
})
);
}
);
width = 600;
},
{
associatedMasterId = m01;
layerId = "3E9D9123-9A00-4856-80DA-C9B430BC6A87";
name = top;
shapes = (
{
closed = 0;
nodes = (
(400,540,l,{
name = topColor;
}),
(300,540,ls,{
name = topColor;
}),
(247,540,o),
(200,493,o),
(200,440,c,{
name = shadowColor;
})
);
},
{
closed = 0;
nodes = (
(200,700,l,{
name = topColor;
}),
(100,700,l,{
name = topColor;
})
);
},
{
closed = 0;
nodes = (
(440,200,l,{
name = frontTopColor;
}),
(200,200,l,{
name = shadowColor;
})
);
}
);
width = 600;
},
{
associatedMasterId = m01;
layerId = "5379EB12-B5D1-487B-ABE7-AFECC8B0C376";
name = highlightColor;
shapes = (
{
closed = 0;
nodes = (
(400,440,l),
(400,200,l),
(200,200,l)
);
},
{
closed = 0;
nodes = (
(200,700,l),
(100,700,l),
(100,150,l)
);
},
{
closed = 0;
nodes = (
(400,540,l),
(300,540,ls),
(247,540,o),
(200,493,o),
(200,440,c)
);
}
);
width = 600;
}
);
metricLeft = H;
metricRight = o;
unicode = 254;
},
{
color = 4;
glyphname = q;
kernLeft = o;
kernRight = n;
layers = (
{
layerId = m01;
shapes = (
{
pos = (200,400);
ref = _part.square;
},
{
angle = 180;
pos = (200,200);
ref = _part.corner;
},
{
pos = (200,200);
ref = _part.square;
scale = (-1,1);
},
{
pos = (200,300);
ref = _part.square;
scale = (-1,1);
},
{
pos = (200,400);
ref = _part.corner;
scale = (-1,1);
},
{
pos = (400,100);
ref = _part.square;
},
{
pos = (400,200);
ref = _part.square;
},
{
pos = (400,300);
ref = _part.square;
},
{
pos = (400,400);
ref = _part.square;
},
{
pos = (300,400);
ref = _part.square;
},
{
pos = (300,200);
ref = _part.corner;
scale = (1,-1);
},
{
pos = (200,100);
ref = _part.square;
},
{
pos = (400,0);
ref = _part.square;
},
{
pos = (400,-100);
ref = _part.square;
},
{
pos = (400,-150);
ref = _part.square;
}
);
width = 600;
},
{
associatedMasterId = m01;
layerId = "ABA70F2A-2A3C-41D2-843D-EE47239AF53A";
name = side;
shapes = (
{
closed = 0;
nodes = (
(500,500,l,{
name = topColor;
}),
(200,500,ls,{
name = topColor;
}),
(147,500,o),
(100,453,o),
(100,400,cs,{
name = shadowColor;
}),
(100,200,l,{
name = shadowBottomColor;
})
);
},
{
closed = 0;
nodes = (
(400,400,l,{
name = shadowBottomColor;
}),
(400,200,l,{
name = shadowColor;
})
);
},
{
closed = 0;
nodes = (
(400,170,l,{
name = shadowBottomColor;
}),
(400,-150,l,{
name = shadowColor;
})
);
}
);
width = 600;
},
{
associatedMasterId = m01;
layerId = "20CF22CE-2A51-49C9-8037-566212E94BA4";
name = top;
shapes = (
{
closed = 0;
nodes = (
(450,200,l,{
name = frontTopColor;
}),
(200,200,l,{
name = shadowColor;
})
);
}
);
width = 600;
},
{
associatedMasterId = m01;
layerId = "8B9EFB08-1E13-4FC1-B2A2-25FB766AC4DB";
name = highlightColor;
shapes = (
{
closed = 0;
nodes = (
(400,400,l),
(400,200,l),
(200,200,l)
);
},
{
closed = 0;
nodes = (
(500,500,l),
(200,500,ls),
(147,500,o),
(100,453,o),
(100,400,cs),
(100,200,l)
);
}
);
width = 600;
}
);
metricLeft = o;
metricRight = H;
unicode = 113;
},
{
color = 4;
glyphname = r;
kernLeft = n;
kernRight = r;
layers = (
{
layerId = m01;
shapes = (
{
pos = (100,100);
ref = _part.square;
},
{
pos = (100,200);
ref = _part.square;
},
{
pos = (100,300);
ref = _part.square;
},
{
pos = (100,400);
ref = _part.square;
},
{
pos = (400,400);
ref = _part.corner;
scale = (-1,1);
},
{
pos = (100,0);
ref = _part.square;
},
{
pos = (200,300);
ref = _part.square;
},
{
pos = (400,400);
ref = _part.square;
},
{
pos = (300,400);
ref = _part.corner;
scale = (1,-1);
}
);
width = 550;
},
{
associatedMasterId = m01;
layerId = "7AE6D344-207E-40C8-B540-9F168226E9B0";
name = side;
shapes = (
{
closed = 0;
nodes = (
(100,500,l,{
name = shadowColor;
}),
(100,0,l,{
name = shadowBottomColor;
})
);
},
{
closed = 0;
nodes = (
(300,400,l,{
name = shadowColor;
}),
(200,400,l,{
name = shadowBottomColor;
})
);
}
);
width = 550;
},
{
associatedMasterId = m01;
layerId = "E1BEBB2D-DE3C-443C-A940-253A6E987B48";
name = top;
shapes = (
{
closed = 0;
nodes = (
(200,500,l,{
name = topColor;
}),
(100,500,l,{
name = topColor;
})
);
},
{
closed = 0;
nodes = (
(500,500,l,{
name = topColor;
}),
(400,500,ls,{
name = topColor;
}),
(347,500,o),
(300,453,o),
(300,400,c,{
name = shadowColor;
})
);
}
);
width = 550;
},
{
associatedMasterId = m01;
layerId = "8C8786FA-18D7-47B0-8197-1FA884153421";
name = highlightColor;
shapes = (
{
closed = 0;
nodes = (
(500,500,l),
(400,500,ls),
(347,500,o),
(300,453,o),
(300,400,c)
);
},
{
closed = 0;
nodes = (
(200,500,l),
(100,500,l),
(100,100,l)
);
}
);
width = 550;
}
);
metricLeft = n;
unicode = 114;
},
{
color = 4;
glyphname = s;
kernLeft = n;
kernRight = n;
layers = (
{
layerId = m01;
shapes = (
{
angle = 180;
pos = (200,300);
ref = _part.corner;
},
{
pos = (400,100);
ref = _part.square;
},
{
pos = (200,400);
ref = _part.corner;
scale = (-1,1);
},
{
pos = (200,200);
ref = _part.square;
},
{
pos = (200,400);
ref = _part.square;
},
{
pos = (300,200);
ref = _part.square;
},
{
pos = (300,400);
ref = _part.square;
},
{
pos = (400,200);
ref = _part.corner;
},
{
pos = (200,0);
ref = _part.square;
},
{
pos = (300,0);
ref = _part.square;
},
{
pos = (100,300);
ref = _part.square;
},
{
pos = (100,0);
ref = _part.square;
},
{
pos = (400,100);
ref = _part.corner;
scale = (1,-1);
},
{
pos = (400,400);
ref = _part.square;
}
);
width = 600;
},
{
associatedMasterId = m01;
layerId = "B10CEE06-A9CF-4C37-8138-97941B889FC2";
name = side;
shapes = (
{
closed = 0;
nodes = (
(400,210,l,{
name = shadowBottomColor;
}),
(400,100,l,{
name = shadowColor;
})
);
},
{
closed = 0;
nodes = (
(100,100,l,{
name = shadowColor;
}),
(100,0,l,{
name = shadowBottomColor;
})
);
},
{
closed = 0;
nodes = (
(500,500,l,{
name = topColor;
}),
(200,500,ls,{
name = topColor;
}),
(147,500,o),
(100,453,o),
(100,400,cs,{
name = shadowColor;
}),
(100,300,l,{
name = shadowBottomColor;
})
);
}
);
width = 600;
},
{
associatedMasterId = m01;
layerId = "B2243AD4-A32A-4E91-ABEC-1683CC4FF0D7";
name = top;
shapes = (
{
closed = 0;
nodes = (
(430,100,l,{
name = shadowColor;
}),
(100,100,l,{
name = frontTopColor;
})
);
},
{
closed = 0;
nodes = (
(530,300,l,{
name = frontTopColor;
}),
(200,300,l,{
name = shadowBottomColor;
})
);
}
);
width = 600;
},
{
associatedMasterId = m01;
layerId = "08A1D10A-D1EB-43AA-A56A-2EF8B63EE061";
name = highlightColor;
shapes = (
{
closed = 0;
nodes = (
(500,500,l),
(200,500,ls),
(147,500,o),
(100,453,o),
(100,400,cs),
(100,300,ls)
);
},
{
closed = 0;
nodes = (
(400,200,l),
(400,100,l),
(100,100,l),
(100,0,l)
);
},
{
closed = 0;
nodes = (
(400,300,l),
(300,300,l),
(200,300,l)
);
}
);
width = 600;
}
);
metricLeft = n;
metricRight = n;
unicode = 115;
},
{
color = 4;
glyphname = scedilla;
kernLeft = n;
kernRight = n;
layers = (
{
layerId = m01;
shapes = (
{
ref = s;
},
{
pos = (200,0);
ref = cedillacomb;
}
);
width = 600;
},
{
associatedMasterId = m01;
layerId = "15AE6D8F-A916-4E7B-B7C9-16853C2038A0";
name = side;
shapes = (
{
closed = 0;
nodes = (
(400,210,l,{
name = shadowBottomColor;
}),
(400,100,l,{
name = shadowColor;
})
);
},
{
closed = 0;
nodes = (
(100,100,l,{
name = shadowColor;
}),
(100,0,l,{
name = shadowBottomColor;
})
);
},
{
closed = 0;
nodes = (
(500,500,l,{
name = topColor;
}),
(200,500,ls,{
name = topColor;
}),
(147,500,o),
(100,453,o),
(100,400,cs,{
name = shadowColor;
}),
(100,300,l,{
name = shadowBottomColor;
})
);
},
{
closed = 0;
nodes = (
(300,0,l,{
name = shadowBottomColor;
}),
(300,-100,l,{
name = shadowColor;
})
);
},
{
closed = 0;
nodes = (
(200,-100,l,{
name = shadowBottomColor;
}),
(200,-200,l,{
name = shadowBottomColor;
})
);
}
);
width = 600;
},
{
associatedMasterId = m01;
layerId = "9151B5B5-865F-4430-ACDA-70ADFC985A63";
name = top;
shapes = (
{
closed = 0;
nodes = (
(300,-100,l,{
name = shadowBottomColor;
}),
(200,-100,l,{
name = shadowColor;
})
);
},
{
closed = 0;
nodes = (
(430,100,l,{
name = shadowColor;
}),
(100,100,l,{
name = frontTopColor;
})
);
},
{
closed = 0;
nodes = (
(530,300,l,{
name = frontTopColor;
}),
(200,300,l,{
name = shadowBottomColor;
})
);
}
);
width = 600;
},
{
associatedMasterId = m01;
layerId = "000A9817-B0C7-45CB-B656-1684A13A271B";
name = highlightColor;
shapes = (
{
closed = 0;
nodes = (
(500,500,l),
(200,500,ls),
(147,500,o),
(100,453,o),
(100,400,cs),
(100,300,ls)
);
},
{
closed = 0;
nodes = (
(400,200,l),
(400,100,l),
(100,100,l),
(100,0,l)
);
},
{
closed = 0;
nodes = (
(400,300,l),
(300,300,l),
(200,300,l)
);
},
{
closed = 0;
nodes = (
(300,-100,l),
(200,-100,l),
(200,-200,l)
);
}
);
width = 600;
}
);
metricLeft = n;
metricRight = n;
unicode = 351;
},
{
color = 4;
glyphname = germandbls;
kernLeft = H;
kernRight = H;
layers = (
{
layerId = m01;
shapes = (
{
pos = (100,0);
ref = _part.square;
},
{
pos = (100,100);
ref = _part.square;
},
{
pos = (100,200);
ref = _part.square;
},
{
pos = (100,300);
ref = _part.square;
},
{
pos = (100,400);
ref = _part.square;
},
{
pos = (420,380);
ref = _part.corner;
scale = (-1,1);
},
{
angle = 180;
pos = (420,320);
ref = _part.corner;
},
{
pos = (200,640);
ref = _part.corner;
scale = (-1,1);
},
{
pos = (450,100);
ref = _part.corner;
scale = (1,-1);
},
{
pos = (450,100);
ref = _part.square;
scale = (1,1.2);
},
{
pos = (450,220);
ref = _part.corner;
},
{
pos = (450,640);
ref = _part.corner;
},
{
pos = (300,640);
ref = _part.square;
scale = (-1,1);
},
{
pos = (300,640);
ref = _part.square;
},
{
pos = (450,480);
ref = _part.corner;
scale = (1,-1);
},
{
pos = (320,100);
ref = _part.square;
scale = (1.3,-1);
},
{
angle = 180;
pos = (420,380);
ref = _part.square;
scale = (1,0.6);
},
{
pos = (100,500);
ref = _part.square;
scale = (1,1.4);
},
{
pos = (450,640);
ref = _part.square;
scale = (1,-1.6);
},
{
pos = (400,640);
ref = _part.square;
scale = (0.5,1);
},
{
pos = (420,380);
ref = _part.square;
scale = (0.3,1);
},
{
pos = (420,220);
ref = _part.square;
scale = (0.3,1);
}
);
width = 650;
},
{
associatedMasterId = m01;
layerId = "6F899F36-B027-444F-BC8B-0D54015F0DD4";
name = side;
shapes = (
{
closed = 0;
nodes = (
(450,640,l,{
name = shadowBottomColor;
}),
(450,480,l,{
name = shadowColor;
})
);
},
{
closed = 0;
nodes = (
(450,740,l,{
name = topColor;
}),
(200,740,ls,{
name = topColor;
}),
(147,740,o),
(100,693,o),
(100,640,cs,{
name = shadowColor;
}),
(100,0,l,{
name = shadowBottomColor;
})
);
},
{
closed = 0;
nodes = (
(450,220,l,{
name = shadowBottomColor;
}),
(450,100,l,{
name = shadowColor;
})
);
},
{
closed = 0;
nodes = (
(320,100,l,{
name = shadowColor;
}),
(320,0,l,{
name = shadowBottomColor;
})
);
}
);
width = 650;
},
{
associatedMasterId = m01;
layerId = "BC9B99B2-8D65-4332-A72A-7E61325BBA54";
name = top;
shapes = (
{
closed = 0;
nodes = (
(450,480,l,{
name = frontTopColor;
}),
(420,480,ls,{
name = frontTopColor;
}),
(367,480,o),
(320,433,o),
(320,380,cs,{
name = shadowColor;
}),
(320,320,ls,{
name = shadowBottomColor;
})
);
},
{
closed = 0;
nodes = (
(450,320,l,{
name = shadowColor;
}),
(420,320,l,{
name = shadowBottomColor;
})
);
},
{
closed = 0;
nodes = (
(470,100,l,{
name = shadowColor;
}),
(320,100,l,{
name = frontTopColor;
})
);
}
);
width = 650;
},
{
associatedMasterId = m01;
layerId = "49AAA0ED-5ED7-4A4D-B7C2-B79A8DB2DF33";
name = highlightColor;
shapes = (
{
closed = 0;
nodes = (
(450,100,l),
(320,100,l),
(320,0,l)
);
},
{
closed = 0;
nodes = (
(450,480,l),
(420,480,ls),
(367,480,o),
(320,433,o),
(320,380,cs),
(320,320,ls)
);
},
{
closed = 0;
nodes = (
(450,740,l),
(200,740,ls),
(147,740,o),
(100,693,o),
(100,640,cs),
(100,40,l)
);
}
);
width = 650;
}
);
metricLeft = H;
metricRight = H;
unicode = 223;
},
{
color = 4;
glyphname = t;
kernLeft = t;
kernRight = t;
layers = (
{
layerId = m01;
shapes = (
{
pos = (150,20);
ref = _part.square;
},
{
pos = (150,200);
ref = _part.square;
},
{
pos = (150,300);
ref = _part.square;
},
{
pos = (350,400);
ref = _part.square;
},
{
pos = (150,400);
ref = _part.square;
},
{
pos = (150,500);
ref = _part.square;
},
{
pos = (50,400);
ref = _part.square;
},
{
angle = 180;
pos = (250,20);
ref = _part.corner;
},
{
pos = (250,-80);
ref = _part.square;
},
{
pos = (350,-80);
ref = _part.square;
},
{
pos = (350,400);
ref = _part.corner;
scale = (-1,1);
},
{
pos = (150,100);
ref = _part.square;
}
);
width = 550;
},
{
associatedMasterId = m01;
layerId = "5346855D-2D80-4BB2-976F-C585EDBBDED7";
name = side;
shapes = (
{
closed = 0;
nodes = (
(150,600,l,{
name = shadowColor;
}),
(150,500,l,{
name = shadowColor;
})
);
},
{
closed = 0;
nodes = (
(150,400,l,{
name = shadowBottomColor;
}),
(150,20,l,{
name = shadowColor;
})
);
},
{
closed = 0;
nodes = (
(50,500,l,{
name = shadowColor;
}),
(50,400,l,{
name = shadowColor;
})
);
},
{
closed = 0;
nodes = (
(450,500,l,{
name = topColor;
}),
(350,500,ls,{
name = frontTopColor;
}),
(297,500,o),
(250,453,o),
(250,400,c,{
name = shadowColor;
})
);
}
);
width = 550;
},
{
associatedMasterId = m01;
layerId = "22818718-9466-4565-AAC8-B0063B3CFB2F";
name = top;
shapes = (
{
closed = 0;
nodes = (
(450,20,l,{
name = frontTopColor;
}),
(220,20,l,{
name = shadowColor;
})
);
},
{
closed = 0;
nodes = (
(250,600,l,{
name = topColor;
}),
(150,600,l,{
name = topColor;
})
);
},
{
closed = 0;
nodes = (
(220,500,l,{
name = shadowColor;
}),
(50,500,l,{
name = topColor;
})
);
}
);
width = 550;
},
{
associatedMasterId = m01;
layerId = "DBB4244D-8CAF-41DC-A0BF-E5AFBE65A821";
name = highlightColor;
shapes = (
{
closed = 0;
nodes = (
(250,600,l),
(150,600,l),
(150,500,l),
(50,500,l)
);
},
{
closed = 0;
nodes = (
(450,500,l),
(350,500,ls),
(297,500,o),
(250,453,o),
(250,400,c)
);
},
{
closed = 0;
nodes = (
(450,20,l),
(346,20,l),
(250,20,l)
);
},
{
closed = 0;
nodes = (
(150,300,l),
(150,162,l),
(150,20,ls)
);
}
);
width = 550;
}
);
metricRight = n;
unicode = 116;
},
{
color = 4;
glyphname = tcedilla;
kernLeft = t;
kernRight = t;
layers = (
{
layerId = m01;
shapes = (
{
ref = t;
},
{
pos = (200,-80);
ref = cedillacomb;
}
);
width = 550;
},
{
associatedMasterId = m01;
layerId = "42C4F412-BA41-412B-BFDC-E0563EFCE5D7";
name = side;
shapes = (
{
closed = 0;
nodes = (
(150,600,l,{
name = shadowColor;
}),
(150,500,l,{
name = shadowColor;
})
);
},
{
closed = 0;
nodes = (
(150,400,l,{
name = shadowBottomColor;
}),
(150,20,l,{
name = shadowColor;
})
);
},
{
closed = 0;
nodes = (
(50,500,l,{
name = shadowColor;
}),
(50,400,l,{
name = shadowColor;
})
);
},
{
closed = 0;
nodes = (
(450,500,l,{
name = topColor;
}),
(350,500,ls,{
name = frontTopColor;
}),
(297,500,o),
(250,453,o),
(250,400,c,{
name = shadowColor;
})
);
},
{
closed = 0;
nodes = (
(300,-80,l,{
name = shadowBottomColor;
}),
(300,-180,l,{
name = shadowColor;
})
);
},
{
closed = 0;
nodes = (
(200,-180,l,{
name = shadowBottomColor;
}),
(200,-280,l,{
name = shadowBottomColor;
})
);
}
);
width = 550;
},
{
associatedMasterId = m01;
layerId = "BA4A8381-0793-45A3-BC33-AA801280CC25";
name = top;
shapes = (
{
closed = 0;
nodes = (
(450,20,l,{
name = frontTopColor;
}),
(220,20,l,{
name = shadowColor;
})
);
},
{
closed = 0;
nodes = (
(250,600,l,{
name = topColor;
}),
(150,600,l,{
name = topColor;
})
);
},
{
closed = 0;
nodes = (
(220,500,l,{
name = shadowColor;
}),
(50,500,l,{
name = topColor;
})
);
},
{
closed = 0;
nodes = (
(300,-180,l,{
name = shadowBottomColor;
}),
(200,-180,l,{
name = shadowColor;
})
);
}
);
width = 550;
},
{
associatedMasterId = m01;
layerId = "CEE92DCB-4C32-4C52-8018-0FC2F840BCFD";
name = highlightColor;
shapes = (
{
closed = 0;
nodes = (
(300,-180,l),
(200,-180,l),
(200,-280,l)
);
},
{
closed = 0;
nodes = (
(250,600,l),
(150,600,l),
(150,500,l),
(50,500,l)
);
},
{
closed = 0;
nodes = (
(450,500,l),
(350,500,ls),
(297,500,o),
(250,453,o),
(250,400,c)
);
},
{
closed = 0;
nodes = (
(450,20,l),
(346,20,l),
(250,20,l)
);
},
{
closed = 0;
nodes = (
(150,300,l),
(150,162,l),
(150,20,ls)
);
}
);
width = 550;
}
);
metricLeft = t;
metricRight = n;
unicode = 355;
},
{
color = 4;
glyphname = u;
kernLeft = n;
kernRight = n;
layers = (
{
layerId = m01;
shapes = (
{
pos = (100,100);
ref = _part.square;
},
{
pos = (100,400);
ref = _part.square;
},
{
pos = (300,60);
ref = _part.corner;
scale = (1,-1);
},
{
pos = (400,300);
ref = _part.square;
},
{
pos = (400,400);
ref = _part.square;
},
{
angle = 180;
pos = (200,60);
ref = _part.corner;
},
{
pos = (400,-40);
ref = _part.square;
},
{
pos = (100,200);
ref = _part.square;
},
{
pos = (100,300);
ref = _part.square;
},
{
pos = (400,100);
ref = _part.square;
},
{
pos = (400,200);
ref = _part.square;
},
{
pos = (300,-40);
ref = _part.square;
scale = (-1,1);
},
{
pos = (100,60);
ref = _part.square;
},
{
pos = (400,60);
ref = _part.square;
}
);
width = 600;
},
{
associatedMasterId = m01;
layerId = "5A7BF6C9-62BD-4D1C-9FC9-58D028B30947";
name = side;
shapes = (
{
closed = 0;
nodes = (
(400,500,l,{
name = shadowColor;
}),
(400,60,l,{
name = shadowBottomColor;
})
);
},
{
closed = 0;
nodes = (
(100,500,l,{
name = shadowColor;
}),
(100,60,l,{
name = shadowBottomColor;
})
);
},
{
closed = 0;
nodes = (
(400,20,l,{
name = shadowBottomColor;
}),
(400,-40,l,{
name = shadowColor;
})
);
}
);
width = 600;
},
{
associatedMasterId = m01;
layerId = "70AC60B2-613E-49CA-B30E-C84A5FE76806";
name = top;
shapes = (
{
closed = 0;
nodes = (
(440,60,l,{
name = frontTopColor;
}),
(180,60,l,{
name = shadowColor;
})
);
},
{
closed = 0;
nodes = (
(500,500,l,{
name = topColor;
}),
(400,500,l,{
name = topColor;
})
);
},
{
closed = 0;
nodes = (
(200,500,l,{
name = topColor;
}),
(100,500,l,{
name = topColor;
})
);
}
);
width = 600;
},
{
associatedMasterId = m01;
layerId = "1872FF83-4CD2-4830-A766-2005B788311F";
name = highlightColor;
shapes = (
{
closed = 0;
nodes = (
(500,500,l),
(400,500,l),
(400,60,l),
(200,60,l)
);
},
{
closed = 0;
nodes = (
(200,500,l),
(100,500,l),
(100,60,l)
);
}
);
width = 600;
}
);
metricLeft = n;
metricRight = n;
unicode = 117;
},
{
color = 4;
glyphname = v;
kernLeft = n;
kernRight = n;
layers = (
{
layerId = m01;
shapes = (
{
angle = 180;
pos = (300,10);
ref = _part.corner;
},
{
pos = (100,400);
ref = _part.square;
},
{
pos = (400,400);
ref = _part.square;
},
{
pos = (300,10);
ref = _part.corner;
scale = (1,-1);
},
{
pos = (400,300);
ref = _part.square;
},
{
pos = (100,200);
ref = _part.square;
},
{
pos = (100,300);
ref = _part.square;
},
{
pos = (400,200);
ref = _part.square;
},
{
pos = (400,110);
ref = _part.corner;
scale = (1,-1);
},
{
angle = 180;
pos = (200,110);
ref = _part.corner;
},
{
pos = (100,110);
ref = _part.square;
},
{
pos = (400,110);
ref = _part.square;
}
);
width = 600;
},
{
associatedMasterId = m01;
layerId = "86127223-8132-4A0A-91F6-3291B3CA8D94";
name = side;
shapes = (
{
closed = 0;
nodes = (
(200,10,l,{
name = shadowColor;
}),
(200,-17,o),
(212,-42,o),
(231,-60,c,{
name = shadowBottomColor;
})
);
},
{
closed = 0;
nodes = (
(100,500,l,{
name = shadowColor;
}),
(100,110,ls,{
name = shadowColor;
}),
(100,81,o),
(115,53,o),
(137,34,cs,{
name = shadowBottomColor;
})
);
},
{
closed = 0;
nodes = (
(400,500,l,{
name = shadowColor;
}),
(400,10,l,{
name = shadowBottomColor;
})
);
}
);
width = 600;
},
{
associatedMasterId = m01;
layerId = "A696251E-B462-471E-B82C-1F212F6D3F7B";
name = top;
shapes = (
{
closed = 0;
nodes = (
(470,10,l,{
name = frontBottomColor;
}),
(170,10,l,{
name = shadowColor;
})
);
},
{
closed = 0;
nodes = (
(200,500,l,{
name = topColor;
}),
(100,500,l,{
name = topColor;
})
);
},
{
closed = 0;
nodes = (
(500,500,l,{
name = topColor;
}),
(400,500,l,{
name = topColor;
})
);
}
);
width = 600;
},
{
associatedMasterId = m01;
layerId = "5D2011F8-A51A-4DCD-8853-DBE69BC2A715";
name = highlightColor;
shapes = (
{
closed = 0;
nodes = (
(200,500,l),
(100,500,l),
(100,110,ls)
);
},
{
closed = 0;
nodes = (
(500,500,l),
(400,500,l),
(400,10,l),
(200,10,l)
);
}
);
width = 600;
}
);
metricLeft = n;
metricRight = n;
unicode = 118;
},
{
color = 4;
glyphname = w;
kernLeft = n;
kernRight = n;
layers = (
{
layerId = m01;
shapes = (
{
pos = (100,400);
ref = _part.square;
},
{
pos = (320,400);
ref = _part.square;
},
{
pos = (320,300);
ref = _part.square;
},
{
pos = (100,200);
ref = _part.square;
},
{
pos = (100,300);
ref = _part.square;
},
{
pos = (320,200);
ref = _part.square;
},
{
pos = (540,400);
ref = _part.square;
},
{
pos = (540,300);
ref = _part.square;
},
{
pos = (540,200);
ref = _part.square;
},
{
angle = 180;
pos = (300,10);
ref = _part.corner;
},
{
pos = (440,10);
ref = _part.corner;
scale = (1,-1);
},
{
pos = (320,110);
ref = _part.square;
scale = (1,-1);
},
{
angle = 180;
pos = (200,110);
ref = _part.corner;
},
{
pos = (300,10);
ref = _part.square;
scale = (1,-1);
},
{
pos = (540,110);
ref = _part.corner;
scale = (1,-1);
},
{
pos = (100,110);
ref = _part.square;
},
{
pos = (320,110);
ref = _part.square;
},
{
pos = (540,110);
ref = _part.square;
},
{
pos = (340,10);
ref = _part.square;
scale = (1,-1);
}
);
width = 740;
},
{
associatedMasterId = m01;
layerId = "276D3DE1-AEFB-4A2D-9A71-45F4C96821FC";
name = side;
shapes = (
{
closed = 0;
nodes = (
(100,500,l,{
name = shadowColor;
}),
(100,110,ls,{
name = shadowBottomColor;
})
);
},
{
closed = 0;
nodes = (
(540,500,l,{
name = shadowColor;
}),
(540,10,l,{
name = shadowBottomColor;
})
);
},
{
closed = 0;
nodes = (
(320,500,l,{
name = shadowColor;
}),
(320,10,l,{
name = shadowBottomColor;
})
);
}
);
width = 740;
},
{
associatedMasterId = m01;
layerId = "32E67B8F-2BA0-46F2-BAFB-93C93747A7DB";
name = top;
shapes = (
{
closed = 0;
nodes = (
(200,500,l,{
name = topColor;
}),
(100,500,l,{
name = topColor;
})
);
},
{
closed = 0;
nodes = (
(640,500,l,{
name = topColor;
}),
(540,500,l,{
name = topColor;
})
);
},
{
closed = 0;
nodes = (
(420,500,l,{
name = topColor;
}),
(320,500,l,{
name = topColor;
})
);
},
{
closed = 0;
nodes = (
(380,10,l,{
name = frontTopColor;
}),
(200,10,l,{
name = shadowColor;
})
);
},
{
closed = 0;
nodes = (
(600,10,l,{
name = frontTopColor;
}),
(420,10,l,{
name = shadowColor;
})
);
}
);
width = 740;
},
{
associatedMasterId = m01;
layerId = "2938A6A8-8D71-47EF-9DFB-89AC35E67515";
name = highlightColor;
shapes = (
{
closed = 0;
nodes = (
(200,500,l),
(100,500,l),
(100,110,ls)
);
},
{
closed = 0;
nodes = (
(640,500,l),
(540,500,l),
(540,10,l),
(420,10,l)
);
},
{
closed = 0;
nodes = (
(420,500,l),
(320,500,l),
(320,10,l),
(200,10,l)
);
}
);
width = 740;
}
);
metricLeft = n;
metricRight = n;
unicode = 119;
},
{
color = 4;
glyphname = x;
kernLeft = n;
kernRight = n;
layers = (
{
layerId = m01;
shapes = (
{
pos = (300,200);
ref = _part.square;
scale = (-1,1);
},
{
pos = (300,200);
ref = _part.square;
},
{
pos = (400,100);
ref = _part.square;
scale = (1,-1);
},
{
pos = (400,100);
ref = _part.square;
},
{
pos = (400,200);
ref = _part.corner;
},
{
pos = (400,400);
ref = _part.corner;
scale = (1,-1);
},
{
pos = (400,400);
ref = _part.square;
},
{
pos = (100,100);
ref = _part.square;
scale = (1,-1);
},
{
pos = (100,400);
ref = _part.square;
},
{
pos = (200,100);
ref = _part.corner;
scale = (-1,1);
},
{
angle = 180;
pos = (200,300);
ref = _part.corner;
},
{
pos = (100,300);
ref = _part.square;
}
);
width = 600;
},
{
associatedMasterId = m01;
layerId = "589503A2-F822-48D0-8737-32E079C51EFC";
name = side;
shapes = (
{
closed = 0;
nodes = (
(400,200,l,{
name = shadowBottomColor;
}),
(400,0,l,{
name = shadowColor;
})
);
},
{
closed = 0;
nodes = (
(400,500,l,{
name = shadowColor;
}),
(400,300,l,{
name = shadowBottomColor;
})
);
},
{
closed = 0;
nodes = (
(200,200,l,{
name = shadowBottomColor;
}),
(147,200,o),
(100,153,o),
(100,100,cs,{
name = shadowColor;
}),
(100,0,l,{
name = shadowColor;
})
);
},
{
closed = 0;
nodes = (
(100,500,l,{
name = shadowColor;
}),
(100,300,ls,{
name = shadowBottomColor;
})
);
}
);
width = 600;
},
{
associatedMasterId = m01;
layerId = "A5C993C9-6748-41F5-97A2-681AD826264A";
name = top;
shapes = (
{
closed = 0;
nodes = (
(500,500,l,{
name = topColor;
}),
(400,500,l,{
name = topColor;
})
);
},
{
closed = 0;
nodes = (
(200,500,l,{
name = topColor;
}),
(100,500,l,{
name = topColor;
})
);
},
{
closed = 0;
nodes = (
(450,300,l,{
name = frontTopColor;
}),
(200,300,l,{
name = shadowColor;
})
);
}
);
width = 600;
},
{
associatedMasterId = m01;
layerId = "C4C9C026-159C-4BCD-8FC5-4D22F073CE9B";
name = highlightColor;
shapes = (
{
closed = 0;
nodes = (
(200,200,l),
(147,200,o),
(100,153,o),
(100,100,cs),
(100,0,l)
);
},
{
closed = 0;
nodes = (
(500,500,l),
(400,500,l),
(400,300,l),
(200,300,l)
);
},
{
closed = 0;
nodes = (
(200,500,l),
(100,500,l),
(100,300,ls)
);
}
);
width = 600;
}
);
metricLeft = n;
metricRight = n;
unicode = 120;
},
{
color = 4;
glyphname = y;
kernLeft = n;
kernRight = n;
layers = (
{
layerId = m01;
shapes = (
{
angle = 180;
pos = (200,300);
ref = _part.corner;
},
{
pos = (100,400);
ref = _part.square;
},
{
pos = (300,300);
ref = _part.corner;
scale = (1,-1);
},
{
pos = (400,300);
ref = _part.square;
},
{
pos = (400,400);
ref = _part.square;
},
{
pos = (200,200);
ref = _part.square;
},
{
pos = (100,300);
ref = _part.square;
},
{
pos = (400,100);
ref = _part.corner;
scale = (1,-1);
},
{
pos = (200,0);
ref = _part.square;
},
{
pos = (300,0);
ref = _part.square;
},
{
pos = (400,200);
ref = _part.square;
},
{
pos = (400,100);
ref = _part.square;
},
{
angle = 180;
pos = (200,100);
ref = _part.square;
}
);
width = 600;
},
{
associatedMasterId = m01;
layerId = "44D88F9D-342B-4F54-8A9F-A6F3BFD0C8AF";
name = side;
shapes = (
{
closed = 0;
nodes = (
(400,500,l,{
name = shadowColor;
}),
(400,300,l,{
name = shadowBottomColor;
})
);
},
{
closed = 0;
nodes = (
(100,500,l,{
name = shadowColor;
}),
(100,300,l,{
name = shadowBottomColor;
})
);
},
{
closed = 0;
nodes = (
(100,100,l,{
name = shadowColor;
}),
(100,0,l,{
name = shadowBottomColor;
})
);
},
{
closed = 0;
nodes = (
(400,290,l,{
name = shadowColor;
}),
(400,100,l,{
name = shadowBottomColor;
})
);
}
);
width = 600;
},
{
associatedMasterId = m01;
layerId = "B8A5244C-B1F4-4C7D-B6D8-8999F8536D26";
name = top;
shapes = (
{
closed = 0;
nodes = (
(450,300,l,{
name = frontTopColor;
}),
(200,300,l,{
name = shadowColor;
})
);
},
{
closed = 0;
nodes = (
(500,500,l,{
name = topColor;
}),
(400,500,l,{
name = topColor;
})
);
},
{
closed = 0;
nodes = (
(200,500,l,{
name = topColor;
}),
(100,500,l,{
name = topColor;
})
);
},
{
closed = 0;
nodes = (
(400,100,l,{
name = shadowColor;
}),
(100,100,l,{
name = frontTopColor;
})
);
}
);
width = 600;
},
{
associatedMasterId = m01;
layerId = "8A2906FE-3DD1-4AAB-A442-25D5B48C8BDF";
name = highlightColor;
shapes = (
{
closed = 0;
nodes = (
(400,200,l),
(400,100,l),
(100,100,l),
(100,0,l)
);
},
{
closed = 0;
nodes = (
(200,500,l),
(100,500,l),
(100,300,ls)
);
},
{
closed = 0;
nodes = (
(500,500,l),
(400,500,l),
(400,300,l),
(200,300,l)
);
}
);
width = 600;
}
);
metricLeft = n;
metricRight = q;
unicode = 121;
},
{
color = 4;
glyphname = z;
kernLeft = n;
kernRight = n;
layers = (
{
layerId = m01;
shapes = (
{
angle = 180;
pos = (200,100);
ref = _part.square;
},
{
pos = (100,100);
ref = _part.square;
},
{
pos = (200,400);
ref = _part.square;
scale = (-1,1);
},
{
pos = (200,200);
ref = _part.square;
},
{
pos = (200,400);
ref = _part.square;
},
{
pos = (300,200);
ref = _part.square;
},
{
pos = (300,400);
ref = _part.square;
},
{
pos = (400,300);
ref = _part.corner;
scale = (1,-1);
},
{
pos = (400,300);
ref = _part.square;
},
{
pos = (400,400);
ref = _part.square;
},
{
pos = (200,0);
ref = _part.square;
},
{
pos = (300,0);
ref = _part.square;
},
{
pos = (400,0);
ref = _part.square;
},
{
pos = (200,200);
ref = _part.corner;
scale = (-1,1);
}
);
width = 600;
},
{
associatedMasterId = m01;
layerId = "D031BC37-AF2A-4121-AF8E-919F50269172";
name = side;
shapes = (
{
closed = 0;
nodes = (
(500,300,l,{
name = frontTopColor;
}),
(200,300,ls,{
name = shadowColor;
}),
(147,300,o),
(100,253,o),
(100,200,cs,{
name = shadowColor;
}),
(100,0,l,{
name = shadowBottomColor;
})
);
},
{
closed = 0;
nodes = (
(100,500,l,{
name = shadowColor;
}),
(100,400,l,{
name = shadowColor;
})
);
}
);
width = 600;
},
{
associatedMasterId = m01;
layerId = "53C9DA96-F284-454F-ADB6-335CE8827EFD";
name = top;
shapes = (
{
closed = 0;
nodes = (
(500,500,l,{
name = topColor;
}),
(100,500,l,{
name = topColor;
})
);
},
{
closed = 0;
nodes = (
(400,400,l,{
name = shadowBottomColor;
}),
(400,300,l,{
name = shadowColor;
})
);
},
{
closed = 0;
nodes = (
(560,100,l,{
name = frontTopColor;
}),
(270,100,l,{
name = shadowColor;
})
);
}
);
width = 600;
},
{
associatedMasterId = m01;
layerId = "89526089-86AE-40A5-AF81-16B8C6D37503";
name = highlightColor;
shapes = (
{
closed = 0;
nodes = (
(500,500,l),
(100,500,l),
(100,400,l)
);
},
{
closed = 0;
nodes = (
(500,100,l),
(357,100,l),
(200,100,l)
);
},
{
closed = 0;
nodes = (
(400,400,l),
(400,300,l),
(200,300,ls),
(147,300,o),
(100,253,o),
(100,200,cs),
(100,100,l)
);
}
);
width = 600;
}
);
metricLeft = n;
metricRight = n;
unicode = 122;
},
{
color = 4;
glyphname = zero;
layers = (
{
layerId = m01;
shapes = (
{
pos = (200,540);
ref = _part.corner;
scale = (-1,1);
},
{
pos = (100,100);
ref = _part.square;
},
{
pos = (100,200);
ref = _part.square;
},
{
pos = (100,300);
ref = _part.square;
},
{
pos = (100,400);
ref = _part.square;
},
{
pos = (400,540);
ref = _part.corner;
},
{
pos = (400,100);
ref = _part.square;
},
{
pos = (400,200);
ref = _part.square;
},
{
pos = (400,300);
ref = _part.square;
},
{
pos = (400,400);
ref = _part.square;
},
{
angle = 180;
pos = (200,100);
ref = _part.corner;
},
{
pos = (400,100);
ref = _part.corner;
scale = (1,-1);
},
{
pos = (300,0);
ref = _part.square;
},
{
pos = (200,0);
ref = _part.square;
},
{
pos = (300,540);
ref = _part.square;
},
{
pos = (200,540);
ref = _part.square;
},
{
pos = (100,440);
ref = _part.square;
},
{
pos = (400,440);
ref = _part.square;
}
);
width = 600;
},
{
associatedMasterId = m01;
layerId = "21B99FDC-7C6B-4D9E-984B-D291FD35435B";
name = side;
shapes = (
{
closed = 0;
nodes = (
(400,640,l,{
name = topColor;
}),
(200,640,ls,{
name = topColor;
}),
(147,640,o),
(100,593,o),
(100,540,cs,{
name = shadowColor;
}),
(100,100,l,{
name = shadowBottomColor;
})
);
},
{
closed = 0;
nodes = (
(400,540,l,{
name = shadowBottomColor;
}),
(400,100,l,{
name = shadowColor;
})
);
}
);
width = 600;
},
{
associatedMasterId = m01;
layerId = "C3A5AE30-9EDA-4996-970C-A2182FA6F462";
name = top;
shapes = (
{
closed = 0;
nodes = (
(450,100,l,{
name = frontTopColor;
}),
(200,100,l,{
name = shadowColor;
})
);
}
);
width = 600;
},
{
associatedMasterId = m01;
layerId = "0C5219EB-F470-40CD-BB32-802F2042A80D";
name = highlightColor;
shapes = (
{
closed = 0;
nodes = (
(400,640,l),
(200,640,ls),
(147,640,o),
(100,593,o),
(100,540,cs),
(100,100,l)
);
},
{
closed = 0;
nodes = (
(400,540,l),
(400,100,l),
(200,100,l)
);
}
);
width = 600;
}
);
metricLeft = H;
metricRight = H;
unicode = 48;
},
{
color = 4;
glyphname = one;
layers = (
{
layerId = m01;
shapes = (
{
pos = (210,0);
ref = _part.square;
},
{
pos = (210,100);
ref = _part.square;
},
{
pos = (210,200);
ref = _part.square;
},
{
pos = (210,300);
ref = _part.square;
},
{
pos = (210,400);
ref = _part.square;
},
{
pos = (110,600);
ref = _part.corner;
},
{
pos = (210,600);
ref = _part.square;
},
{
pos = (100,0);
ref = _part.square;
scale = (1.1,1);
},
{
pos = (310,0);
ref = _part.square;
},
{
pos = (210,500);
ref = _part.square;
},
{
pos = (100,600);
ref = _part.square;
scale = (0.1,1);
}
);
width = 510;
},
{
associatedMasterId = m01;
layerId = "62A55EF8-D22A-4EB7-B33C-9A1DC6C64992";
name = side;
shapes = (
{
closed = 0;
nodes = (
(100,700,l,{
name = shadowColor;
}),
(100,600,l,{
name = shadowColor;
})
);
},
{
closed = 0;
nodes = (
(210,700,l,{
name = shadowColor;
}),
(210,600,l,{
name = shadowBottomColor;
})
);
},
{
closed = 0;
nodes = (
(100,100,l,{
name = shadowColor;
}),
(100,0,l,{
name = shadowBottomColor;
})
);
},
{
closed = 0;
nodes = (
(210,570,l,{
name = shadowBottomColor;
}),
(210,100,l,{
name = shadowColor;
})
);
}
);
width = 500;
},
{
associatedMasterId = m01;
layerId = "573E9641-F262-453E-99EF-6E9E275FF3B8";
name = top;
shapes = (
{
closed = 0;
nodes = (
(400,100,l,{
name = frontTopColor;
}),
(280,100,l,{
name = shadowColor;
})
);
},
{
closed = 0;
nodes = (
(180,700,l,{
name = shadowColor;
}),
(100,700,l,{
name = topColor;
})
);
},
{
closed = 0;
nodes = (
(310,700,l,{
name = topColor;
}),
(210,700,l,{
name = topColor;
})
);
},
{
closed = 0;
nodes = (
(240,100,l,{
name = shadowColor;
}),
(100,100,l,{
name = frontTopColor;
})
);
}
);
width = 500;
},
{
associatedMasterId = m01;
layerId = "2B4E7775-7B0E-4855-AE9E-0E1F35D21B2A";
name = highlightColor;
shapes = (
{
closed = 0;
nodes = (
(310,700,l),
(210,700,l),
(210,640,l)
);
},
{
closed = 0;
nodes = (
(210,500,l),
(210,100,l),
(100,100,l),
(100,0,l)
);
},
{
closed = 0;
nodes = (
(110,700,l),
(100,700,l),
(100,600,l)
);
}
);
width = 500;
}
);
metricLeft = H;
metricRight = H;
unicode = 49;
},
{
color = 4;
glyphname = two;
layers = (
{
layerId = m01;
shapes = (
{
pos = (400,100);
ref = _part.square;
scale = (1,-1);
},
{
pos = (200,100);
ref = _part.square;
scale = (-1,1.3);
},
{
pos = (300,540);
ref = _part.square;
},
{
pos = (300,540);
ref = _part.square;
scale = (-1,1);
},
{
pos = (200,540);
ref = _part.corner;
scale = (-1,1);
},
{
pos = (400,0);
ref = _part.square;
scale = (-1,1);
},
{
pos = (300,0);
ref = _part.square;
scale = (-1,1);
},
{
angle = 180;
pos = (200,100);
ref = _part.square;
},
{
pos = (200,230);
ref = _part.corner;
scale = (-1,1);
},
{
pos = (400,330);
ref = _part.corner;
scale = (1,-1);
},
{
pos = (300,230);
ref = _part.square;
},
{
pos = (300,230);
ref = _part.square;
scale = (-1,1);
},
{
pos = (400,540);
ref = _part.corner;
},
{
pos = (500,330);
ref = _part.square;
scale = (-1,1.1);
},
{
pos = (500,440);
ref = _part.square;
scale = (-1,1);
},
{
pos = (200,440);
ref = _part.square;
scale = (-1,1);
}
);
width = 600;
},
{
associatedMasterId = m01;
layerId = "3DB06B59-482E-460C-A702-0E34621FA14B";
name = side;
shapes = (
{
closed = 0;
nodes = (
(400,540,l,{
name = shadowBottomColor;
}),
(400,330,l,{
name = shadowColor;
})
);
}
);
width = 600;
},
{
associatedMasterId = m01;
layerId = "EC92C323-16F9-4950-9C55-6193086464F9";
name = top;
shapes = (
{
closed = 0;
nodes = (
(400,640,l,{
name = topColor;
}),
(200,640,ls,{
name = topColor;
}),
(147,640,o),
(100,593,o),
(100,540,cs,{
name = shadowColor;
}),
(100,440,l,{
name = shadowColor;
})
);
},
{
closed = 0;
nodes = (
(520,100,l,{
name = frontTopColor;
}),
(200,100,l,{
name = shadowColor;
})
);
},
{
closed = 0;
nodes = (
(450,330,l,{
name = frontTopColor;
}),
(200,330,ls,{
name = shadowColor;
}),
(147,330,o),
(100,283,o),
(100,230,cs,{
name = shadowColor;
}),
(100,0,l,{
name = shadowBottomColor;
})
);
}
);
width = 600;
},
{
associatedMasterId = m01;
layerId = "DC185A8B-2305-401F-9CE3-8C2C9E1A1A16";
name = highlightColor;
shapes = (
{
closed = 0;
nodes = (
(400,540,l),
(400,330,l),
(200,330,ls),
(147,330,o),
(100,283,o),
(100,230,cs),
(100,100,l)
);
},
{
closed = 0;
nodes = (
(400,640,l),
(200,640,ls),
(147,640,o),
(100,593,o),
(100,540,cs),
(100,440,l)
);
},
{
closed = 0;
nodes = (
(500,100,l),
(355,100,l),
(200,100,l)
);
}
);
width = 600;
}
);
metricLeft = H;
metricRight = H;
unicode = 50;
},
{
color = 4;
glyphname = three;
layers = (
{
layerId = m01;
shapes = (
{
angle = 180;
pos = (200,100);
ref = _part.square;
},
{
pos = (400,100);
ref = _part.square;
scale = (1,1.3);
},
{
pos = (200,540);
ref = _part.square;
},
{
pos = (300,540);
ref = _part.square;
},
{
pos = (400,540);
ref = _part.corner;
},
{
pos = (200,0);
ref = _part.square;
},
{
pos = (300,0);
ref = _part.square;
},
{
pos = (400,100);
ref = _part.corner;
scale = (1,-1);
},
{
pos = (400,230);
ref = _part.corner;
},
{
pos = (400,430);
ref = _part.corner;
scale = (1,-1);
},
{
pos = (200,230);
ref = _part.square;
},
{
pos = (300,230);
ref = _part.square;
},
{
pos = (200,540);
ref = _part.corner;
scale = (-1,1);
},
{
pos = (400,430);
ref = _part.square;
scale = (1,1.1);
},
{
pos = (100,440);
ref = _part.square;
}
);
width = 600;
},
{
associatedMasterId = m01;
layerId = "97B849F0-8E58-4120-A297-984DBC338802";
name = side;
shapes = (
{
closed = 0;
nodes = (
(400,230,l,{
name = shadowBottomColor;
}),
(400,100,l,{
name = shadowColor;
})
);
},
{
closed = 0;
nodes = (
(400,540,l,{
name = shadowBottomColor;
}),
(400,330,l,{
name = shadowColor;
})
);
},
{
closed = 0;
nodes = (
(200,330,l,{
name = shadowColor;
}),
(200,230,l,{
name = shadowColor;
})
);
},
{
closed = 0;
nodes = (
(100,100,l,{
name = shadowColor;
}),
(100,0,l,{
name = shadowBottomColor;
})
);
}
);
width = 600;
},
{
associatedMasterId = m01;
layerId = "B0C19F08-3202-4D24-BF26-D0E21A029587";
name = top;
shapes = (
{
closed = 0;
nodes = (
(470,100,l,{
name = shadowColor;
}),
(100,100,l,{
name = frontTopColor;
})
);
},
{
closed = 0;
nodes = (
(400,640,l,{
name = topColor;
}),
(200,640,ls,{
name = topColor;
}),
(147,640,o),
(100,593,o),
(100,540,cs,{
name = shadowColor;
}),
(100,440,l,{
name = shadowColor;
})
);
},
{
closed = 0;
nodes = (
(470,330,l,{
name = shadowColor;
}),
(200,330,l,{
name = frontTopColor;
})
);
}
);
width = 600;
},
{
associatedMasterId = m01;
layerId = "067D343C-A5E2-4C0E-9703-286B32242BD4";
name = highlightColor;
shapes = (
{
closed = 0;
nodes = (
(400,540,l),
(400,330,l),
(200,330,l),
(200,230,l)
);
},
{
closed = 0;
nodes = (
(400,640,l),
(200,640,ls),
(147,640,o),
(100,593,o),
(100,540,cs),
(100,440,l)
);
},
{
closed = 0;
nodes = (
(400,230,l),
(400,100,l),
(100,100,l),
(100,0,l)
);
}
);
width = 600;
}
);
metricLeft = H;
metricRight = H;
unicode = 51;
},
{
color = 4;
glyphname = four;
layers = (
{
layerId = m01;
shapes = (
{
pos = (200,500);
ref = _part.corner;
scale = (-1,1);
},
{
pos = (100,300);
ref = _part.square;
},
{
pos = (100,400);
ref = _part.square;
},
{
pos = (400,500);
ref = _part.square;
},
{
pos = (400,100);
ref = _part.square;
},
{
pos = (400,200);
ref = _part.square;
},
{
pos = (400,300);
ref = _part.square;
},
{
pos = (400,400);
ref = _part.square;
},
{
angle = 180;
pos = (200,300);
ref = _part.square;
},
{
pos = (300,300);
ref = _part.corner;
scale = (1,-1);
},
{
pos = (200,200);
ref = _part.square;
},
{
pos = (400,0);
ref = _part.square;
},
{
pos = (400,-100);
ref = _part.square;
},
{
pos = (400,-150);
ref = _part.square;
}
);
width = 600;
},
{
associatedMasterId = m01;
layerId = "B5FEE28D-F5B8-4068-9428-97133704E0F0";
name = highlightColor;
shapes = (
{
closed = 0;
nodes = (
(200,600,l),
(147,600,o),
(100,553,o),
(100,500,cs),
(100,200,l)
);
},
{
closed = 0;
nodes = (
(400,170,l),
(400,70,l),
(400,-50,l)
);
},
{
closed = 0;
nodes = (
(500,600,l),
(400,600,l),
(400,300,l),
(200,300,l)
);
}
);
width = 600;
},
{
associatedMasterId = m01;
layerId = "997B68E9-E288-4BE2-81E6-EAA464F0B232";
name = side;
shapes = (
{
closed = 0;
nodes = (
(400,600,l,{
name = shadowColor;
}),
(400,300,l,{
name = shadowBottomColor;
})
);
},
{
closed = 0;
nodes = (
(100,200,l,{
name = shadowBottomColor;
}),
(100,500,ls,{
name = shadowColor;
}),
(100,553,o),
(147,600,o),
(200,600,cs,{
name = topColor;
}),
(240,600,l,{
name = topColor;
})
);
},
{
closed = 0;
nodes = (
(400,250,l,{
name = shadowBottomColor;
}),
(400,-150,l,{
name = shadowColor;
})
);
}
);
width = 600;
},
{
associatedMasterId = m01;
layerId = "9FB3623C-F7FC-4ACA-8A6B-9BDBF51FD6AD";
name = top;
shapes = (
{
closed = 0;
nodes = (
(490,300,l,{
name = frontTopColor;
}),
(200,300,l,{
name = shadowColor;
})
);
},
{
closed = 0;
nodes = (
(500,600,l,{
name = topColor;
}),
(400,600,l,{
name = topColor;
})
);
}
);
width = 600;
}
);
metricLeft = H;
metricRight = H;
unicode = 52;
},
{
color = 4;
glyphname = five;
layers = (
{
layerId = m01;
shapes = (
{
angle = 180;
pos = (200,100);
ref = _part.square;
},
{
pos = (400,100);
ref = _part.square;
scale = (1,1.3);
},
{
angle = 180;
pos = (300,600);
ref = _part.corner;
},
{
pos = (300,500);
ref = _part.square;
},
{
pos = (400,500);
ref = _part.square;
},
{
pos = (200,0);
ref = _part.square;
},
{
pos = (300,0);
ref = _part.square;
},
{
pos = (400,100);
ref = _part.corner;
scale = (1,-1);
},
{
pos = (400,230);
ref = _part.corner;
},
{
pos = (100,400);
ref = _part.square;
scale = (1,-0.7);
},
{
angle = 180;
pos = (200,330);
ref = _part.corner;
},
{
pos = (200,230);
ref = _part.square;
},
{
pos = (300,230);
ref = _part.square;
},
{
pos = (200,500);
ref = _part.square;
scale = (-1,1);
},
{
pos = (100,400);
ref = _part.square;
}
);
width = 600;
},
{
associatedMasterId = m01;
layerId = "84F4F13F-89AB-4FF6-BAE6-54A193610E57";
name = side;
shapes = (
{
closed = 0;
nodes = (
(400,230,l,{
name = shadowBottomColor;
}),
(400,100,l,{
name = shadowColor;
})
);
},
{
closed = 0;
nodes = (
(100,600,l,{
name = shadowColor;
}),
(100,330,ls,{
name = shadowColor;
})
);
},
{
closed = 0;
nodes = (
(200,600,l,{
name = shadowColor;
}),
(200,547,o),
(247,500,o),
(300,500,cs,{
name = shadowBottomColor;
})
);
},
{
closed = 0;
nodes = (
(100,100,l,{
name = shadowColor;
}),
(100,0,l,{
name = shadowColor;
})
);
}
);
width = 600;
},
{
associatedMasterId = m01;
layerId = "47D11C0F-8A6A-4496-B4C1-C35B7154C027";
name = top;
shapes = (
{
closed = 0;
nodes = (
(400,330,l,{
name = frontTopColor;
}),
(200,330,l,{
name = shadowColor;
})
);
},
{
closed = 0;
nodes = (
(460,100,l,{
name = shadowColor;
}),
(100,100,l,{
name = frontTopColor;
})
);
},
{
closed = 0;
nodes = (
(500,600,l,{
name = topColor;
}),
(100,600,l,{
name = topColor;
})
);
}
);
width = 600;
},
{
associatedMasterId = m01;
layerId = "48AE74BD-9DB1-469C-8D06-15398235B7A1";
name = highlightColor;
shapes = (
{
closed = 0;
nodes = (
(500,600,l),
(100,600,l),
(100,330,ls)
);
},
{
closed = 0;
nodes = (
(400,230,l),
(400,100,l),
(100,100,l),
(100,0,l)
);
},
{
closed = 0;
nodes = (
(400,330,l),
(300,330,l),
(200,330,l)
);
}
);
width = 600;
}
);
metricLeft = H;
metricRight = H;
unicode = 53;
},
{
color = 4;
glyphname = six;
layers = (
{
layerId = m01;
shapes = (
{
angle = 180;
pos = (200,60);
ref = _part.corner;
},
{
pos = (100,100);
ref = _part.square;
},
{
pos = (200,300);
ref = _part.square;
scale = (-1,1);
},
{
pos = (300,280);
ref = _part.corner;
scale = (-1,1);
},
{
pos = (300,280);
ref = _part.square;
},
{
pos = (400,60);
ref = _part.corner;
scale = (1,-1);
},
{
pos = (400,280);
ref = _part.corner;
},
{
pos = (200,-40);
ref = _part.square;
},
{
pos = (300,-40);
ref = _part.square;
},
{
pos = (100,200);
ref = _part.square;
},
{
pos = (400,160);
ref = _part.square;
scale = (1,1.2);
},
{
pos = (200,500);
ref = _part.corner;
scale = (-1,1);
},
{
angle = 180;
pos = (300,600);
ref = _part.square;
},
{
pos = (300,500);
ref = _part.square;
},
{
pos = (400,500);
ref = _part.square;
},
{
angle = 180;
pos = (200,500);
ref = _part.square;
},
{
pos = (100,60);
ref = _part.square;
},
{
pos = (400,60);
ref = _part.square;
}
);
width = 600;
},
{
associatedMasterId = m01;
layerId = "32284136-B2FC-4BEE-95E8-2989E5198128";
name = side;
shapes = (
{
closed = 0;
nodes = (
(500,600,l,{
name = topColor;
}),
(200,600,ls,{
name = topColor;
}),
(147,600,o),
(100,553,o),
(100,500,cs,{
name = shadowColor;
}),
(100,60,l,{
name = shadowBottomColor;
})
);
},
{
closed = 0;
nodes = (
(400,300,l,{
name = shadowBottomColor;
}),
(400,60,l,{
name = shadowColor;
})
);
}
);
width = 600;
},
{
associatedMasterId = m01;
layerId = "F5BCE55B-5143-419C-B78C-EEE3AA6DB5E7";
name = top;
shapes = (
{
closed = 0;
nodes = (
(400,400,l,{
name = frontTopColor;
}),
(300,400,ls,{
name = shadowColor;
}),
(247,400,o),
(200,353,o),
(200,300,c,{
name = shadowColor;
})
);
},
{
closed = 0;
nodes = (
(400,60,l,{
name = frontTopColor;
}),
(200,60,l,{
name = shadowColor;
})
);
}
);
width = 600;
},
{
associatedMasterId = m01;
layerId = "75A566F6-C2F6-4A92-996D-5568B13D0A10";
name = highlightColor;
shapes = (
{
closed = 0;
nodes = (
(400,280,l),
(400,60,l),
(200,60,l)
);
},
{
closed = 0;
nodes = (
(400,380,l),
(300,380,ls),
(247,380,o),
(200,333,o),
(200,280,c)
);
},
{
closed = 0;
nodes = (
(500,600,l),
(200,600,ls),
(147,600,o),
(100,553,o),
(100,500,cs),
(100,60,l)
);
}
);
width = 600;
}
);
metricLeft = H;
metricRight = H;
unicode = 54;
},
{
color = 4;
glyphname = seven;
layers = (
{
layerId = m01;
shapes = (
{
angle = 180;
pos = (300,100);
ref = _part.square;
},
{
pos = (200,100);
ref = _part.square;
},
{
pos = (400,400);
ref = _part.square;
scale = (1,-1);
},
{
pos = (200,500);
ref = _part.square;
scale = (-1,1);
},
{
pos = (200,500);
ref = _part.square;
},
{
pos = (300,500);
ref = _part.corner;
},
{
pos = (400,500);
ref = _part.square;
},
{
angle = 180;
pos = (500,500);
ref = _part.square;
},
{
pos = (300,200);
ref = _part.corner;
scale = (-1,1);
},
{
pos = (300,300);
ref = _part.square;
scale = (1,-1);
},
{
pos = (400,300);
ref = _part.corner;
scale = (1,-1);
},
{
angle = 180;
pos = (300,50);
ref = _part.square;
}
);
width = 600;
},
{
associatedMasterId = m01;
layerId = "7A25AF25-10A0-4009-B4B8-96D2C4948A54";
name = side;
shapes = (
{
closed = 0;
nodes = (
(400,600,l,{
name = shadowColor;
}),
(400,500,l,{
name = shadowBottomColor;
})
);
},
{
closed = 0;
nodes = (
(100,600,l,{
name = shadowColor;
}),
(100,500,l,{
name = shadowColor;
})
);
},
{
closed = 0;
nodes = (
(400,480,l,{
name = shadowBottomColor;
}),
(400,300,l,{
name = shadowColor;
})
);
}
);
width = 600;
},
{
associatedMasterId = m01;
layerId = "544098E0-6E6D-4544-8EBA-7511ABA71EE7";
name = top;
shapes = (
{
closed = 0;
nodes = (
(500,600,l,{
name = topColor;
}),
(400,600,l,{
name = topColor;
})
);
},
{
closed = 0;
nodes = (
(300,600,l,{
name = topColor;
}),
(100,600,l,{
name = topColor;
})
);
},
{
closed = 0;
nodes = (
(450,300,l,{
name = frontTopColor;
}),
(300,300,ls,{
name = shadowColor;
}),
(247,300,o),
(200,253,o),
(200,200,cs,{
name = shadowColor;
}),
(200,-50,l,{
name = shadowBottomColor;
})
);
}
);
width = 600;
},
{
associatedMasterId = m01;
layerId = "97F71ED5-9612-4352-9DB3-83AE5DBE2F7D";
name = highlightColor;
shapes = (
{
closed = 0;
nodes = (
(500,600,l),
(400,600,l),
(400,500,l)
);
},
{
closed = 0;
nodes = (
(300,600,l),
(100,600,l),
(100,500,l)
);
},
{
closed = 0;
nodes = (
(400,450,l),
(400,300,l),
(300,300,ls),
(247,300,o),
(200,253,o),
(200,200,cs),
(200,50,l)
);
}
);
width = 600;
}
);
metricLeft = H;
metricRight = H;
unicode = 55;
},
{
color = 4;
glyphname = eight;
layers = (
{
layerId = m01;
shapes = (
{
angle = 180;
pos = (200,60);
ref = _part.corner;
},
{
pos = (100,100);
ref = _part.square;
},
{
pos = (200,250);
ref = _part.corner;
scale = (-1,1);
},
{
pos = (200,250);
ref = _part.square;
},
{
pos = (300,250);
ref = _part.square;
},
{
pos = (400,60);
ref = _part.corner;
scale = (1,-1);
},
{
pos = (400,250);
ref = _part.corner;
},
{
pos = (200,-40);
ref = _part.square;
},
{
pos = (300,-40);
ref = _part.square;
},
{
pos = (100,200);
ref = _part.square;
scale = (1,0.5);
},
{
pos = (400,100);
ref = _part.square;
},
{
pos = (400,200);
ref = _part.square;
scale = (1,0.5);
},
{
pos = (200,540);
ref = _part.corner;
scale = (-1,1);
},
{
pos = (200,540);
ref = _part.square;
},
{
pos = (300,540);
ref = _part.square;
},
{
pos = (400,540);
ref = _part.corner;
},
{
angle = 180;
pos = (200,450);
ref = _part.corner;
},
{
pos = (400,450);
ref = _part.corner;
scale = (1,-1);
},
{
pos = (100,450);
ref = _part.square;
scale = (1,0.9);
},
{
pos = (400,450);
ref = _part.square;
scale = (1,0.9);
},
{
pos = (100,60);
ref = _part.square;
},
{
pos = (400,60);
ref = _part.square;
}
);
width = 600;
},
{
associatedMasterId = m01;
layerId = "187AF3F3-1D31-4FB6-8F3D-243FC35C337C";
name = side;
shapes = (
{
closed = 0;
nodes = (
(400,250,l,{
name = shadowBottomColor;
}),
(400,60,l,{
name = shadowColor;
})
);
},
{
closed = 0;
nodes = (
(400,540,l,{
name = shadowBottomColor;
}),
(400,350,l,{
name = shadowColor;
})
);
},
{
closed = 0;
nodes = (
(100,60,l,{
name = shadowBottomColor;
}),
(100,250,ls,{
name = shadowColor;
}),
(100,303,o),
(147,350,o),
(200,350,cs,{
name = shadowColor;
}),
(210,350,l)
);
}
);
width = 600;
},
{
associatedMasterId = m01;
layerId = "6A3E327A-C02E-4E7A-ADDC-EEEFE339978D";
name = top;
shapes = (
{
closed = 0;
nodes = (
(430,60,l,{
name = frontTopColor;
}),
(200,60,l,{
name = shadowColor;
})
);
},
{
closed = 0;
nodes = (
(400,640,l,{
name = topColor;
}),
(200,640,ls,{
name = topColor;
}),
(147,640,o),
(100,593,o),
(100,540,cs,{
name = shadowColor;
}),
(100,450,l,{
name = shadowBottomColor;
})
);
},
{
closed = 0;
nodes = (
(400,350,l,{
name = frontTopColor;
}),
(230,350,l,{
name = shadowColor;
})
);
}
);
width = 600;
},
{
associatedMasterId = m01;
layerId = "12229333-B838-44BC-AD70-B48FC1110C2A";
name = highlightColor;
shapes = (
{
closed = 0;
nodes = (
(400,540,l),
(400,350,l),
(260,350,l)
);
},
{
closed = 0;
nodes = (
(400,250,l),
(400,60,l),
(200,60,l)
);
},
{
closed = 0;
nodes = (
(400,640,l),
(200,640,ls),
(147,640,o),
(100,593,o),
(100,540,cs),
(100,450,ls)
);
},
{
closed = 0;
nodes = (
(200,350,ls),
(147,350,o),
(100,303,o),
(100,250,cs),
(100,60,l)
);
}
);
width = 600;
}
);
metricLeft = H;
metricRight = H;
unicode = 56;
},
{
color = 4;
glyphname = nine;
layers = (
{
layerId = m01;
shapes = (
{
pos = (400,540);
ref = _part.corner;
},
{
pos = (400,400);
ref = _part.square;
},
{
pos = (400,300);
ref = _part.square;
scale = (1,-1);
},
{
pos = (300,320);
ref = _part.corner;
scale = (1,-1);
},
{
pos = (200,220);
ref = _part.square;
},
{
pos = (200,540);
ref = _part.corner;
scale = (-1,1);
},
{
angle = 180;
pos = (200,320);
ref = _part.corner;
},
{
pos = (300,540);
ref = _part.square;
},
{
pos = (200,540);
ref = _part.square;
},
{
pos = (400,300);
ref = _part.square;
},
{
pos = (100,320);
ref = _part.square;
scale = (1,1.2);
},
{
pos = (400,100);
ref = _part.corner;
scale = (1,-1);
},
{
angle = 180;
pos = (400,100);
ref = _part.square;
},
{
angle = 180;
pos = (300,100);
ref = _part.square;
},
{
angle = 180;
pos = (200,100);
ref = _part.square;
},
{
pos = (400,100);
ref = _part.square;
},
{
pos = (400,440);
ref = _part.square;
},
{
pos = (100,440);
ref = _part.square;
}
);
width = 600;
},
{
associatedMasterId = m01;
layerId = "0F968FB1-867C-4B8D-85E1-E051708649F2";
name = side;
shapes = (
{
closed = 0;
nodes = (
(400,640,l,{
name = topColor;
}),
(200,640,ls,{
name = topColor;
}),
(147,640,o),
(100,593,o),
(100,540,cs,{
name = shadowColor;
}),
(100,320,l,{
name = shadowBottomColor;
})
);
},
{
closed = 0;
nodes = (
(400,540,l,{
name = shadowBottomColor;
}),
(400,320,l,{
name = shadowColor;
})
);
},
{
closed = 0;
nodes = (
(400,310,l,{
name = shadowBottomColor;
}),
(400,100,l,{
name = shadowColor;
})
);
},
{
closed = 0;
nodes = (
(100,100,l,{
name = shadowColor;
}),
(100,0,l,{
name = shadowBottomColor;
})
);
}
);
width = 600;
},
{
associatedMasterId = m01;
layerId = "4B7ED32A-A86C-4F97-A69F-D20F427E7F62";
name = top;
shapes = (
{
closed = 0;
nodes = (
(460,320,l,{
name = frontTopColor;
}),
(200,320,l,{
name = shadowColor;
})
);
},
{
closed = 0;
nodes = (
(400,100,l,{
name = shadowColor;
}),
(100,100,l,{
name = frontTopColor;
})
);
}
);
width = 600;
},
{
associatedMasterId = m01;
layerId = "64C5A3C8-391A-498B-B90A-D8997606AE42";
name = highlightColor;
shapes = (
{
closed = 0;
nodes = (
(400,540,l),
(400,320,l),
(200,320,l)
);
},
{
closed = 0;
nodes = (
(400,200,l),
(400,100,l),
(100,100,l),
(100,0,l)
);
},
{
closed = 0;
nodes = (
(400,640,l),
(200,640,ls),
(147,640,o),
(100,593,o),
(100,540,cs),
(100,320,l)
);
}
);
width = 600;
}
);
metricLeft = H;
metricRight = H;
unicode = 57;
},
{
glyphname = comma;
layers = (
{
layerId = m01;
shapes = (
{
closed = 1;
nodes = (
(100,0,l),
(200,0,l),
(200,100,l),
(100,100,l)
);
},
{
closed = 1;
nodes = (
(147,0,o),
(100,-47,o),
(100,-100,c),
(200,-100,l),
(200,0,l)
);
}
);
width = 300;
}
);
metricLeft = period;
metricRight = period;
unicode = 44;
},
{
color = 1;
glyphname = exclam;
layers = (
{
layerId = m01;
shapes = (
{
pos = (200,100);
ref = _part.square;
scale = (-1,1);
},
{
pos = (200,400);
ref = _part.square;
scale = (-1,1);
},
{
ref = period;
},
{
pos = (200,300);
ref = _part.square;
scale = (-1,1);
},
{
pos = (200,200);
ref = _part.square;
scale = (-1,1);
},
{
pos = (200,500);
ref = _part.square;
scale = (-1,1);
},
{
pos = (200,600);
ref = _part.square;
scale = (-1,1);
}
);
width = 300;
},
{
associatedMasterId = m01;
layerId = "A3909600-104F-4DC2-B48B-8C433000A163";
name = side;
shapes = (
{
closed = 0;
nodes = (
(100,700,l,{
name = shadowColor;
}),
(100,100,l,{
name = shadowBottomColor;
})
);
}
);
width = 300;
},
{
associatedMasterId = m01;
layerId = "FAC84A8F-046E-49C3-B66D-415A937796FF";
name = top;
shapes = (
{
closed = 0;
nodes = (
(200,700,l,{
name = topColor;
}),
(100,700,l,{
name = topColor;
})
);
}
);
width = 300;
},
{
associatedMasterId = m01;
layerId = "75A49B9D-74D4-42C7-9508-6D3EF6C03B18";
name = highlightColor;
shapes = (
{
closed = 0;
nodes = (
(200,700,l),
(100,700,l),
(100,200,l)
);
}
);
width = 300;
}
);
metricLeft = H;
metricRight = H;
unicode = 33;
},
{
color = 1;
glyphname = exclamdown;
layers = (
{
layerId = m01;
shapes = (
{
angle = 180;
pos = (200,500);
ref = _part.square;
},
{
angle = 180;
pos = (200,200);
ref = _part.square;
},
{
pos = (0,700);
ref = period;
scale = (1,-1);
},
{
angle = 180;
pos = (200,300);
ref = _part.square;
},
{
angle = 180;
pos = (200,400);
ref = _part.square;
},
{
angle = 180;
pos = (200,100);
ref = _part.square;
},
{
angle = 180;
pos = (200,600);
ref = _part.square;
}
);
width = 300;
},
{
associatedMasterId = m01;
layerId = "0EA62432-F4B1-436A-8153-CE36A4858917";
name = side;
shapes = (
{
closed = 0;
nodes = (
(100,600,l,{
name = shadowColor;
}),
(100,0,l,{
name = shadowBottomColor;
})
);
}
);
width = 300;
},
{
associatedMasterId = m01;
layerId = "E7BCE9B6-4838-4C92-914E-A1E2ADE37A14";
name = top;
shapes = (
{
closed = 0;
nodes = (
(200,600,l,{
name = topColor;
}),
(100,600,l,{
name = topColor;
})
);
}
);
width = 300;
},
{
associatedMasterId = m01;
layerId = "5C3F3232-C9B9-41FD-8928-A75757913411";
name = highlightColor;
shapes = (
{
closed = 0;
nodes = (
(200,600,l),
(100,600,l),
(100,100,l)
);
}
);
width = 300;
}
);
metricLeft = H;
metricRight = H;
unicode = 161;
},
{
color = 1;
glyphname = question;
layers = (
{
layerId = m01;
shapes = (
{
pos = (200,100);
ref = _part.square;
scale = (-1,1);
},
{
pos = (300,500);
ref = _part.square;
},
{
pos = (300,500);
ref = _part.square;
scale = (-1,1);
},
{
pos = (200,500);
ref = _part.corner;
scale = (-1,1);
},
{
pos = (200,200);
ref = _part.corner;
scale = (-1,1);
},
{
angle = 180;
pos = (500,400);
ref = _part.square;
},
{
pos = (400,300);
ref = _part.corner;
scale = (1,-1);
},
{
pos = (300,200);
ref = _part.square;
},
{
pos = (300,200);
ref = _part.square;
scale = (-1,1);
},
{
pos = (400,500);
ref = _part.corner;
},
{
pos = (500,400);
ref = _part.square;
scale = (-1,1);
},
{
pos = (200,400);
ref = _part.square;
scale = (-1,1);
},
{
ref = period;
}
);
width = 600;
},
{
associatedMasterId = m01;
layerId = "AA2A58A4-A2AE-4D58-9018-F8658527AA1F";
name = side;
shapes = (
{
closed = 0;
nodes = (
(400,600,l,{
name = topColor;
}),
(200,600,ls,{
name = topColor;
}),
(147,600,o),
(100,553,o),
(100,500,cs,{
name = shadowColor;
}),
(100,400,l,{
name = shadowColor;
})
);
},
{
closed = 0;
nodes = (
(400,500,l,{
name = shadowBottomColor;
}),
(400,300,l,{
name = shadowColor;
})
);
}
);
width = 600;
},
{
associatedMasterId = m01;
layerId = "60990810-B8A2-4732-8E29-3B1D3D68AB1A";
name = top;
shapes = (
{
closed = 0;
nodes = (
(440,300,l,{
name = frontTopColor;
}),
(200,300,ls,{
name = shadowColor;
}),
(147,300,o),
(100,253,o),
(100,200,cs,{
name = shadowColor;
}),
(100,100,l,{
name = shadowBottomColor;
})
);
}
);
width = 600;
},
{
associatedMasterId = m01;
layerId = "6795EAEC-D0A6-46AB-BB52-6AC0661EEBED";
name = highlightColor;
shapes = (
{
closed = 0;
nodes = (
(400,450,l),
(400,300,l),
(258,300,l)
);
},
{
closed = 0;
nodes = (
(400,600,l),
(200,600,ls),
(147,600,o),
(100,553,o),
(100,500,cs),
(100,400,l)
);
},
{
closed = 0;
nodes = (
(200,300,l),
(147,300,o),
(100,253,o),
(100,200,cs),
(100,100,l)
);
}
);
width = 600;
}
);
metricLeft = H;
metricRight = H;
unicode = 63;
},
{
color = 4;
glyphname = questiondown;
layers = (
{
layerId = m01;
shapes = (
{
pos = (400,500);
ref = _part.square;
scale = (1,-1);
},
{
angle = 180;
pos = (300,100);
ref = _part.square;
},
{
pos = (300,100);
ref = _part.square;
scale = (1,-1);
},
{
pos = (400,100);
ref = _part.corner;
scale = (1,-1);
},
{
pos = (400,400);
ref = _part.corner;
scale = (1,-1);
},
{
pos = (100,200);
ref = _part.square;
},
{
pos = (200,300);
ref = _part.corner;
scale = (-1,1);
},
{
angle = 180;
pos = (300,400);
ref = _part.square;
},
{
pos = (300,400);
ref = _part.square;
scale = (1,-1);
},
{
angle = 180;
pos = (200,100);
ref = _part.corner;
},
{
pos = (100,200);
ref = _part.square;
scale = (1,-1);
},
{
pos = (400,200);
ref = _part.square;
scale = (1,-1);
},
{
angle = 180;
pos = (600,600);
ref = period;
}
);
width = 600;
},
{
associatedMasterId = m01;
layerId = "A9BDB037-72F3-4188-BA9E-1B40E563FA7E";
name = side;
shapes = (
{
closed = 0;
nodes = (
(400,500,l,{
name = shadowColor;
}),
(400,400,l,{
name = shadowColor;
})
);
},
{
closed = 0;
nodes = (
(400,200,l,{
name = shadowColor;
}),
(400,60,l,{
name = shadowBottomColor;
})
);
}
);
width = 600;
},
{
associatedMasterId = m01;
layerId = "36F2C660-3074-4CDF-AB08-217FE710A02B";
name = top;
shapes = (
{
closed = 0;
nodes = (
(500,500,l,{
name = topColor;
}),
(400,500,l,{
name = topColor;
})
);
},
{
closed = 0;
nodes = (
(500,200,l,{
name = frontTopColor;
}),
(400,200,l,{
name = frontTopColor;
})
);
},
{
closed = 0;
nodes = (
(450,100,l,{
name = frontTopColor;
}),
(200,100,l,{
name = shadowColor;
})
);
},
{
closed = 0;
nodes = (
(400,400,l,{
name = frontTopColor;
}),
(200,400,ls,{
name = shadowColor;
}),
(147,400,o),
(100,353,o),
(100,300,cs,{
name = shadowColor;
}),
(100,100,l,{
name = shadowBottomColor;
})
);
}
);
width = 600;
},
{
associatedMasterId = m01;
layerId = "552D0B90-4385-4744-A5EB-21A3789B025B";
name = highlightColor;
shapes = (
{
closed = 0;
nodes = (
(500,500,l),
(400,500,l),
(400,420,l)
);
},
{
closed = 0;
nodes = (
(360,400,l),
(200,400,ls),
(147,400,o),
(100,353,o),
(100,300,cs),
(100,130,l)
);
},
{
closed = 0;
nodes = (
(400,200,l),
(400,100,l),
(200,100,l)
);
}
);
width = 600;
}
);
metricLeft = H;
metricRight = H;
unicode = 191;
},
{
glyphname = bullet;
layers = (
{
layerId = m01;
shapes = (
{
pos = (200,250);
ref = _part.corner;
},
{
angle = 180;
pos = (200,250);
ref = _part.corner;
},
{
pos = (200,250);
ref = _part.corner;
scale = (-1,1);
},
{
pos = (200,250);
ref = _part.corner;
scale = (1,-1);
}
);
width = 400;
},
{
associatedMasterId = m01;
layerId = "41D7F7FB-206F-4F56-AE7A-5EE92F26E638";
name = highlightColor;
shapes = (
{
closed = 0;
nodes = (
(270,320,l),
(250,340,o),
(230,350,o),
(200,350,cs),
(147,350,o),
(100,303,o),
(100,250,cs),
(100,227,o),
(111,203,o),
(130,180,c)
);
}
);
width = 400;
}
);
metricLeft = hyphen;
metricRight = hyphen;
unicode = 8226;
},
